<?xml version="1.0" standalone="no"?>
<!DOCTYPE svg PUBLIC "-//W3C//DTD SVG 1.1//EN" "http://www.w3.org/Graphics/SVG/1.1/DTD/svg11.dtd" >
<svg xmlns="http://www.w3.org/2000/svg" xmlns:xlink="http://www.w3.org/1999/xlink" version="1.1">
<metadata>
Created by FontForge 20170731 at Fri Jan  1 02:30:17 1904
 By Aleksey,,,
Copyright 1989,1990 URW Unternehmensberatunge and The Compa 
</metadata>
<defs>
<font id="EurostileCnd-Bold" horiz-adv-x="236" >
  <font-face 
    font-family="EurostileCnd-Bold"
    font-weight="400"
    font-stretch="normal"
    units-per-em="1000"
    panose-1="0 0 0 0 0 0 0 0 0 0"
    ascent="800"
    descent="-200"
    x-height="466"
    cap-height="667"
    bbox="-45 -207 1058 865"
    underline-thickness="50"
    underline-position="-155"
    unicode-range="U+0020-F002"
  />
<missing-glyph 
 />
    <glyph glyph-name=".notdef" 
 />
    <glyph glyph-name="glyph1" horiz-adv-x="0" 
 />
    <glyph glyph-name="glyph2" 
 />
    <glyph glyph-name="space" unicode=" " 
 />
    <glyph glyph-name="space" unicode="&#xa0;" 
 />
    <glyph glyph-name="exclam" unicode="!" horiz-adv-x="234" 
d="M161 122v-122h-96v122h96v0zM166 665l-8 -444h-92l-6 444h106v0z" />
    <glyph glyph-name="quotedbl" unicode="&#x22;" horiz-adv-x="332" 
d="M124 400h-75l-18 267h112l-19 -267v0zM281 400h-74l-18 267h111l-19 -267v0z" />
    <glyph glyph-name="numbersign" unicode="#" horiz-adv-x="575" 
d="M272 450h111l44 128h46l-44 -128h101l-16 -50h-103l-44 -127h105l-18 -49h-103l-45 -131h-45l44 131h-109l-46 -131h-47l45 131h-103l17 49h105l42 127h-104l17 50h105l44 128h46l-45 -128v0zM256 400l-44 -127h110l44 127h-110v0z" />
    <glyph glyph-name="dollar" unicode="$" horiz-adv-x="533" 
d="M297 570v-180q89 -4 152.5 -29.5t63.5 -153.5q0 -127 -46 -164.5t-150 -42.5h-20v-75h-62v75q-91 0 -153 32t-62 160v24h99q0 -80 21.5 -96t73.5 -20q5 0 10 -0.5t11 -0.5v193q-14 2 -27 3.5t-26 2.5q-70 8 -113 35t-43 152q0 127 59.5 157t149.5 30v64h62v-64
q98 -4 148.5 -32t50.5 -164h-95q0 2 -0.5 3.5t-0.5 3.5v3.5v3.5q0 50 -19 64.5t-60 14.5h-6t-6 1h-6h-6v0zM297 99q2 0 4 -0.5t5 -0.5h4h4q46 0 72 18t26 77q0 66 -23.5 78.5t-63.5 14.5q-6 1 -13.5 1t-14.5 1v-189v0zM235 570h-15q-41 -1 -67 -12t-26 -70q0 -70 28.5 -82.5
t79.5 -12.5v177v0z" />
    <glyph glyph-name="percent" unicode="%" horiz-adv-x="684" 
d="M428 174q0 80 18 120.5t91 40.5q68 0 100.5 -20.5t32.5 -108.5v-72q0 -15 -0.5 -30t-3.5 -29q-10 -52 -41.5 -64t-71.5 -12q-62 0 -94 23t-32 108v11.5t1 10.5v11.5v10.5v0zM484 171l1 -54q0 -46 15 -54t46 -8q37 0 52.5 9.5t15.5 53.5v98q0 47 -15.5 55.5t-50.5 8.5h-18
h-4.5h-4.5q-8 -1 -15 -3.5t-12 -9.5q-3 -5 -5 -12t-3 -14q-1 -3 -1 -6.5v-6.5q-1 -14 -1 -28.5v-28.5v0zM558 667l-360 -667h-59l359 667h60v0zM27 508q0 79 18 120t92 41h12q65 0 92.5 -22.5t27.5 -112.5v-63q0 -68 -18 -103.5t-87 -35.5q-65 0 -101.5 22t-36.5 109v11.5
t1 11.5v10.5v11.5v0zM83 504v-54q1 -46 16 -54t46 -8q36 0 52 9.5t16 53.5v24.5v24.5v24.5v24.5q0 48 -15 56t-50 8h-18q-10 0 -20 -2t-16 -11q-4 -5 -6 -12t-3 -14q-1 -3 -1.5 -6.5t-0.5 -6.5v-57v0z" />
    <glyph glyph-name="ampersand" unicode="&#x26;" horiz-adv-x="590" 
d="M422 323h91q1 -10 1 -19.5v-19.5q0 -33 -2 -65.5t-10 -64.5l82 -81l-51 -73l-68 67q-23 -43 -60 -55.5t-77 -13.5q-7 -1 -14.5 -1h-15.5l-16 -1q-112 1 -175 31t-63 184q0 75 21.5 116t86.5 52q-10 10 -17 18.5t-12 17.5q-11 17 -14.5 37t-3.5 52q0 107 50.5 132.5
t127.5 25.5q84 0 133 -27.5t49 -143.5v-35h-96q0 66 -10.5 87.5t-71.5 21.5q-31 0 -55.5 -8t-24.5 -54q0 -24 3.5 -38t12.5 -27q4 -7 10.5 -14t15.5 -16l172 -173q1 11 1 23v24v10v11v10v10v0zM209 320q-41 -10 -52 -30.5t-11 -69.5q0 -91 26 -108t92 -17h32q32 0 54.5 6.5
t43.5 36.5l-185 182v0z" />
    <glyph glyph-name="quotesingle" unicode="'" horiz-adv-x="177" 
d="M127 400h-78l-18 267h114l-18 -267v0z" />
    <glyph glyph-name="parenleft" unicode="(" horiz-adv-x="263" 
d="M224 676v-104h-8t-9 -1q-10 0 -19.5 -3t-16.5 -10t-11 -18t-6 -22q-1 -6 -1.5 -12t-1.5 -11q-1 -23 -1.5 -46.5t-0.5 -46.5v-46l2 -237v-16.5t1 -16.5q0 -15 2 -28.5t7 -26.5q4 -16 15 -22t23 -8h4.5h4.5h16v-103q-107 1 -139.5 49t-37.5 169q-2 40 -2.5 79.5t-0.5 79.5
v133q0 133 27.5 200.5t152.5 67.5v0z" />
    <glyph glyph-name="parenright" unicode=")" horiz-adv-x="263" 
d="M42 -102v104q38 0 53 17t19 60q2 23 2 46.5v46.5v47l-2 236v19t-1 19q-1 13 -3 26t-5 25q-6 17 -17.5 22.5t-25.5 6.5h-2h-2h-16v103q103 0 138.5 -46.5t37.5 -170.5q1 -20 1.5 -40t1.5 -40v-40v-40v-114q0 -133 -22.5 -209.5t-156.5 -76.5v-1z" />
    <glyph glyph-name="asterisk" unicode="*" horiz-adv-x="533" 
d="M417 515l-103 -41l61 -103l-44 -40l-63 107l-68 -107l-45 40l63 103l-102 45l19 64l103 -45v129h56v-129l104 45l19 -68v0z" />
    <glyph glyph-name="plus" unicode="+" horiz-adv-x="425" 
d="M14 380h172v197h53v-197h173v-59h-173v-197h-53v197h-172v59v0z" />
    <glyph glyph-name="comma" unicode="," horiz-adv-x="190" 
d="M141 120v-117q0 -62 -17 -88.5t-76 -26.5h-4.5t-5.5 1v51q23 2 34.5 10.5t11.5 36.5v3.5v3.5q-1 2 -1 3.5v2.5h-37v120h95v0z" />
    <glyph glyph-name="hyphen" unicode="-" horiz-adv-x="201" 
d="M0 303h201v-114h-201v114v0z" />
    <glyph glyph-name="period" unicode="." horiz-adv-x="179" 
d="M137 122v-122h-94v122h94v0z" />
    <glyph glyph-name="slash" unicode="/" horiz-adv-x="515" 
d="M460 667l-384 -767h-72l384 767h72v0z" />
    <glyph glyph-name="zero" unicode="0" horiz-adv-x="533" 
d="M29 349v36v36q0 17 0.5 35t1.5 36q5 53 28.5 97t65.5 65q16 8 35 11t39 4q7 1 14.5 1h14.5h40q122 0 177.5 -37t60.5 -198v-88v-35.5v-35.5t-0.5 -35.5t-0.5 -35.5q0 -6 -0.5 -12t-0.5 -13q-5 -46 -22.5 -89t-53.5 -68q-17 -11 -38.5 -16.5t-43.5 -6.5q-16 -1 -31.5 -1.5
t-29.5 -0.5l-45 -1q-8 1 -16.5 1t-17.5 1q-38 1 -73.5 13t-60.5 48q-18 26 -28.5 57t-12.5 65q-1 28 -1.5 55.5t-0.5 55.5v56v0zM134 342l1 -109q1 -97 32 -113.5t98 -16.5q71 0 103 19.5t32 109.5v100.5t1 100.5q0 99 -31 116t-103 17h-32q-35 0 -63.5 -13.5t-34.5 -78.5
q-1 -10 -2 -21.5t-2 -22.5v-10.5v-11.5v-16.5t1 -16.5v-16.5v-16.5v0z" />
    <glyph glyph-name="one" unicode="1" horiz-adv-x="533" 
d="M372 667v-667h-103v560l-147 -173l-62 79l181 201h131v0z" />
    <glyph glyph-name="two" unicode="2" horiz-adv-x="533" 
d="M470 101v-101h-427v138q0 113 42.5 145t119.5 47q5 2 11 3l12 2q10 2 19.5 3t18.5 3q50 7 75 26t25 94q0 77 -24.5 92.5t-83.5 15.5q-68 0 -90.5 -17.5t-22.5 -100.5v-22h-102v29v20v20q2 39 11.5 74.5t39.5 58.5q26 20 56.5 28t62.5 9q11 1 22.5 1h22.5q102 0 157 -35.5
t55 -172.5q0 -135 -48 -168.5t-122 -47.5q-24 -4 -49 -8.5t-52 -12.5q-39 -11 -46.5 -37t-7.5 -68v-18h325v0z" />
    <glyph glyph-name="three" unicode="3" horiz-adv-x="533" 
d="M219 292v96h15.5t15.5 1h14.5h15.5q56 0 72.5 15t16.5 82q0 38 -12 60.5t-48 22.5q-6 1 -12.5 1.5t-13.5 0.5h-13.5h-12.5q-71 0 -88.5 -19.5t-18.5 -99.5h-101q0 141 44 180.5t156 39.5q85 0 154.5 -23t69.5 -151q0 -60 -15.5 -102.5t-75.5 -53.5v-3q59 -10 79.5 -44
t20.5 -102q0 -71 -21.5 -124.5t-90.5 -66.5q-27 -4 -54 -5.5t-55 -1.5q-93 0 -157 31t-64 162v18t1 19h102q0 -73 16 -100.5t82 -27.5h23q58 0 85.5 14t27.5 89q0 62 -20.5 77t-70.5 15h-67v0z" />
    <glyph glyph-name="four" unicode="4" horiz-adv-x="533" 
d="M434 667v-428h66v-95h-66v-144h-102v144h-309v138l252 385h159v0zM332 239l-2 335l-221 -335h223v0z" />
    <glyph glyph-name="five" unicode="5" horiz-adv-x="533" 
d="M460 667v-96h-301v-165q20 30 49.5 40t60.5 12h11.5h11.5q101 0 146.5 -46.5t45.5 -169.5v-26t-1 -26q-3 -62 -23.5 -116t-81.5 -68q-16 -3 -32 -5t-31 -3q-16 -1 -32 -1.5t-32 -0.5h-20.5t-21.5 1q-41 2 -78 16t-60 57q-11 22 -14.5 46t-4.5 49q0 5 -0.5 10.5t-0.5 11.5
v2.5v3.5h104q1 -70 26 -83t74 -13q59 0 91 15t32 94v33q0 67 -16 93t-78 26h-38h-13t-14 -1q-20 -1 -38 -10.5t-22 -35.5h-95v356h396v0z" />
    <glyph glyph-name="six" unicode="6" horiz-adv-x="532" 
d="M470 480h-104q0 53 -16 71.5t-62 18.5h-49q-53 0 -73.5 -18t-20.5 -76v-18v-116q21 47 55.5 56t74.5 9q96 0 148.5 -33t52.5 -161v-6.5v-6.5q-1 -68 -21.5 -127t-89.5 -70q-17 -3 -34.5 -4t-35.5 -2q-9 -1 -17.5 -1h-17.5q-103 0 -162.5 39t-59.5 178q0 30 0.5 59.5
t0.5 58.5t0.5 58.5t0.5 59.5q0 143 54 182.5t165 39.5q95 0 153 -28.5t58 -162.5v0zM144 219q0 -88 21.5 -105.5t93.5 -17.5h8q47 0 75.5 11t28.5 75v22q0 63 -13.5 83.5t-75.5 20.5h-34h-16t-17 -1q-15 -1 -29 -5t-24 -13q-9 -8 -13 -20.5t-4 -26.5q-1 -6 -1 -12v-11v0z
" />
    <glyph glyph-name="seven" unicode="7" horiz-adv-x="533" 
d="M461 667v-123l-232 -544h-117l244 561h-316v106h421v0z" />
    <glyph glyph-name="eight" unicode="8" horiz-adv-x="532" 
d="M385 343q58 -16 76.5 -49.5t18.5 -102.5q0 -130 -50.5 -162.5t-154.5 -32.5l-14 -1q-100 1 -161 28.5t-61 168.5q0 71 22 103.5t78 47.5q-55 21 -73 51t-18 97q0 110 47.5 145t130.5 35h32q88 0 151.5 -23.5t63.5 -153.5v-21t-1 -23q-2 -19 -7 -37t-15 -31
q-9 -12 -22 -19.5t-27 -13.5q-4 -1 -8 -2.5t-8 -3.5v0zM145 197q0 -58 18 -78t67 -20h59q50 0 69.5 19.5t19.5 76.5q0 44 -10.5 69t-52.5 28q-22 2 -43.5 2h-43.5q-46 0 -64.5 -16.5t-18.5 -80.5v0zM151 487q0 -46 10.5 -70t55.5 -26q18 -1 36 -1.5t37 -0.5q51 0 65.5 24
t14.5 76q0 59 -22 71t-69 12h-36h-12.5t-13.5 -1q-14 -1 -27 -4t-21 -11q-9 -7 -12.5 -19t-4.5 -25q-1 -7 -1 -13v-12v0z" />
    <glyph glyph-name="nine" unicode="9" horiz-adv-x="533" 
d="M41 187h102q0 -53 17.5 -71.5t62.5 -18.5h13.5t13.5 1h14h14q53 0 75 18.5t22 82.5v127q-5 -13 -12 -25t-19 -20q-14 -10 -31 -14t-34 -5q-10 -1 -19.5 -1h-18.5q-97 0 -146.5 34.5t-49.5 161.5q0 137 49 176t155 39t164.5 -32t65.5 -175v-15v-15v-15.5v-15.5v-38t1 -37
v-38v-38q0 -145 -41 -201t-172 -56l-12 -1q-100 1 -157 26.5t-57 165.5v0zM149 464q0 -61 17.5 -82.5t72.5 -21.5h44q44 0 69 14.5t25 70.5q0 80 -18.5 102.5t-85.5 22.5h-20q-59 0 -81.5 -15.5t-22.5 -90.5v0z" />
    <glyph glyph-name="colon" unicode=":" horiz-adv-x="179" 
d="M137 122v-122h-94v122h94v0zM137 467v-122h-94v122h94v0z" />
    <glyph glyph-name="semicolon" unicode=";" horiz-adv-x="179" 
d="M132 120v-117q0 -62 -17 -88.5t-76 -26.5h-2.5h-2.5t-2.5 0.5t-2.5 0.5v51q23 2 34.5 10.5t11.5 36.5v3.5v3.5q-1 2 -1 3.5v2.5h-37v120h95v0zM130 466v-122h-95v122h95v0z" />
    <glyph glyph-name="less" unicode="&#x3c;" horiz-adv-x="425" 
d="M396 607v-121l-258 -149l258 -150v-120l-368 219v102l368 219v0z" />
    <glyph glyph-name="equal" unicode="=" horiz-adv-x="425" 
d="M13 307h398v-58h-398v58v0zM13 453h398v-58h-398v58v0z" />
    <glyph glyph-name="greater" unicode="&#x3e;" horiz-adv-x="425" 
d="M29 67v121l258 149l-257 149l-1 121l368 -219v-103l-368 -218v0z" />
    <glyph glyph-name="question" unicode="?" horiz-adv-x="450" 
d="M249 122v-122h-94v122h94v0zM251 212h-96q0 63 7 93.5t43 54.5q7 4 15 8.5t17 9.5l19 9.5l17 8.5q23 12 34 29.5t11 62.5q0 54 -17.5 72t-61.5 18h-13q-49 0 -69.5 -16t-20.5 -74v-24h-94v12t1 12v20.5t1 21.5q1 27 7.5 53t24.5 44q17 18 41 27.5t49 12.5q14 3 27.5 3.5
t26.5 0.5q88 0 139.5 -27t51.5 -146v-16v-16q-1 -29 -6.5 -56.5t-21.5 -49.5q-11 -15 -24.5 -24t-27.5 -16q-4 -2 -8.5 -4t-8.5 -4q-25 -12 -43.5 -28.5t-18.5 -55.5v-4v-4q-1 -2 -1 -4v-4v0z" />
    <glyph glyph-name="at" unicode="@" horiz-adv-x="595" 
d="M359 491h69v-211v-4.5t1 -4.5v-1v-1q1 -20 6 -36t27 -16q18 0 25 12t10 31t4 38l2 38v19v19v25q0 90 -16 124t-88 40q-21 2 -41.5 2h-40.5q-27 0 -54.5 -1t-55.5 -4q-35 -3 -62 -17t-39 -58q-5 -20 -7.5 -42.5t-3.5 -44.5q-1 -16 -1 -31v-29v-19q0 -141 23.5 -195
t152.5 -54h50h14h14q21 1 42 3.5t38 9.5q8 3 14 9.5t9 15.5l51 -27q-7 -15 -16.5 -27.5t-23.5 -20.5q-21 -12 -47 -17t-54 -6q-9 -1 -19 -1h-19h-38q-87 0 -155.5 23t-81.5 147q-4 34 -5.5 68t-1.5 68q0 190 47 250t207 60h21q141 0 190.5 -37.5t49.5 -212.5q0 -18 -0.5 -39
t-1.5 -42q-2 -27 -7 -53t-15 -46q-12 -23 -31 -31t-40 -9h-5.5h-5.5q-28 0 -52 9.5t-31 48.5q-13 -37 -37.5 -48.5t-56.5 -11.5q-72 0 -89 46t-17 119q0 71 16.5 123.5t89.5 52.5q29 0 49.5 -8t36.5 -40v45v0zM360 351q0 42 -14 62t-50 20q-43 0 -52.5 -24.5t-9.5 -62.5v-43
q0 -40 8.5 -64t49.5 -24q49 0 58.5 25t9.5 73v38v0z" />
    <glyph glyph-name="A" unicode="A" horiz-adv-x="536" 
d="M391 128h-246l-34 -128h-114l189 667h160l192 -667h-110l-37 128v0zM366 223l-98 346l-97 -346h195v0z" />
    <glyph glyph-name="B" unicode="B" horiz-adv-x="541" 
d="M50 0v667h290q77 0 117 -34t40 -133q0 -58 -13.5 -99t-66.5 -55v-4q56 -10 75 -47.5t19 -102.5q0 -100 -35 -146t-127 -46h-299v0zM157 104h139q53 0 79.5 15.5t26.5 81.5q0 59 -20 75.5t-67 16.5h-158v-189v0zM157 388h138q52 0 73 16t21 77q0 47 -15.5 63.5t-53.5 16.5
h-163v-173v0z" />
    <glyph glyph-name="C" unicode="C" horiz-adv-x="526" 
d="M402 239h106q0 -7 0.5 -14t0.5 -13q0 -7 0.5 -14t0.5 -14q0 -118 -57 -152.5t-146 -34.5l-76 -1q-120 1 -158 70.5t-38 198.5q0 12 -0.5 24.5t-0.5 24.5q0 6 -0.5 12t-0.5 12q0 18 -0.5 36.5t-0.5 36.5q0 168 64 214t192 46h37h10.5h11.5q38 -2 74 -14t58 -52
q15 -26 19.5 -56.5t5.5 -60.5q0 -5 0.5 -9t0.5 -8q0 -7 0.5 -14t0.5 -14h-108q-2 7 -2.5 15t-0.5 16v3v3q-1 29 -9.5 52.5t-52.5 26.5q-12 2 -24 2h-24h-19h-16.5t-16.5 -1q-19 -2 -36.5 -7.5t-27.5 -17.5q-10 -13 -14.5 -29.5t-5.5 -33.5q-1 -7 -1.5 -14t-0.5 -14
q-1 -16 -1.5 -31.5t-0.5 -31.5q0 -32 0.5 -64.5t1.5 -64.5q1 -100 29 -123.5t109 -23.5q48 0 83 12t35 80v10.5v10.5q-1 5 -1 10.5v10.5v0z" />
    <glyph glyph-name="D" unicode="D" horiz-adv-x="570" 
d="M50 0v667h279q108 0 160.5 -57.5t52.5 -189.5v-28.5t1 -28.5v-28v-28q0 -124 -33 -215.5t-162 -91.5h-298v0zM158 108h154q85 0 102.5 51.5t17.5 135.5v36q0 33 -0.5 66t-3.5 65q-7 59 -36 77t-73 18h-161v-449v0z" />
    <glyph glyph-name="E" unicode="E" horiz-adv-x="468" 
d="M144 561v-174h266v-93h-266v-189h282v-105h-388v667h385v-106h-279v0z" />
    <glyph glyph-name="F" unicode="F" horiz-adv-x="440" 
d="M159 560v-181h252v-104h-252v-275h-109v667h375v-107h-266v0z" />
    <glyph glyph-name="G" unicode="G" horiz-adv-x="549" 
d="M275 354h250v-18l2 -106q0 -88 -21.5 -152.5t-110.5 -77.5q-14 -1 -28 -1.5t-28 -1.5t-28 -1h-28q-129 0 -190.5 47.5t-61.5 213.5v23.5t1 22.5v22.5v23.5v15.5v15.5v29t1 29q1 41 8.5 81.5t27.5 74.5q25 43 64 58t80 19q13 1 26 1h26h50q107 0 158 -34.5t52 -171.5h-108
q0 45 -15 70t-55 27q-16 1 -31 1.5t-30 0.5q-104 0 -123 -35.5t-21 -152.5v-17v-18l1 -87q1 -103 28.5 -127.5t111.5 -24.5q78 0 107 21.5t29 115.5v4.5v5.5q-1 2 -1 4.5v4.5h-143v95v0z" />
    <glyph glyph-name="H" unicode="H" horiz-adv-x="581" 
d="M531 667v-667h-109v285h-264v-285h-108v667h108v-273h264v273h109v0z" />
    <glyph glyph-name="I" unicode="I" horiz-adv-x="208" 
d="M158 667v-667h-109v667h109v0z" />
    <glyph glyph-name="J" unicode="J" horiz-adv-x="441" 
d="M392 667v-467q0 -115 -39 -159.5t-140 -44.5q-86 0 -139.5 29t-53.5 149v87h102v-14v-13v-14v-14q0 -58 11.5 -80t64.5 -22q47 0 66 19t19 76v16v452h109v0z" />
    <glyph glyph-name="K" unicode="K" horiz-adv-x="540" 
d="M158 667v-272h51l189 272h133l-229 -325l253 -342h-138l-208 286h-51v-286h-109v667h109v0z" />
    <glyph glyph-name="L" unicode="L" horiz-adv-x="428" 
d="M161 667v-555h262v-112h-373v667h111v0z" />
    <glyph glyph-name="M" unicode="M" horiz-adv-x="761" 
d="M711 667v-667h-106l4 562l-179 -562h-98l-181 559l5 -559h-106v667h175l153 -495h4l151 495h178v0z" />
    <glyph glyph-name="N" unicode="N" horiz-adv-x="625" 
d="M575 667v-667h-181l-239 558h-4l4 -558h-106v667h180l239 -558h4l-4 558h107v0z" />
    <glyph glyph-name="O" unicode="O" horiz-adv-x="541" 
d="M33 325q0 167 32 257t195 90q99 0 174.5 -30.5t82.5 -172.5q2 -22 2 -44v-45v-45q0 -185 -34 -262.5t-217 -77.5q-128 0 -182 51t-54 211v18t1 18v16.5v15.5v0zM144 328v-29.5v-29.5t0.5 -29.5t0.5 -29.5q5 -75 34.5 -91t86.5 -16q75 0 107.5 22.5t34.5 115.5
q2 41 2 81.5v80.5q0 93 -19.5 127t-99.5 34q-110 0 -128.5 -36.5t-18.5 -139.5v-28.5v-31.5v0z" />
    <glyph glyph-name="P" unicode="P" horiz-adv-x="519" 
d="M50 0v667h227q113 0 168 -38.5t55 -188.5v-27t-1 -28q-3 -35 -11.5 -68t-31.5 -57q-25 -27 -56.5 -34.5t-63.5 -8.5q-6 -1 -11 -1h-10h-3.5h-3.5h-13h-12h-127v-216h-106v0zM156 326h123q61 0 85.5 15.5t24.5 95.5q0 74 -17 98t-82 24h-134v-233v0z" />
    <glyph glyph-name="Q" unicode="Q" horiz-adv-x="579" 
d="M581 90l-45 -75l-49 43q-28 -34 -65.5 -46t-77.5 -13q-12 -1 -24 -1h-24q-136 0 -200 46.5t-64 224.5v26.5t1 26.5v26.5v26.5v28.5t1 29.5q0 14 1 28.5t2 28.5q14 127 87.5 154t164.5 27q139 0 192.5 -51t55.5 -223v-142v-22.5t-1 -23.5q0 -19 -2.5 -38t-7.5 -37l55 -44
v0zM303 314l121 -98q2 12 2.5 24t0.5 24v20t1 21v20v20v24t-1 24q0 11 -0.5 23t-1.5 24q-2 65 -23 94.5t-80 29.5h-8.5h-9.5q-4 -1 -8.5 -1h-8.5q-81 0 -112 -22.5t-31 -126.5v-83v-23v-21q0 -104 17 -143t123 -39h14h6h6q23 1 45.5 5.5t41.5 21.5l-139 106l45 76v0z" />
    <glyph glyph-name="R" unicode="R" horiz-adv-x="545" 
d="M49 0v667h276q98 0 141 -43.5t43 -162.5v-25t-1 -26q-2 -28 -9.5 -55t-25.5 -45q-10 -10 -22.5 -16t-25.5 -10q-5 -1 -9.5 -2.5t-9.5 -2.5v-4q50 -4 73 -37t23 -92v-146h-109v121l1 15q-1 51 -24.5 69t-61.5 18h-153v-223h-106v0zM155 330h153q50 0 70 23.5t20 79.5
q0 62 -11.5 92.5t-71.5 30.5h-160v-226v0z" />
    <glyph glyph-name="S" unicode="S" horiz-adv-x="508" 
d="M470 472h-104q0 59 -20.5 79t-70.5 20h-29h-15t-16 -1q-15 -1 -29 -4.5t-25 -10.5q-11 -8 -16 -21t-7 -28q0 -6 -0.5 -11.5t-0.5 -10.5q0 -50 16.5 -68.5t60.5 -21.5q4 0 8 -0.5t9 -0.5q10 -1 21 -1.5t21 -0.5q83 -3 147 -27.5t64 -157.5q0 -85 -23 -139.5t-107 -64.5
q-26 -2 -52.5 -3t-53.5 -1q-97 0 -159 25.5t-62 163.5v6.5t1 6.5v6.5v6.5h103q0 -46 10.5 -79t58.5 -34q20 -1 40.5 -1h40.5q51 0 73.5 17.5t22.5 78.5q0 66 -29.5 78t-74.5 13h-17.5t-17.5 1q-5 0 -9.5 0.5t-8.5 1.5q-90 7 -140.5 35.5t-50.5 160.5q0 84 30.5 129t104.5 52
q23 2 45 3t44 1q88 0 152.5 -22t64.5 -150v-26v0z" />
    <glyph glyph-name="T" unicode="T" horiz-adv-x="444" 
d="M275 554v-554h-109v554h-164v113h440v-113h-167v0z" />
    <glyph glyph-name="U" unicode="U" horiz-adv-x="570" 
d="M414 666h107v-444q0 -107 -32.5 -163.5t-134.5 -60.5q-16 -1 -31.5 -1.5t-30.5 -0.5q-113 0 -177 31t-64 188v451h109v-451q0 -72 26 -92t82 -20h37q54 0 81.5 16.5t27.5 84.5v16v446v0z" />
    <glyph glyph-name="V" unicode="V" horiz-adv-x="512" 
d="M408 667h112l-183 -667h-164l-181 667h112l152 -560l152 560v0z" />
    <glyph glyph-name="W" unicode="W" horiz-adv-x="842" 
d="M844 667l-152 -667h-158l-113 509h-3l-117 -509h-156l-148 667h109l118 -562h4l130 562h125l128 -562l123 562h110v0z" />
    <glyph glyph-name="X" unicode="X" horiz-adv-x="524" 
d="M519 667l-169 -323l181 -344h-126l-141 281l-144 -281h-129l187 344l-173 323h127l132 -265l130 265h125v0z" />
    <glyph glyph-name="Y" unicode="Y" horiz-adv-x="506" 
d="M514 667l-210 -411v-256h-108v256l-205 411h124l137 -285l136 285h126v0z" />
    <glyph glyph-name="Z" unicode="Z" horiz-adv-x="490" 
d="M468 667v-110l-314 -447l317 -2v-108h-452v108l311 448l-298 1v110h436v0z" />
    <glyph glyph-name="bracketleft" unicode="[" horiz-adv-x="263" 
d="M46 667h174v-95h-72v-577h72v-95h-174v767v0z" />
    <glyph glyph-name="backslash" unicode="\" horiz-adv-x="515" 
d="M55 667h72l384 -767h-72l-384 767v0z" />
    <glyph glyph-name="bracketright" unicode="]" horiz-adv-x="263" 
d="M217 -100h-174v95h72v576h-72v96h174v-767v0z" />
    <glyph glyph-name="asciicircum" unicode="^" horiz-adv-x="425" 
d="M111 360h-93l137 310h114l137 -310h-93l-101 227l-101 -227v0z" />
    <glyph glyph-name="underscore" unicode="_" horiz-adv-x="425" 
d="M0 -63h425v-74h-425v74v0z" />
    <glyph glyph-name="grave" unicode="`" horiz-adv-x="425" 
d="M162 660l134 -103l-21 -46l-147 76l34 73v0z" />
    <glyph glyph-name="a" unicode="a" horiz-adv-x="445" 
d="M145 330h-96q0 100 48 120t118 20q82 0 133.5 -26t51.5 -140v-304h-93l2 58q-22 -46 -55 -55t-75 -9q-63 0 -103.5 27t-40.5 112q0 90 39.5 120t108.5 30q9 0 19.5 -0.5t20.5 -1.5q14 -1 26.5 -4t23.5 -8q9 -5 15.5 -13.5t11.5 -17.5q1 -1 1.5 -2.5t1.5 -2.5l1 71
q0 58 -18 76t-67 18h-13.5t-15.5 -1q-12 -2 -23 -7.5t-17 -17.5q-2 -6 -3.5 -13.5t-1.5 -14.5v-6.5v-7.5v0zM130 146q0 -52 20 -63.5t59 -11.5h8.5h9.5q29 2 53.5 14.5t24.5 55.5v8.5t-1 8.5q0 9 -3 18t-9 15q-9 8 -20.5 12t-24.5 6q-9 1 -18 1h-17h-13t-13 -1
q-12 -1 -23 -4.5t-19 -11.5q-7 -7 -10 -16.5t-4 -20.5v-4.5v-5.5v0z" />
    <glyph glyph-name="b" unicode="b" horiz-adv-x="449" 
d="M47 0v667h94v-263h4q17 42 47 56t67 14q106 0 131.5 -60t25.5 -172q0 -109 -23 -177t-132 -68q-43 0 -71 14.5t-51 58.5l2 -70h-94v0zM143 244v-19q0 -67 12.5 -104.5t79.5 -37.5q61 0 73.5 35.5t12.5 96.5v40q0 64 -13.5 98t-75.5 34q-64 0 -76.5 -38.5t-12.5 -104.5v0z
" />
    <glyph glyph-name="c" unicode="c" horiz-adv-x="417" 
d="M305 177h93q0 -109 -36 -145.5t-130 -36.5q-108 0 -151.5 44t-43.5 176q0 128 29.5 192.5t150.5 64.5q74 0 125.5 -24.5t51.5 -127.5v-8.5v-8.5h-91q0 58 -21.5 70.5t-66.5 12.5h-10t-10 -1q-14 -1 -26.5 -6t-18.5 -18q-7 -12 -10 -28.5t-5 -33.5q-1 -14 -1 -27v-24v-9.5
v-11.5q-1 -6 -1 -12v-13q0 -60 13 -91t71 -31q55 0 71.5 17t16.5 80v0z" />
    <glyph glyph-name="d" unicode="d" horiz-adv-x="448" 
d="M403 667v-667h-94l2 71q-22 -49 -51 -62t-76 -13q-110 0 -129.5 73t-19.5 181q0 98 26 160t122 62q42 0 71.5 -11t51.5 -56l1 262h96v0zM128 243v-25t1 -25q0 -13 1 -26t3 -25q8 -40 30 -51t53 -11h12.5t12.5 1q15 2 28.5 8t22.5 21q7 13 10 30t4 35q2 16 2 30.5v26.5
q0 71 -12 113t-83 42q-58 0 -71.5 -37.5t-13.5 -98.5v-8v0z" />
    <glyph glyph-name="e" unicode="e" horiz-adv-x="430" 
d="M303 149h93q1 -4 1 -8.5v-9.5q0 -95 -54 -115.5t-120 -20.5q-127 0 -159 55.5t-32 192.5q0 123 34 176.5t146 53.5q111 0 148 -47t37 -178l-1 -34h-269q0 -74 13 -106.5t84 -32.5q30 0 54.5 11t24.5 54v9v0zM304 283q0 67 -15.5 88t-73.5 21q-49 0 -67 -17t-20 -77v-7.5
v-7.5h176v0z" />
    <glyph glyph-name="f" unicode="f" horiz-adv-x="263" 
d="M258 467v-83h-96v-384h-96v384h-56v83h56v51v21t2 22q1 17 5 33.5t12 28.5q15 24 40 34.5t51 13.5q17 2 32.5 2.5t29.5 0.5h4.5h4.5q2 -1 4.5 -1h4.5v-85q-3 1 -6.5 1.5t-7.5 0.5q-4 1 -7.5 1h-6.5h-7.5t-7.5 -1q-33 -3 -42 -19.5t-9 -52.5v-51h96v0z" />
    <glyph glyph-name="g" unicode="g" horiz-adv-x="449" 
d="M402 466v-477q0 -118 -42.5 -157t-140.5 -39q-13 0 -27.5 0.5t-29.5 2.5q-31 3 -59 16.5t-42 46.5q-6 14 -8.5 30t-3.5 32q0 5 -0.5 9.5t-0.5 9.5v6v6l91 -1q0 -48 19.5 -61t55.5 -13q45 0 70.5 15.5t25.5 74.5v99h-2q-16 -42 -48 -55.5t-69 -13.5q-56 0 -100.5 28.5
t-52.5 101.5q-3 28 -4 55.5t-1 55.5q0 104 26.5 169t129.5 65q41 0 65.5 -10t44.5 -43q4 -5 7.5 -11t6.5 -13l-3 71h92v0zM131 238v-30q0 -62 14 -93t73 -31q67 0 79 39.5t12 103.5v10q0 65 -12.5 106.5t-78.5 41.5q-54 0 -70.5 -24.5t-16.5 -91.5v-31v0z" />
    <glyph glyph-name="h" unicode="h" horiz-adv-x="452" 
d="M141 667l2 -270q23 49 49 63.5t72 14.5q72 0 106.5 -35t34.5 -122v-318h-96v290q0 50 -13.5 74t-60.5 24q-55 0 -74.5 -30t-19.5 -91v-267h-94v667h94v0z" />
    <glyph glyph-name="i" unicode="i" horiz-adv-x="179" 
d="M136 467v-467h-94v467h94v0zM136 667v-97h-94v97h94v0z" />
    <glyph glyph-name="j" unicode="j" horiz-adv-x="170" 
d="M128 467v-489q0 -63 -22 -101.5t-83 -38.5q-9 0 -17.5 1.5t-17.5 3.5l-1 76q29 1 38 19t9 50v479h94v0zM128 665v-96h-95v96h95v0z" />
    <glyph glyph-name="k" unicode="k" horiz-adv-x="407" 
d="M141 667v-382h23l111 182h108l-141 -220l169 -247h-114l-133 208h-23v-208h-94v667h94v0z" />
    <glyph glyph-name="l" unicode="l" horiz-adv-x="190" 
d="M144 667v-667h-96v667h96v0z" />
    <glyph glyph-name="m" unicode="m" horiz-adv-x="698" 
d="M47 467h92v-68q21 43 51.5 58t70.5 15h9.5t9.5 -1q34 -2 64.5 -19t39.5 -63h3q17 50 50 66.5t75 16.5q74 0 106.5 -38t32.5 -124v-310h-97v288q0 49 -11 72.5t-58 23.5h-10.5t-11.5 -1q-25 -2 -46 -22t-21 -87v-274h-97v291q-1 49 -11.5 71t-57.5 22q-51 0 -70 -28.5
t-19 -84.5v-271h-94v467v0z" />
    <glyph glyph-name="n" unicode="n" horiz-adv-x="451" 
d="M47 467h90l1 -72q23 44 52 61.5t73 17.5q72 0 106.5 -33.5t34.5 -121.5v-319h-95v288q0 53 -12.5 75.5t-61.5 22.5q-44 0 -69 -26t-25 -80v-280h-94v467v0z" />
    <glyph glyph-name="o" unicode="o" horiz-adv-x="439" 
d="M38 253q0 126 37 173t144 47q113 0 153 -43t40 -180q0 -124 -24.5 -189.5t-150.5 -65.5q-106 0 -152.5 39.5t-46.5 173.5v45v0zM135 241v-32q0 -58 10 -94.5t71 -36.5h11h13t14 1q14 1 26.5 6.5t19.5 17.5q8 14 11.5 34t4.5 42q1 10 1 20.5v20.5v36v20.5t-1 22.5
q-1 21 -5 40t-13 30q-7 9 -17.5 12.5t-21.5 4.5q-5 1 -10 1h-10h-24h-10t-10 -1q-10 -1 -20 -4t-17 -11q-8 -8 -12 -19t-6 -22q0 -3 -0.5 -6t-0.5 -6q-1 -10 -2 -19.5t-1 -18.5q-1 -10 -1 -19.5v-19.5v0z" />
    <glyph glyph-name="p" unicode="p" horiz-adv-x="450" 
d="M47 466h92v-65q23 43 51 57t69 14q106 0 132 -62t26 -173q0 -100 -23.5 -171t-128.5 -71q-42 0 -71 11.5t-52 56.5l-2 -260h-93v663v0zM141 246v-30q0 -60 15 -97.5t75 -37.5q64 0 76.5 35.5t12.5 99.5v27v23t-1 25q-2 20 -5.5 39t-10.5 31q-8 12 -20 17t-24 7
q-7 1 -13 1h-12h-5q-32 0 -55.5 -9t-28.5 -64q-1 -8 -2 -16.5t-1 -16.5q-1 -9 -1 -17.5v-16.5v0z" />
    <glyph glyph-name="q" unicode="q" horiz-adv-x="451" 
d="M407 467v-664h-94v260h-3q-16 -44 -47.5 -56t-69.5 -12q-103 0 -130 62.5t-27 168.5q0 107 24 176t130 69q43 0 70 -11t50 -52q1 -1 2 -2.5t2 -3.5l-1 65h94v0zM133 243v-24q0 -65 13 -101.5t78 -36.5q64 0 76 40.5t12 104.5v9q0 12 -0.5 25.5t-1.5 28.5q-1 21 -5 41.5
t-13 32.5q-8 11 -19.5 15.5t-24.5 6.5q-7 1 -14.5 1h-14.5q-55 0 -70.5 -32.5t-15.5 -94.5v-16v0z" />
    <glyph glyph-name="r" unicode="r" horiz-adv-x="356" 
d="M47 467h91l-2 -62h3q16 35 42.5 52t59.5 17q67 0 88.5 -42t21.5 -112v-32h-87v21q0 36 -7.5 57.5t-45.5 21.5q-37 0 -53.5 -25.5t-16.5 -65.5v-4.5t1 -4.5v-5.5v-4.5v-278h-95v467v0z" />
    <glyph glyph-name="s" unicode="s" horiz-adv-x="421" 
d="M377 340h-91q0 33 -16 45.5t-42 12.5h-10.5h-10.5q-5 -1 -10.5 -1h-10.5q-24 0 -43.5 -7.5t-19.5 -44.5t12.5 -47.5t41.5 -12.5q9 -1 19 -1h20q4 -1 8.5 -1h9.5q60 -2 109.5 -22.5t49.5 -112.5q0 -103 -50.5 -128.5t-126.5 -25.5h-21t-22 1q-54 2 -99 25t-45 102v25h96
q0 -46 16 -61t53 -15h29q35 0 55.5 9.5t20.5 56.5q0 36 -14 45.5t-42 10.5h-10h-10t-10 0.5t-10 0.5q-68 1 -120 20.5t-52 124.5q0 96 53.5 116t117.5 20h25.5t26.5 -1q47 -4 85.5 -25.5t38.5 -88.5v-5.5v-4.5t-0.5 -4.5t-0.5 -5.5v0z" />
    <glyph glyph-name="t" unicode="t" horiz-adv-x="321" 
d="M300 467v-84h-151v-237q0 -31 5 -49t36 -18q33 0 40 22.5t7 54.5v22h79q1 -6 1 -12v-12q0 -83 -27 -121t-103 -38q-69 0 -101 26t-32 110v252h-51v84h51v105h95v-105h151v0z" />
    <glyph glyph-name="u" unicode="u" horiz-adv-x="448" 
d="M401 466v-466h-90l2 76h-4q-19 -50 -50 -66t-76 -16q-69 0 -102 39t-33 120v313h95v-288q0 -50 11.5 -73.5t58.5 -23.5q61 0 77.5 31.5t16.5 94.5v259h94v0z" />
    <glyph glyph-name="v" unicode="v" horiz-adv-x="371" 
d="M375 467l-115 -467h-144l-120 467h98l94 -390l87 390h100v0z" />
    <glyph glyph-name="w" unicode="w" horiz-adv-x="602" 
d="M600 467l-90 -467h-137l-72 375l-71 -375h-138l-90 467h93l67 -391h3l76 391h119l76 -391h3l68 391h93v0z" />
    <glyph glyph-name="x" unicode="x" horiz-adv-x="377" 
d="M368 467l-116 -222l129 -245h-112l-80 171l-79 -171h-114l131 245l-116 222h109l69 -150l69 150h110v0z" />
    <glyph glyph-name="y" unicode="y" horiz-adv-x="366" 
d="M371 467l-106 -496q-16 -78 -43.5 -128t-107.5 -50q-10 0 -19.5 0.5t-19.5 2.5v80q5 -1 10.5 -1.5t10.5 -0.5q35 0 50.5 30t21.5 67q2 7 3 15t2 14h-46l-131 467h98l102 -397l77 397h98v0z" />
    <glyph glyph-name="z" unicode="z" horiz-adv-x="359" 
d="M34 467h308v-93l-215 -291h215v-83h-325v96l212 289h-195v82v0z" />
    <glyph glyph-name="braceleft" unicode="{" horiz-adv-x="425" 
d="M197 244q31 -21 40 -50.5t9 -68.5v-122q0 -55 19 -70.5t62 -15.5v-105q-2 1 -4.5 1t-4.5 -1h-4.5h-4.5q-73 0 -119 20t-46 127v148q0 33 -9.5 58t-39.5 34v96q29 8 39 31.5t10 55.5v158q0 50 19.5 90.5t66.5 44.5q20 2 40 2.5t39 0.5h18v-111h-13t-14 -1q-9 -1 -17 -3.5
t-16 -7.5q-11 -7 -15 -20.5t-5 -27.5q-1 -6 -1 -12v-12v-121q0 -40 -9 -68.5t-40 -49.5v0z" />
    <glyph glyph-name="bar" unicode="|" horiz-adv-x="425" 
d="M161 666h103v-833h-103v833v0z" />
    <glyph glyph-name="braceright" unicode="}" horiz-adv-x="425" 
d="M228 244q-31 22 -40 51t-9 69v121q0 56 -18.5 71.5t-62.5 15.5v105h50q68 0 100.5 -29t32.5 -118v-148q0 -34 9 -58.5t40 -34.5v-95q-28 -9 -38.5 -32t-10.5 -55v-159q0 -50 -18.5 -89.5t-67.5 -44.5q-20 -2 -39.5 -2.5t-39.5 -0.5h-4.5h-4.5q-2 1 -4.5 1h-4.5v109
q44 1 62.5 17t18.5 68v121q0 41 9 68.5t40 48.5v0z" />
    <glyph glyph-name="asciitilde" unicode="~" horiz-adv-x="425" 
d="M60 245l-52 50q17 48 46.5 87.5t78.5 39.5q22 0 43 -10t41 -22t40 -22t40 -10q24 0 39.5 19t26.5 42q1 1 1.5 2.5t1.5 2.5l51 -50q-1 -1 -1.5 -2.5t-0.5 -3.5q-18 -45 -47.5 -82.5t-75.5 -37.5q-23 0 -43.5 10t-40.5 22q-19 11 -38.5 20.5t-40.5 11.5q-23 0 -39 -18.5
t-27 -40.5q0 -2 -1 -4l-2 -4v0z" />
    <glyph glyph-name="exclamdown" unicode="&#xa1;" horiz-adv-x="234" 
d="M68 0l8 444h91l7 -444h-106v0zM73 543v122h95v-122h-95v0z" />
    <glyph glyph-name="cent" unicode="&#xa2;" horiz-adv-x="533" 
d="M295 462v-304q42 7 52 29.5t10 67.5h90q0 -100 -30 -141t-122 -44v-73h-53v73q-107 4 -131 69t-24 180q0 104 28.5 165.5t126.5 64.5v61h53v-61q79 0 113.5 -37.5t34.5 -131.5h-90q0 41 -11 58.5t-47 23.5v0zM242 463q-39 -10 -48.5 -39t-9.5 -73v-55v-21t1 -22
q1 -23 5 -44t12 -32q5 -7 11.5 -10t13.5 -5q4 -1 7.5 -1.5t7.5 -1.5v304v0z" />
    <glyph glyph-name="sterling" unicode="&#xa3;" horiz-adv-x="533" 
d="M366 347v-93h-153v-14.5v-14.5t0.5 -14.5t0.5 -14.5q0 -30 -6.5 -49t-22.5 -35q-3 -3 -6 -5.5t-6 -5.5l339 1v-102h-458v100q33 5 42.5 33t10.5 62v8v8v43h-70v93h70v97q0 139 43 184t156 45t157 -38.5t44 -178.5h-105q0 59 -15.5 84.5t-69.5 25.5h-11q-57 0 -75 -21
t-18 -88v-110h153v0z" />
    <glyph glyph-name="currency" unicode="&#xa4;" horiz-adv-x="598" 
d="M45 108l82 98q-16 30 -25.5 64.5t-9.5 70.5q0 38 10.5 71t26.5 64l-85 99l55 64l85 -100q7 4 13.5 8t12.5 8q22 12 44 19t48 7q27 0 50.5 -9.5t46.5 -24.5q3 -2 6.5 -4t6.5 -4l85 99l54 -63l-83 -98q17 -31 27.5 -65t10.5 -72q0 -37 -10.5 -69.5t-25.5 -64.5l83 -97
l-53 -64l-83 97q-26 -22 -56 -33.5t-63 -11.5q-31 0 -61 13.5t-56 31.5l-82 -97l-54 63v0zM299 479q-48 0 -82.5 -41t-34.5 -97t34.5 -97t82.5 -41t82.5 41t34.5 97t-34.5 97t-82.5 41v0z" />
    <glyph glyph-name="yen" unicode="&#xa5;" horiz-adv-x="533" 
d="M422 477h71v-94h-117l-40 -80h157v-93h-181v-210h-98v210h-174v93h151l-38 80h-113v94h68l-92 190h118l130 -285l132 285h120l-94 -190v0z" />
    <glyph glyph-name="brokenbar" unicode="&#xa6;" horiz-adv-x="425" 
d="M161 153h103v-320h-103v320v0zM161 666h103v-344h-103v344v0z" />
    <glyph glyph-name="section" unicode="&#xa7;" horiz-adv-x="533" 
d="M471 476h-100q0 62 -18.5 78.5t-71.5 16.5h-40q-51 0 -64 -15.5t-13 -51.5q0 -38 11 -50.5t35 -20.5q4 -1 9 -2.5t10 -2.5l143 -40q5 -1 9.5 -2.5t9.5 -2.5q56 -17 77.5 -43.5t21.5 -107.5v-6.5v-6.5q-1 -35 -11.5 -66t-39.5 -46q38 -22 45 -52.5t7 -75.5
q0 -134 -64.5 -159t-159.5 -25q-108 0 -162 30t-54 175h99q0 -45 11 -69.5t53 -29.5q19 -2 37 -2.5t36 -0.5q39 0 69 10.5t30 66.5q0 41 -13 54.5t-42 21.5q-3 1 -5.5 1.5t-5.5 1.5l-187 48q-60 15 -75.5 48.5t-15.5 101.5q0 44 9.5 77t49.5 46q-31 25 -36 58t-5 73
q0 119 61.5 142t142.5 23h11q77 0 136.5 -20.5t59.5 -136.5v-38v0zM192 187l132 -36q4 -1 8.5 -2t8.5 -2t8.5 -1.5t8.5 -0.5q25 0 34 21.5t10 49.5q0 42 -13.5 57t-44.5 24q-2 0 -4 0.5t-4 1.5l-116 34q-9 3 -18 5.5t-18 2.5q-26 0 -36 -23t-10 -52q0 -41 10 -55.5t44 -23.5
v0z" />
    <glyph glyph-name="dieresis" unicode="&#xa8;" horiz-adv-x="425" 
d="M173 618v-79h-75v79h75v0zM327 618v-79h-75v79h75v0z" />
    <glyph glyph-name="copyright" unicode="&#xa9;" horiz-adv-x="659" 
d="M331 679q120 0 205.5 -102t85.5 -244q0 -141 -85.5 -243t-205.5 -102q-122 0 -208.5 101.5t-86.5 243.5q0 143 86.5 244.5t208.5 101.5v0zM330 625q-102 0 -173 -86.5t-71 -205.5q0 -118 71 -205t173 -87t172.5 87t70.5 205q0 119 -70.5 205.5t-172.5 86.5v0zM484 296
q-5 -74 -47.5 -118.5t-105.5 -44.5q-74 0 -118 58t-44 142q0 85 44 145t119 60q53 0 98 -37t49 -104h-48q-9 41 -38 59t-62 18q-50 0 -74.5 -44t-24.5 -97q0 -52 25 -94.5t74 -42.5q41 0 69.5 25.5t33.5 74.5h50v0z" />
    <glyph glyph-name="ordfeminine" unicode="&#xaa;" horiz-adv-x="533" 
d="M125 326h282v-52h-282v52v0zM216 581h-61q0 62 29 74.5t72 12.5q53 0 83.5 -15.5t30.5 -85.5v-184h-61l2 29q-2 -3 -4 -5.5t-4 -5.5q-14 -16 -30 -19t-38 -3q-40 0 -64.5 18t-24.5 67q0 56 24 74.5t66 18.5h11t11 -1q15 -1 28 -6t22 -19l1 36q0 34 -11 44t-40 10
q-22 0 -32 -6.5t-10 -33.5v0zM207 473q0 -32 13.5 -37.5t37.5 -5.5q20 0 35.5 6t15.5 34q0 26 -14.5 32.5t-33.5 6.5q-40 0 -47 -9t-7 -27v0z" />
    <glyph glyph-name="guillemotleft" unicode="&#xab;" horiz-adv-x="400" 
d="M138 483l63 -42l-79 -193l85 -187l-61 -46l-108 233l100 235v0zM292 486l64 -43l-81 -192l86 -188l-61 -45l-108 233l100 235v0z" />
    <glyph glyph-name="logicalnot" unicode="&#xac;" horiz-adv-x="425" 
d="M296 0v179h-268v106h368v-285h-100v0z" />
    <glyph glyph-name="sfthyphen" unicode="&#xad;" horiz-adv-x="500" 
 />
    <glyph glyph-name="registered" unicode="&#xae;" horiz-adv-x="659" 
d="M331 679q120 0 205.5 -102t85.5 -244t-85.5 -243.5t-205.5 -101.5q-122 0 -208.5 101.5t-86.5 243.5q0 143 86.5 244.5t208.5 101.5v0zM330 625q-102 0 -173 -86.5t-71 -205.5q0 -118 71 -205t173 -87t172.5 87t70.5 205q0 119 -70.5 205.5t-172.5 86.5v0zM205 528h139
h5.5h5.5q40 -3 73.5 -26t33.5 -79q0 -34 -15.5 -59t-41.5 -38q35 -15 42.5 -46.5t9.5 -67.5v-3.5v-3.5q1 -17 3 -34t7 -32h-61q-4 12 -6 25.5t-2 27.5q0 2 -0.5 4.5t-0.5 5.5v4v4q0 37 -10 65t-64 28h-56v-164h-62v389v0zM267 481v-134h60q32 0 52.5 15t20.5 55
q0 37 -19.5 50.5t-47.5 13.5h-66v0z" />
    <glyph glyph-name="overstore" unicode="&#xaf;" 
 />
    <glyph glyph-name="glyph113" unicode="&#xb0;" horiz-adv-x="425" 
d="M341 516q0 -62 -38.5 -106t-89.5 -44q-50 0 -89 43.5t-39 102.5q0 64 36.5 110t91.5 46q53 0 90.5 -45t37.5 -107v0zM298 516q0 41 -25 71.5t-60 30.5q-36 0 -60.5 -31.5t-24.5 -72.5q0 -39 25 -69t59 -30q35 0 60.5 30t25.5 71v0z" />
    <glyph glyph-name="plusminus" unicode="&#xb1;" horiz-adv-x="425" 
d="M13 95h398v-59h-398v59v0zM13 388h172v197h53v-197h173v-59h-173v-191h-53v191h-172v59v0z" />
    <glyph glyph-name="twosuperior" unicode="&#xb2;" horiz-adv-x="307" 
d="M286 333v-66h-266v85q0 69 31 89.5t68 26.5q4 1 9 1.5t10 1.5q32 4 55.5 13.5t23.5 46.5q0 49 -12 60.5t-51 11.5q-40 0 -53 -9t-13 -58v-16h-68q0 95 29.5 122t104.5 27q64 0 98 -22t34 -105q0 -86 -33.5 -104.5t-74.5 -23.5h-2.5h-3.5q-18 -3 -36.5 -7t-33.5 -15
q-7 -5 -10 -13.5t-3 -17.5q-1 -4 -1 -7.5v-7.5v-13h198v0z" />
    <glyph glyph-name="threesuperior" unicode="&#xb3;" horiz-adv-x="315" 
d="M130 440v63h39q32 1 42 9t10 45q0 32 -11.5 39.5t-35.5 7.5h-18q-43 0 -52.5 -11.5t-9.5 -58.5h-68q0 85 27.5 110.5t94.5 25.5h8q52 0 93.5 -15t41.5 -91q0 -34 -8.5 -57.5t-37.5 -34.5q31 -8 41 -30.5t10 -57.5q0 -84 -38 -102t-100 -18q-58 0 -98 17.5t-40 99.5v6.5
v6.5t0.5 6.5t0.5 6.5h68v-20q0 -39 13 -47.5t37 -8.5h21q32 0 49 7t17 50q0 36 -12 44t-41 8h-43v0z" />
    <glyph glyph-name="acute" unicode="&#xb4;" horiz-adv-x="425" 
d="M262 660l34 -73l-147 -76l-21 46l134 103v0z" />
    <glyph glyph-name="mu" unicode="&#xb5;" horiz-adv-x="479" 
d="M51 -169v648h95v-259q0 -27 2.5 -53t18.5 -49q13 -19 32 -30.5t41 -11.5q44 0 65.5 37.5t26.5 82.5q1 7 1.5 15t0.5 15v253h95v-479h-95v77q-13 -37 -36 -62t-59 -25q-32 0 -54.5 16.5t-38.5 47.5v-223h-95v0z" />
    <glyph glyph-name="paragraph" unicode="&#xb6;" horiz-adv-x="533" 
d="M524 -200h-80v766h-68v-766h-80v416h-79q-9 1 -18.5 1h-19.5h-8h-8q-33 1 -64.5 8.5t-54.5 34.5q-24 27 -32.5 62.5t-10.5 72.5q-1 11 -1 22.5v22.5q0 125 39.5 176t145.5 51h38h301v-867v0zM296 318v245h-97q-65 0 -82.5 -23t-17.5 -103q0 -82 23.5 -100.5t87.5 -18.5
h86v0z" />
    <glyph glyph-name="middot" unicode="&#xb7;" 
 />
    <glyph glyph-name="cedilla" unicode="&#xb8;" horiz-adv-x="425" 
d="M248 -10l32 -69l-114 -47l-21 47l103 69v0z" />
    <glyph glyph-name="onesuperior" unicode="&#xb9;" horiz-adv-x="238" 
d="M218 667v-400h-69v326l-87 -99l-42 51l113 122h85v0z" />
    <glyph glyph-name="ordmasculine" unicode="&#xba;" horiz-adv-x="533" 
d="M125 326h282v-52h-282v52v0zM152 536q0 82 24 108t91 26q65 0 89.5 -25.5t24.5 -109.5v-22q0 -76 -21 -104.5t-85 -28.5q-82 0 -102.5 32.5t-20.5 123.5v0zM213 529v-22q0 -48 9 -60.5t35 -12.5h10q37 0 45 18.5t8 53.5v38q0 35 -7.5 53t-39.5 18h-13h-6t-6 -1
q-6 0 -11.5 -2t-9.5 -6q-6 -7 -9 -18t-4 -24q-1 -7 -1 -14.5v-13.5v-7v0z" />
    <glyph glyph-name="guillemotright" unicode="&#xbb;" horiz-adv-x="400" 
d="M262 483l99 -235l-108 -233l-61 46l86 187l-81 193l65 42v0zM107 486l100 -235l-108 -233l-61 45l86 188l-81 192l64 43v0z" />
    <glyph glyph-name="onequarter" unicode="&#xbc;" horiz-adv-x="1000" 
d="M664 667l-360 -667h-66l359 667h67v0zM940 400v-252h41v-63h-41v-85h-68v85h-188v86l154 229h102v0zM872 148v187l-127 -187h127v0zM218 667v-400h-69v325l-87 -98l-42 51l113 122h85v0z" />
    <glyph glyph-name="onehalf" unicode="&#xbd;" horiz-adv-x="971" 
d="M664 667l-360 -667h-66l359 667h67v0zM950 66v-66h-266v85q0 70 28 89t76 28q3 0 5.5 0.5t5.5 1.5q6 1 11.5 2t11.5 2q25 4 42 13.5t17 47.5v6q0 45 -14 53t-49 8q-39 0 -52.5 -9t-13.5 -58v-16h-68q0 100 31 124.5t103 24.5q65 0 98.5 -22t33.5 -105q0 -86 -32.5 -104.5
t-73.5 -23.5q-3 0 -6 -0.5t-7 -0.5q-17 -2 -33.5 -6.5t-31.5 -14.5q-6 -5 -9 -13.5t-3 -17.5q-1 -4 -1 -7.5v-7.5v-13h197v0zM218 667v-400h-69v325l-87 -98l-42 51l113 122h85v0z" />
    <glyph glyph-name="threequarters" unicode="&#xbe;" horiz-adv-x="1078" 
d="M742 667l-359 -667h-68l359 667h68v0zM1018 400v-252h40v-63h-40v-85h-69v85h-187v86l154 229h102v0zM949 148l1 187l-126 -187h125v0zM130 440v63h39q32 1 42 9t10 45q0 32 -11.5 39.5t-35.5 7.5h-18q-43 0 -52.5 -11.5t-9.5 -58.5h-68q0 85 27.5 110.5t94.5 25.5h8
q52 0 93.5 -15t41.5 -91q0 -34 -8.5 -57.5t-37.5 -34.5q31 -8 41 -30.5t10 -57.5q0 -84 -38 -102t-100 -18q-58 0 -98 17.5t-40 99.5v6.5v6.5t0.5 6.5t0.5 6.5h68v-20q0 -39 13 -47.5t37 -8.5h21q32 0 49 7t17 50q0 36 -12 44t-41 8h-43v0z" />
    <glyph glyph-name="questiondown" unicode="&#xbf;" horiz-adv-x="450" 
d="M198 458h97q0 -62 -7 -92t-41 -54q-7 -5 -15.5 -10t-18.5 -10q-11 -5 -20 -9.5l-17 -8.5q-22 -12 -33 -29.5t-11 -61.5q0 -54 16.5 -72t61.5 -18q50 0 77 11t27 78v6v7q0 3 -0.5 6t-0.5 6h95q-1 -11 -1.5 -22t-0.5 -23v-4.5v-4.5q-1 -30 -6 -58.5t-26 -50.5
q-18 -18 -41.5 -27.5t-47.5 -13.5q-15 -2 -29 -2.5t-27 -0.5q-88 0 -139.5 27t-51.5 146v16v16q1 29 6.5 56.5t22.5 49.5q10 14 21.5 23t23.5 15q6 4 12.5 6.5t13.5 5.5q24 11 42 28.5t18 68.5v0zM201 549v122h94v-122h-94v0z" />
    <glyph glyph-name="Agrave" unicode="&#xc0;" horiz-adv-x="536" 
d="M391 128h-246l-34 -128h-114l189 667h160l192 -667h-110l-37 128v0zM366 223l-98 346l-97 -346h195v0zM218 851l134 -103l-21 -46l-147 76l34 73v0z" />
    <glyph glyph-name="Aacute" unicode="&#xc1;" horiz-adv-x="536" 
d="M391 128h-246l-34 -128h-114l189 667h160l192 -667h-110l-37 128v0zM366 223l-98 346l-97 -346h195v0zM318 851l34 -73l-147 -76l-21 46l134 103v0z" />
    <glyph glyph-name="Acircumflex" unicode="&#xc2;" horiz-adv-x="536" 
d="M391 128h-246l-34 -128h-114l189 667h160l192 -667h-110l-37 128v0zM366 223l-98 346l-97 -346h195v0zM268 842l134 -96l-19 -44l-115 56l-117 -56l-18 44l135 96v0z" />
    <glyph glyph-name="Atilde" unicode="&#xc3;" horiz-adv-x="536" 
d="M391 128h-246l-34 -128h-114l189 667h160l192 -667h-110l-37 128v0zM366 223l-98 346l-97 -346h195v0zM367 823l47 -31q-14 -30 -35 -53.5t-53 -23.5q-17 0 -31.5 7.5t-28.5 17.5q-2 1 -4.5 2.5t-4.5 3.5q-12 7 -23.5 12.5t-24.5 5.5t-21.5 -10.5t-14.5 -22.5
q-1 -1 -1.5 -2.5t-1.5 -2.5l-48 31q0 1 0.5 1.5l1.5 1.5q13 26 32 48.5t47 24.5q17 0 32 -8t29 -17t29 -17t32 -8q14 0 23.5 11t16.5 24q0 1 0.5 2.5t1.5 2.5v0z" />
    <glyph glyph-name="Adieresis" unicode="&#xc4;" horiz-adv-x="536" 
d="M391 128h-246l-34 -128h-114l189 667h160l192 -667h-110l-37 128v0zM366 223l-98 346l-97 -346h195v0zM228 817v-79h-75v79h75v0zM383 817v-79h-75v79h75v0z" />
    <glyph glyph-name="Aring" unicode="&#xc5;" horiz-adv-x="536" 
d="M391 128h-246l-34 -128h-114l189 667h160l192 -667h-110l-37 128v0zM366 223l-98 346l-97 -346h195v0zM269 702q-29 0 -49.5 24t-20.5 58q0 33 20.5 57t49.5 24q28 0 48 -24t20 -57q0 -34 -20 -58t-48 -24v0zM269 742q14 0 24 12.5t10 29.5t-10 29t-24 12
q-15 0 -25.5 -12t-10.5 -29t10.5 -29.5t25.5 -12.5v0z" />
    <glyph glyph-name="AE" unicode="&#xc6;" horiz-adv-x="800" 
d="M493 558v-173h260v-93h-260v-188h277v-104h-383v128h-228l-53 -128h-119l267 667h516v-109h-277v0zM387 223v335h-59l-135 -335h194v0z" />
    <glyph glyph-name="Ccedilla" unicode="&#xc7;" horiz-adv-x="526" 
d="M277 -10l32 -69l-114 -47l-21 47l103 69v0zM402 239h106q0 -7 0.5 -14t0.5 -13q0 -7 0.5 -14t0.5 -14q0 -116 -55.5 -151.5t-144.5 -35.5l-80 -1q-119 1 -157 70.5t-38 197.5q0 12 -0.5 24.5t-0.5 24.5q-1 24 -1.5 49t-0.5 49q0 168 64 214t192 46h33h13.5h12.5
q38 -2 74 -14.5t58 -51.5q15 -26 19.5 -56.5t5.5 -60.5q0 -5 0.5 -9t0.5 -8q0 -7 0.5 -14t0.5 -14h-108q-2 8 -2.5 16.5t-0.5 16.5v2v2q-1 28 -9.5 52t-52.5 27q-12 2 -24 2h-24h-19h-16.5t-16.5 -1q-19 -2 -36.5 -7.5t-27.5 -17.5q-11 -13 -15 -31t-6 -36q0 -7 -0.5 -13
t-0.5 -12q0 -8 -0.5 -15.5t-0.5 -15.5q-1 -8 -1 -15.5v-15.5q0 -32 0.5 -64.5t1.5 -64.5q1 -100 29.5 -123.5t109.5 -23.5q48 0 82.5 11.5t34.5 80.5v10.5v10.5q-1 5 -1 10.5v10.5v0z" />
    <glyph glyph-name="Egrave" unicode="&#xc8;" horiz-adv-x="468" 
d="M144 561v-174h266v-93h-266v-189h282v-105h-388v667h385v-106h-279v0zM184 851l133 -103l-21 -46l-146 76l34 73v0z" />
    <glyph glyph-name="Eacute" unicode="&#xc9;" horiz-adv-x="468" 
d="M144 561v-174h266v-93h-266v-189h282v-105h-388v667h385v-106h-279v0zM283 851l34 -73l-147 -76l-20 46l133 103v0z" />
    <glyph glyph-name="Ecircumflex" unicode="&#xca;" horiz-adv-x="468" 
d="M144 561v-174h266v-93h-266v-189h282v-105h-388v667h385v-106h-279v0zM234 842l134 -96l-19 -44l-115 56l-117 -56l-18 44l135 96v0z" />
    <glyph glyph-name="Edieresis" unicode="&#xcb;" horiz-adv-x="468" 
d="M144 561v-174h266v-93h-266v-189h282v-105h-388v667h385v-106h-279v0zM194 817v-79h-75v79h75v0zM349 817v-79h-75v79h75v0z" />
    <glyph glyph-name="Igrave" unicode="&#xcc;" horiz-adv-x="208" 
d="M158 667v-667h-109v667h109v0zM54 851l134 -103l-21 -46l-147 76l34 73v0z" />
    <glyph glyph-name="Iacute" unicode="&#xcd;" horiz-adv-x="208" 
d="M158 667v-667h-109v667h109v0zM154 851l34 -73l-147 -76l-21 46l134 103v0z" />
    <glyph glyph-name="Icircumflex" unicode="&#xce;" horiz-adv-x="208" 
d="M158 667v-667h-109v667h109v0zM104 842l134 -96l-19 -44l-115 56l-117 -56l-18 44l135 96v0z" />
    <glyph glyph-name="Idieresis" unicode="&#xcf;" horiz-adv-x="208" 
d="M158 667v-667h-109v667h109v0zM64 817v-79h-75v79h75v0zM218 817v-79h-74v79h74v0z" />
    <glyph glyph-name="Eth" unicode="&#xd0;" horiz-adv-x="581" 
d="M52 667h224q131 0 201.5 -90.5t70.5 -241.5q0 -155 -70.5 -245t-204.5 -90h-221v296h-57v95h57v276v0zM156 391h80v-95h-80v-194h106q93 0 137 65.5t44 168.5q0 104 -48 166.5t-138 62.5h-101v-174v0z" />
    <glyph glyph-name="Ntilde" unicode="&#xd1;" horiz-adv-x="625" 
d="M575 667v-667h-181l-239 558h-4l4 -558h-106v667h180l239 -558h4l-4 558h107v0zM411 823l47 -31q-14 -30 -35 -53.5t-52 -23.5q-17 0 -31.5 7.5t-28.5 17.5q-3 1 -5.5 2.5t-5.5 3.5q-11 7 -22.5 12.5t-24.5 5.5t-21.5 -10.5t-14.5 -22.5q-1 -1 -1.5 -2.5t-1.5 -2.5
l-48 31q0 1 0.5 1.5l1.5 1.5q13 26 32 48.5t47 24.5q17 0 32 -8t29 -17t29 -17t32 -8q14 0 23.5 11t16.5 24q0 1 0.5 2.5t1.5 2.5v0z" />
    <glyph glyph-name="Ograve" unicode="&#xd2;" 
 />
    <glyph glyph-name="Oacute" unicode="&#xd3;" horiz-adv-x="541" 
d="M33 325q0 167 32 257t195 90q99 0 174.5 -30.5t82.5 -172.5q2 -22 2 -44v-45v-45q0 -185 -34 -262.5t-217 -77.5q-128 0 -182 51t-54 211v18t1 18v16.5v15.5v0zM144 328v-29.5v-29.5t0.5 -29.5t0.5 -29.5q5 -75 34.5 -91t86.5 -16q75 0 107.5 22.5t34.5 115.5
q2 41 2 81.5v80.5q0 93 -19.5 127t-99.5 34q-110 0 -128.5 -36.5t-18.5 -139.5v-28.5v-31.5v0zM326 851l34 -73l-147 -76l-20 46l133 103v0z" />
    <glyph glyph-name="Ocircumflex" unicode="&#xd4;" horiz-adv-x="541" 
d="M33 325q0 167 32 257t195 90q99 0 174.5 -30.5t82.5 -172.5q2 -22 2 -44v-45v-45q0 -185 -34 -262.5t-217 -77.5q-128 0 -182 51t-54 211v18t1 18v16.5v15.5v0zM144 328v-29.5v-29.5t0.5 -29.5t0.5 -29.5q5 -75 34.5 -91t86.5 -16q75 0 107.5 22.5t34.5 115.5
q2 41 2 81.5v80.5q0 93 -19.5 127t-99.5 34q-110 0 -128.5 -36.5t-18.5 -139.5v-28.5v-31.5v0zM276 842l135 -96l-19 -44l-116 56l-116 -56l-18 44l134 96v0z" />
    <glyph glyph-name="Otilde" unicode="&#xd5;" horiz-adv-x="541" 
d="M33 325q0 167 32 257t195 90q99 0 174.5 -30.5t82.5 -172.5q2 -22 2 -44v-45v-45q0 -185 -34 -262.5t-217 -77.5q-128 0 -182 51t-54 211v18t1 18v16.5v15.5v0zM144 328v-29.5v-29.5t0.5 -29.5t0.5 -29.5q5 -75 34.5 -91t86.5 -16q75 0 107.5 22.5t34.5 115.5
q2 41 2 81.5v80.5q0 93 -19.5 127t-99.5 34q-110 0 -128.5 -36.5t-18.5 -139.5v-28.5v-31.5v0zM376 822l46 -31q-13 -30 -34 -53.5t-53 -23.5q-17 0 -31.5 7.5t-28.5 17.5q-4 2 -7 4t-7 4q-10 7 -21 11.5t-22 4.5q-14 0 -22.5 -10.5t-14.5 -22.5q0 -1 -0.5 -2.5t-1.5 -2.5
l-49 31q0 1 0.5 1.5l1.5 1.5q14 26 33 48.5t47 24.5q17 0 31.5 -8t29.5 -17q14 -9 28.5 -17t31.5 -8q14 0 23.5 11t16.5 24q1 1 1.5 2.5t1.5 2.5v0z" />
    <glyph glyph-name="Odieresis" unicode="&#xd6;" horiz-adv-x="541" 
d="M33 325q0 167 32 257t195 90q99 0 174.5 -30.5t82.5 -172.5q2 -22 2 -44v-45v-45q0 -185 -34 -262.5t-217 -77.5q-128 0 -182 51t-54 211v18t1 18v16.5v15.5v0zM144 328v-29.5v-29.5t0.5 -29.5t0.5 -29.5q5 -75 34.5 -91t86.5 -16q75 0 107.5 22.5t34.5 115.5
q2 41 2 81.5v80.5q0 93 -19.5 127t-99.5 34q-110 0 -128.5 -36.5t-18.5 -139.5v-28.5v-31.5v0zM236 816v-79h-74v79h74v0zM391 816v-79h-75v79h75v0z" />
    <glyph glyph-name="multiply" unicode="&#xd7;" horiz-adv-x="425" 
d="M82 546l130 -153l130 155l37 -44l-132 -153l131 -153l-35 -42l-130 154l-131 -155l-37 43l132 154l-130 152l35 42v0z" />
    <glyph glyph-name="Oslash" unicode="&#xd8;" horiz-adv-x="570" 
d="M570 688v-101l-46 -46q7 -23 10.5 -51t3.5 -57q1 -8 1 -16.5v-16.5v-20v-19q-1 -10 -1 -19v-17q0 -172 -35.5 -250.5t-205.5 -78.5l-36 -1q-10 1 -20.5 1t-21.5 1q-39 2 -76.5 14t-64.5 47l-78 -81v97l47 49q-6 16 -8 31.5t-3 31.5q-1 20 -2 39.5t-1 39.5q-1 20 -1 39.5
v39.5q0 185 43.5 255.5t206.5 70.5h38q48 0 91.5 -9.5t80.5 -53.5l78 81v0zM160 143q11 -22 29.5 -29t39.5 -9q5 0 9.5 -0.5t9.5 -0.5q3 0 5.5 -0.5t4.5 -0.5q7 0 14.5 -0.5t14.5 -0.5q102 0 120.5 40.5t19.5 127.5q0 9 0.5 19t0.5 20v54v18v19q0 9 -0.5 18t-1.5 18
l-266 -293v0zM411 522q-16 28 -41.5 34t-52.5 6h-16t-16 1h-17h-16q-63 0 -86 -34t-23 -108v-35.5v-35.5t-0.5 -35.5t-0.5 -35.5q0 -7 0.5 -13.5t0.5 -12.5v-13.5v-13.5l268 296v0z" />
    <glyph glyph-name="Ugrave" unicode="&#xd9;" horiz-adv-x="570" 
d="M414 666h107v-444q0 -107 -32.5 -163.5t-134.5 -60.5q-16 -1 -31.5 -1.5t-30.5 -0.5q-113 0 -177 31t-64 188v451h109v-451q0 -72 26 -92t82 -20h37q54 0 81.5 16.5t27.5 84.5v16v446v0zM236 850l134 -103l-21 -46l-147 76l34 73v0z" />
    <glyph glyph-name="Uacute" unicode="&#xda;" horiz-adv-x="570" 
d="M414 666h107v-444q0 -107 -32.5 -163.5t-134.5 -60.5q-16 -1 -31.5 -1.5t-30.5 -0.5q-113 0 -177 31t-64 188v451h109v-451q0 -72 26 -92t82 -20h37q54 0 81.5 16.5t27.5 84.5v16v446v0zM336 850l34 -73l-147 -76l-21 46l134 103v0z" />
    <glyph glyph-name="Ucircumflex" unicode="&#xdb;" horiz-adv-x="570" 
d="M414 666h107v-444q0 -107 -32.5 -163.5t-134.5 -60.5q-16 -1 -31.5 -1.5t-30.5 -0.5q-113 0 -177 31t-64 188v451h109v-451q0 -72 26 -92t82 -20h37q54 0 81.5 16.5t27.5 84.5v16v446v0zM286 842l135 -96l-19 -44l-116 56l-116 -56l-18 44l134 96v0z" />
    <glyph glyph-name="Udieresis" unicode="&#xdc;" horiz-adv-x="570" 
d="M414 666h107v-444q0 -107 -32.5 -163.5t-134.5 -60.5q-16 -1 -31.5 -1.5t-30.5 -0.5q-113 0 -177 31t-64 188v451h109v-451q0 -72 26 -92t82 -20h37q54 0 81.5 16.5t27.5 84.5v16v446v0zM246 816v-79h-75v79h75v0zM400 816v-79h-74v79h74v0z" />
    <glyph glyph-name="Yacute" unicode="&#xdd;" 
 />
    <glyph glyph-name="Thorn" unicode="&#xde;" horiz-adv-x="502" 
d="M53 667h103v-80h129q82 0 140.5 -54.5t58.5 -156.5q0 -100 -55.5 -154t-135.5 -54h-137v-168h-103v667v0zM156 487v-224h110q45 0 80 27t35 86q0 63 -32 87t-80 24h-113v0z" />
    <glyph glyph-name="germandbls" unicode="&#xdf;" horiz-adv-x="458" 
d="M150 0h-95v466q0 122 34.5 163.5t136.5 41.5q67 0 121.5 -22t54.5 -120q0 -25 -8 -48.5t-25 -39.5q-10 -9 -20 -13.5t-21 -7.5q-4 -1 -8.5 -2.5t-8.5 -3.5q74 -13 95.5 -65t21.5 -132q0 -92 -27 -158t-121 -66q-22 0 -43.5 5t-41.5 14v91q3 -2 5.5 -3.5t4.5 -3.5
q13 -8 26.5 -13t29.5 -5q41 0 54.5 33.5t15.5 73.5q1 9 1 17.5v16.5v8v8q0 54 -14 99t-73 45h-16.5t-16.5 -2v70h4.5t4.5 -1q37 0 63 14.5t26 64.5q0 44 -25.5 57t-57.5 13q-57 0 -67 -27.5t-10 -83.5v-484v0z" />
    <glyph glyph-name="agrave" unicode="&#xe0;" horiz-adv-x="445" 
d="M145 330h-96q0 100 48 120t118 20q82 0 133.5 -26t51.5 -140v-304h-93l2 58q-22 -46 -55 -55t-75 -9q-63 0 -103.5 27t-40.5 112q0 90 39.5 120t108.5 30q9 0 19.5 -0.5t20.5 -1.5q14 -1 26.5 -4t23.5 -8q9 -5 15.5 -13.5t11.5 -17.5q1 -1 1.5 -2.5t1.5 -2.5l1 71
q0 58 -18 76t-67 18h-13.5t-15.5 -1q-12 -2 -23 -7.5t-17 -17.5q-2 -6 -3.5 -13.5t-1.5 -14.5v-6.5v-7.5v0zM130 146q0 -52 20 -63.5t59 -11.5h8.5h9.5q29 2 53.5 14.5t24.5 55.5v8.5t-1 8.5q0 9 -3 18t-9 15q-9 8 -20.5 12t-24.5 6q-9 1 -18 1h-17h-13t-13 -1
q-12 -1 -23 -4.5t-19 -11.5q-7 -7 -10 -16.5t-4 -20.5v-4.5v-5.5v0zM175 661l134 -103l-22 -46l-146 76l34 73v0z" />
    <glyph glyph-name="aacute" unicode="&#xe1;" horiz-adv-x="445" 
d="M145 330h-96q0 100 48 120t118 20q82 0 133.5 -26t51.5 -140v-304h-93l2 58q-22 -46 -55 -55t-75 -9q-63 0 -103.5 27t-40.5 112q0 90 39.5 120t108.5 30q9 0 19.5 -0.5t20.5 -1.5q14 -1 26.5 -4t23.5 -8q9 -5 15.5 -13.5t11.5 -17.5q1 -1 1.5 -2.5t1.5 -2.5l1 71
q0 58 -18 76t-67 18h-13.5t-15.5 -1q-12 -2 -23 -7.5t-17 -17.5q-2 -6 -3.5 -13.5t-1.5 -14.5v-6.5v-7.5v0zM130 146q0 -52 20 -63.5t59 -11.5h8.5h9.5q29 2 53.5 14.5t24.5 55.5v8.5t-1 8.5q0 9 -3 18t-9 15q-9 8 -20.5 12t-24.5 6q-9 1 -18 1h-17h-13t-13 -1
q-12 -1 -23 -4.5t-19 -11.5q-7 -7 -10 -16.5t-4 -20.5v-4.5v-5.5v0zM275 661l34 -73l-147 -76l-21 46l134 103v0z" />
    <glyph glyph-name="acircumflex" unicode="&#xe2;" horiz-adv-x="445" 
d="M145 330h-96q0 100 48 120t118 20q82 0 133.5 -26t51.5 -140v-304h-93l2 58q-22 -46 -55 -55t-75 -9q-63 0 -103.5 27t-40.5 112q0 90 39.5 120t108.5 30q9 0 19.5 -0.5t20.5 -1.5q14 -1 26.5 -4t23.5 -8q9 -5 15.5 -13.5t11.5 -17.5q1 -1 1.5 -2.5t1.5 -2.5l1 71
q0 58 -18 76t-67 18h-13.5t-15.5 -1q-12 -2 -23 -7.5t-17 -17.5q-2 -6 -3.5 -13.5t-1.5 -14.5v-6.5v-7.5v0zM130 146q0 -52 20 -63.5t59 -11.5h8.5h9.5q29 2 53.5 14.5t24.5 55.5v8.5t-1 8.5q0 9 -3 18t-9 15q-9 8 -20.5 12t-24.5 6q-9 1 -18 1h-17h-13t-13 -1
q-12 -1 -23 -4.5t-19 -11.5q-7 -7 -10 -16.5t-4 -20.5v-4.5v-5.5v0zM224 659l135 -96l-19 -44l-116 56l-116 -56l-18 44l134 96v0z" />
    <glyph glyph-name="atilde" unicode="&#xe3;" horiz-adv-x="445" 
d="M145 330h-96q0 100 48 120t118 20q82 0 133.5 -26t51.5 -140v-304h-93l2 58q-22 -46 -55 -55t-75 -9q-63 0 -103.5 27t-40.5 112q0 90 39.5 120t108.5 30q9 0 19.5 -0.5t20.5 -1.5q14 -1 26.5 -4t23.5 -8q9 -5 15.5 -13.5t11.5 -17.5q1 -1 1.5 -2.5t1.5 -2.5l1 71
q0 58 -18 76t-67 18h-13.5t-15.5 -1q-12 -2 -23 -7.5t-17 -17.5q-2 -6 -3.5 -13.5t-1.5 -14.5v-6.5v-7.5v0zM130 146q0 -52 20 -63.5t59 -11.5h8.5h9.5q29 2 53.5 14.5t24.5 55.5v8.5t-1 8.5q0 9 -3 18t-9 15q-9 8 -20.5 12t-24.5 6q-9 1 -18 1h-17h-13t-13 -1
q-12 -1 -23 -4.5t-19 -11.5q-7 -7 -10 -16.5t-4 -20.5v-4.5v-5.5v0zM324 626l47 -31q-14 -30 -35 -53.5t-53 -23.5q-17 0 -31.5 7.5t-28.5 17.5q-2 1 -4.5 2.5t-4.5 3.5q-12 7 -23.5 12.5t-24.5 5.5q-14 0 -22.5 -10.5t-14.5 -22.5q0 -1 -0.5 -2.5t-1.5 -2.5l-49 31
q0 1 0.5 1.5l1.5 1.5q14 26 33 48.5t47 24.5q17 0 31.5 -8t29.5 -17q14 -9 28.5 -17t31.5 -8q14 0 24 11t17 24q0 1 0.5 2.5t1.5 2.5v0z" />
    <glyph glyph-name="adieresis" unicode="&#xe4;" horiz-adv-x="445" 
d="M145 330h-96q0 100 48 120t118 20q82 0 133.5 -26t51.5 -140v-304h-93l2 58q-22 -46 -55 -55t-75 -9q-63 0 -103.5 27t-40.5 112q0 90 39.5 120t108.5 30q9 0 19.5 -0.5t20.5 -1.5q14 -1 26.5 -4t23.5 -8q9 -5 15.5 -13.5t11.5 -17.5q1 -1 1.5 -2.5t1.5 -2.5l1 71
q0 58 -18 76t-67 18h-13.5t-15.5 -1q-12 -2 -23 -7.5t-17 -17.5q-2 -6 -3.5 -13.5t-1.5 -14.5v-6.5v-7.5v0zM130 146q0 -52 20 -63.5t59 -11.5h8.5h9.5q29 2 53.5 14.5t24.5 55.5v8.5t-1 8.5q0 9 -3 18t-9 15q-9 8 -20.5 12t-24.5 6q-9 1 -18 1h-17h-13t-13 -1
q-12 -1 -23 -4.5t-19 -11.5q-7 -7 -10 -16.5t-4 -20.5v-4.5v-5.5v0zM184 618v-79h-74v79h74v0zM339 618v-79h-75v79h75v0z" />
    <glyph glyph-name="aring" unicode="&#xe5;" horiz-adv-x="445" 
d="M145 330h-96q0 100 48 120t118 20q82 0 133.5 -26t51.5 -140v-304h-93l2 58q-22 -46 -55 -55t-75 -9q-63 0 -103.5 27t-40.5 112q0 90 39.5 120t108.5 30q9 0 19.5 -0.5t20.5 -1.5q14 -1 26.5 -4t23.5 -8q9 -5 15.5 -13.5t11.5 -17.5q1 -1 1.5 -2.5t1.5 -2.5l1 71
q0 58 -18 76t-67 18h-13.5t-15.5 -1q-12 -2 -23 -7.5t-17 -17.5q-2 -6 -3.5 -13.5t-1.5 -14.5v-6.5v-7.5v0zM130 146q0 -52 20 -63.5t59 -11.5h8.5h9.5q29 2 53.5 14.5t24.5 55.5v8.5t-1 8.5q0 9 -3 18t-9 15q-9 8 -20.5 12t-24.5 6q-9 1 -18 1h-17h-13t-13 -1
q-12 -1 -23 -4.5t-19 -11.5q-7 -7 -10 -16.5t-4 -20.5v-4.5v-5.5v0zM225 502q-28 0 -48.5 24t-20.5 58q0 33 20.5 57t48.5 24q29 0 49 -24t20 -57q0 -34 -20 -58t-49 -24v0zM225 542q14 0 24.5 12.5t10.5 29.5t-10.5 29t-24.5 12t-24.5 -12t-10.5 -29t10.5 -29.5t24.5 -12.5
v0z" />
    <glyph glyph-name="ae" unicode="&#xe6;" horiz-adv-x="695" 
d="M661 218h-266v-22q2 -71 16 -95t77 -24q39 0 60.5 11.5t21.5 61.5h92q0 -100 -45 -127t-123 -27h-11h-11q-40 1 -76.5 13t-55.5 60q-21 -52 -60 -63t-84 -11q-73 0 -118 24t-45 122q0 92 46.5 117t112.5 25h3.5h2.5q30 0 58 -7.5t44 -41.5h3v77q0 59 -19 74t-68 15
q-35 0 -53 -10.5t-19 -55.5h-96q2 97 43 118t111 21h22t23 -1q19 -1 38.5 -5.5t37.5 -14.5q11 -6 18 -17t12 -23q15 34 43 46.5t59 14.5q8 1 16.5 1h16.5q122 0 147.5 -65t25.5 -191v0zM128 147q0 -53 23.5 -63.5t62.5 -10.5q35 0 62.5 10t27.5 60q0 40 -22.5 51.5
t-48.5 13.5h-11h-10h-6.5h-7.5q-26 -1 -48 -11.5t-22 -49.5v0zM571 289v14t-1 14q0 13 -2.5 25.5t-8.5 22.5q-7 14 -20 20t-28 7q-7 1 -13.5 1h-12.5q-60 0 -75 -25t-15 -79h176v0z" />
    <glyph glyph-name="ccedilla" unicode="&#xe7;" horiz-adv-x="425" 
d="M224 -11l33 -56l-99 -46l-20 41l86 61v0zM305 178h93q0 -107 -34.5 -144.5t-127.5 -37.5q-109 0 -154 41.5t-45 177.5q0 128 29.5 192.5t150.5 64.5q74 0 125.5 -24.5t51.5 -127.5v-4v-4v-5v-4h-91q0 56 -18 70t-65 14q-64 0 -75 -35t-11 -104v-9.5v-11.5q-1 -6 -1 -12
v-13q0 -64 14 -93t75 -29q53 0 68 20t15 78v0z" />
    <glyph glyph-name="egrave" unicode="&#xe8;" horiz-adv-x="430" 
d="M303 149h93q1 -4 1 -8.5v-9.5q0 -95 -54 -115.5t-120 -20.5q-127 0 -159 55.5t-32 192.5q0 123 34 176.5t146 53.5q111 0 148 -47t37 -178l-1 -34h-269q0 -74 13 -106.5t84 -32.5q30 0 54.5 11t24.5 54v9v0zM304 283q0 67 -15.5 88t-73.5 21q-49 0 -67 -17t-20 -77v-7.5
v-7.5h176v0zM165 661l133 -103l-21 -46l-146 76l34 73v0z" />
    <glyph glyph-name="eacute" unicode="&#xe9;" horiz-adv-x="430" 
d="M303 149h93q1 -4 1 -8.5v-9.5q0 -95 -54 -115.5t-120 -20.5q-127 0 -159 55.5t-32 192.5q0 123 34 176.5t146 53.5q111 0 148 -47t37 -178l-1 -34h-269q0 -74 13 -106.5t84 -32.5q30 0 54.5 11t24.5 54v9v0zM304 283q0 67 -15.5 88t-73.5 21q-49 0 -67 -17t-20 -77v-7.5
v-7.5h176v0zM264 661l34 -73l-147 -76l-20 46l133 103v0z" />
    <glyph glyph-name="ecircumflex" unicode="&#xea;" horiz-adv-x="430" 
d="M303 149h93q1 -4 1 -8.5v-9.5q0 -95 -54 -115.5t-120 -20.5q-127 0 -159 55.5t-32 192.5q0 123 34 176.5t146 53.5q111 0 148 -47t37 -178l-1 -34h-269q0 -74 13 -106.5t84 -32.5q30 0 54.5 11t24.5 54v9v0zM304 283q0 67 -15.5 88t-73.5 21q-49 0 -67 -17t-20 -77v-7.5
v-7.5h176v0zM215 659l134 -96l-18 -44l-116 56l-116 -56l-18 44l134 96v0z" />
    <glyph glyph-name="edieresis" unicode="&#xeb;" horiz-adv-x="430" 
d="M303 149h93q1 -4 1 -8.5v-9.5q0 -95 -54 -115.5t-120 -20.5q-127 0 -159 55.5t-32 192.5q0 123 34 176.5t146 53.5q111 0 148 -47t37 -178l-1 -34h-269q0 -74 13 -106.5t84 -32.5q30 0 54.5 11t24.5 54v9v0zM304 283q0 67 -15.5 88t-73.5 21q-49 0 -67 -17t-20 -77v-7.5
v-7.5h176v0zM174 618v-79h-75v79h75v0zM329 618v-79h-75v79h75v0z" />
    <glyph glyph-name="igrave" unicode="&#xec;" horiz-adv-x="179" 
d="M136 467v-467h-94v467h94v0zM40 661l133 -103l-21 -46l-146 76l34 73v0z" />
    <glyph glyph-name="iacute" unicode="&#xed;" horiz-adv-x="179" 
d="M136 467v-467h-94v467h94v0zM139 661l34 -73l-147 -76l-20 46l133 103v0z" />
    <glyph glyph-name="icircumflex" unicode="&#xee;" horiz-adv-x="179" 
d="M136 467v-467h-94v467h94v0zM89 659l135 -96l-19 -44l-116 56l-116 -56l-18 44l134 96v0z" />
    <glyph glyph-name="idieresis" unicode="&#xef;" horiz-adv-x="179" 
d="M136 467v-467h-94v467h94v0zM49 618v-79h-75v79h75v0zM204 618v-79h-75v79h75v0z" />
    <glyph glyph-name="eth" unicode="&#xf0;" horiz-adv-x="462" 
d="M71 637l15 41q7 -3 14.5 -5.5t14.5 -4.5l6 -2l6 -2q19 -6 38 -13t37 -17l90 72l21 -37l-70 -56q94 -66 143.5 -150.5t49.5 -218.5q0 -106 -56.5 -182t-150.5 -76t-148 74t-54 180q0 6 0.5 12.5t0.5 13.5q7 78 52 143t117 65q8 0 19 -1.5t22 -4.5q14 -3 26.5 -8t20.5 -11
q-19 37 -41.5 67.5t-52.5 56.5l-86 -71l-21 38l72 57q-20 13 -41.5 23t-43.5 17v0zM241 415q-64 0 -91.5 -54.5t-27.5 -122.5q0 -8 0.5 -16t0.5 -16q5 -53 30 -97.5t77 -44.5q56 0 80.5 47t29.5 103q0 8 0.5 16t0.5 16q0 10 -0.5 20.5t-1.5 21.5q-6 47 -28 87t-70 40v0z" />
    <glyph glyph-name="ntilde" unicode="&#xf1;" horiz-adv-x="451" 
d="M47 467h90l1 -72q23 44 52 61.5t73 17.5q72 0 106.5 -33.5t34.5 -121.5v-319h-95v288q0 53 -12.5 75.5t-61.5 22.5q-44 0 -69 -26t-25 -80v-280h-94v467v0zM325 626l46 -31q-13 -30 -34 -53.5t-53 -23.5q-17 0 -31.5 7.5t-28.5 17.5q-4 2 -7 4t-7 4q-10 7 -21 11.5
t-22 4.5q-14 0 -22.5 -10.5t-14.5 -22.5q0 -1 -0.5 -2.5t-1.5 -2.5l-49 31q0 1 0.5 1.5l1.5 1.5q14 26 33 48.5t47 24.5q17 0 31.5 -8t29.5 -17q14 -9 28.5 -17t31.5 -8q14 0 23.5 11t16.5 24q1 1 1.5 2.5t1.5 2.5v0z" />
    <glyph glyph-name="ograve" unicode="&#xf2;" horiz-adv-x="439" 
d="M38 253q0 126 37 173t144 47q113 0 153 -43t40 -180q0 -124 -24.5 -189.5t-150.5 -65.5q-106 0 -152.5 39.5t-46.5 173.5v45v0zM135 241v-32q0 -58 10 -94.5t71 -36.5h11h13t14 1q14 1 26.5 6.5t19.5 17.5q8 14 11.5 34t4.5 42q1 10 1 20.5v20.5v36v20.5t-1 22.5
q-1 21 -5 40t-13 30q-7 9 -17.5 12.5t-21.5 4.5q-5 1 -10 1h-10h-24h-10t-10 -1q-10 -1 -20 -4t-17 -11q-8 -8 -12 -19t-6 -22q0 -3 -0.5 -6t-0.5 -6q-1 -10 -2 -19.5t-1 -18.5q-1 -10 -1 -19.5v-19.5v0zM176 661l133 -103l-21 -46l-146 76l34 73v0z" />
    <glyph glyph-name="oacute" unicode="&#xf3;" horiz-adv-x="439" 
d="M38 253q0 126 37 173t144 47q113 0 153 -43t40 -180q0 -124 -24.5 -189.5t-150.5 -65.5q-106 0 -152.5 39.5t-46.5 173.5v45v0zM135 241v-32q0 -58 10 -94.5t71 -36.5h11h13t14 1q14 1 26.5 6.5t19.5 17.5q8 14 11.5 34t4.5 42q1 10 1 20.5v20.5v36v20.5t-1 22.5
q-1 21 -5 40t-13 30q-7 9 -17.5 12.5t-21.5 4.5q-5 1 -10 1h-10h-24h-10t-10 -1q-10 -1 -20 -4t-17 -11q-8 -8 -12 -19t-6 -22q0 -3 -0.5 -6t-0.5 -6q-1 -10 -2 -19.5t-1 -18.5q-1 -10 -1 -19.5v-19.5v0zM275 661l34 -73l-147 -76l-20 46l133 103v0z" />
    <glyph glyph-name="ocircumflex" unicode="&#xf4;" horiz-adv-x="439" 
d="M38 253q0 126 37 173t144 47q113 0 153 -43t40 -180q0 -124 -24.5 -189.5t-150.5 -65.5q-106 0 -152.5 39.5t-46.5 173.5v45v0zM135 241v-32q0 -58 10 -94.5t71 -36.5h11h13t14 1q14 1 26.5 6.5t19.5 17.5q8 14 11.5 34t4.5 42q1 10 1 20.5v20.5v36v20.5t-1 22.5
q-1 21 -5 40t-13 30q-7 9 -17.5 12.5t-21.5 4.5q-5 1 -10 1h-10h-24h-10t-10 -1q-10 -1 -20 -4t-17 -11q-8 -8 -12 -19t-6 -22q0 -3 -0.5 -6t-0.5 -6q-1 -10 -2 -19.5t-1 -18.5q-1 -10 -1 -19.5v-19.5v0zM225 659l135 -96l-19 -44l-116 56l-116 -56l-18 44l134 96v0z" />
    <glyph glyph-name="otilde" unicode="&#xf5;" horiz-adv-x="439" 
d="M38 253q0 126 37 173t144 47q113 0 153 -43t40 -180q0 -124 -24.5 -189.5t-150.5 -65.5q-106 0 -152.5 39.5t-46.5 173.5v45v0zM135 241v-32q0 -58 10 -94.5t71 -36.5h11h13t14 1q14 1 26.5 6.5t19.5 17.5q8 14 11.5 34t4.5 42q1 10 1 20.5v20.5v36v20.5t-1 22.5
q-1 21 -5 40t-13 30q-7 9 -17.5 12.5t-21.5 4.5q-5 1 -10 1h-10h-24h-10t-10 -1q-10 -1 -20 -4t-17 -11q-8 -8 -12 -19t-6 -22q0 -3 -0.5 -6t-0.5 -6q-1 -10 -2 -19.5t-1 -18.5q-1 -10 -1 -19.5v-19.5v0zM325 626l46 -31q-13 -30 -34 -53.5t-53 -23.5q-17 0 -31.5 7.5
t-28.5 17.5q-4 2 -7 4t-7 4q-10 7 -21 11.5t-22 4.5q-14 0 -22.5 -10.5t-14.5 -22.5q0 -1 -0.5 -2.5t-1.5 -2.5l-49 31q0 1 0.5 1.5l1.5 1.5q14 26 33 48.5t47 24.5q17 0 31.5 -8t29.5 -17q14 -9 28.5 -17t31.5 -8q14 0 23.5 11t16.5 24q1 1 1.5 2.5t1.5 2.5v0z" />
    <glyph glyph-name="odieresis" unicode="&#xf6;" horiz-adv-x="439" 
d="M38 253q0 126 37 173t144 47q113 0 153 -43t40 -180q0 -124 -24.5 -189.5t-150.5 -65.5q-106 0 -152.5 39.5t-46.5 173.5v45v0zM135 241v-32q0 -58 10 -94.5t71 -36.5h11h13t14 1q14 1 26.5 6.5t19.5 17.5q8 14 11.5 34t4.5 42q1 10 1 20.5v20.5v36v20.5t-1 22.5
q-1 21 -5 40t-13 30q-7 9 -17.5 12.5t-21.5 4.5q-5 1 -10 1h-10h-24h-10t-10 -1q-10 -1 -20 -4t-17 -11q-8 -8 -12 -19t-6 -22q0 -3 -0.5 -6t-0.5 -6q-1 -10 -2 -19.5t-1 -18.5q-1 -10 -1 -19.5v-19.5v0zM185 619v-79h-74v79h74v0zM340 619v-79h-75v79h75v0z" />
    <glyph glyph-name="divide" unicode="&#xf7;" horiz-adv-x="425" 
d="M213 222q17 0 28.5 -14.5t11.5 -34.5t-11.5 -34.5t-28.5 -14.5t-29.5 14.5t-12.5 34.5t12.5 34.5t29.5 14.5v0zM13 381h398v-60h-398v60v0zM213 577q17 0 29 -14.5t12 -34.5q0 -19 -12 -34t-29 -15t-29.5 15t-12.5 34q0 20 12.5 34.5t29.5 14.5v0z" />
    <glyph glyph-name="oslash" unicode="&#xf8;" horiz-adv-x="438" 
d="M438 480v-72l-38 -38q4 -15 5.5 -30.5t1.5 -31.5q1 -8 1 -15.5v-15.5v-48t-1 -47q-4 -121 -48.5 -154t-139.5 -33q-12 0 -24 0.5t-24 1.5q-29 3 -56.5 13t-47.5 36l-67 -64v70l44 43q-5 18 -7 38t-3 40v17.5v17.5q0 148 30 206.5t164 58.5h22t22 -1q30 -3 58 -13.5
t47 -37.5l61 59v0zM142 114q7 -21 23 -27.5t34 -7.5h7.5h6.5h8q68 0 79.5 36.5t11.5 113.5v61l-170 -176v0zM303 351q-6 20 -21.5 27.5t-32.5 8.5q-5 1 -10 1h-10h-9q-34 0 -58 -10t-29 -57l-2 -28t-1 -28q-1 -15 -1 -29v-28v-16.5t1 -16.5l173 176v0z" />
    <glyph glyph-name="ugrave" unicode="&#xf9;" horiz-adv-x="448" 
d="M401 466v-466h-90l2 76h-4q-19 -50 -50 -66t-76 -16q-69 0 -102 39t-33 120v313h95v-288q0 -50 11.5 -73.5t58.5 -23.5q61 0 77.5 31.5t16.5 94.5v259h94v0zM175 660l134 -103l-22 -46l-146 76l34 73v0z" />
    <glyph glyph-name="uacute" unicode="&#xfa;" horiz-adv-x="448" 
d="M401 466v-466h-90l2 76h-4q-19 -50 -50 -66t-76 -16q-69 0 -102 39t-33 120v313h95v-288q0 -50 11.5 -73.5t58.5 -23.5q61 0 77.5 31.5t16.5 94.5v259h94v0zM275 660l34 -73l-147 -76l-21 46l134 103v0z" />
    <glyph glyph-name="ucircumflex" unicode="&#xfb;" horiz-adv-x="448" 
d="M401 466v-466h-90l2 76h-4q-19 -50 -50 -66t-76 -16q-69 0 -102 39t-33 120v313h95v-288q0 -50 11.5 -73.5t58.5 -23.5q61 0 77.5 31.5t16.5 94.5v259h94v0zM224 659l135 -96l-19 -44l-116 56l-116 -56l-18 44l134 96v0z" />
    <glyph glyph-name="udieresis" unicode="&#xfc;" horiz-adv-x="448" 
d="M401 466v-466h-90l2 76h-4q-19 -50 -50 -66t-76 -16q-69 0 -102 39t-33 120v313h95v-288q0 -50 11.5 -73.5t58.5 -23.5q61 0 77.5 31.5t16.5 94.5v259h94v0zM184 618v-79h-74v79h74v0zM339 618v-79h-75v79h75v0z" />
    <glyph glyph-name="yacute" unicode="&#xfd;" 
 />
    <glyph glyph-name="thorn" unicode="&#xfe;" horiz-adv-x="485" 
d="M141 667v-281q24 50 57 78.5t83 28.5q90 0 133.5 -78t43.5 -173v-5.5v-5.5q-2 -93 -44 -169.5t-132 -76.5q-43 0 -81 26.5t-56 72.5v-245h-94v828h90v0zM254 403q-55 0 -81.5 -47.5t-29.5 -104.5v-6.5v-6.5v-8v-8q3 -58 28 -106t82 -48q61 0 86 51.5t26 112.5v3.5v2.5
v6.5v6.5q-3 57 -29.5 104.5t-81.5 47.5v0z" />
    <glyph glyph-name="ydieresis" unicode="&#xff;" horiz-adv-x="366" 
d="M371 467l-106 -496q-16 -78 -43.5 -128t-107.5 -50q-10 0 -19.5 0.5t-19.5 2.5v80q5 -1 10.5 -1.5t10.5 -0.5q35 0 50.5 30t21.5 67q2 7 3 15t2 14h-46l-131 467h98l102 -397l77 397h98v0zM143 619v-79h-75v79h75v0zM298 619v-79h-75v79h75v0z" />
    <glyph glyph-name="Abreve" unicode="&#x102;" 
 />
    <glyph glyph-name="abreve" unicode="&#x103;" 
 />
    <glyph glyph-name="Aogonek" unicode="&#x104;" 
 />
    <glyph glyph-name="aogonek" unicode="&#x105;" 
 />
    <glyph glyph-name="Cacute" unicode="&#x106;" 
 />
    <glyph glyph-name="cacute" unicode="&#x107;" 
 />
    <glyph glyph-name="Ccaron" unicode="&#x10c;" 
 />
    <glyph glyph-name="ccaron" unicode="&#x10d;" 
 />
    <glyph glyph-name="Dcaron" unicode="&#x10e;" 
 />
    <glyph glyph-name="dcaron" unicode="&#x10f;" 
 />
    <glyph glyph-name="Dslash" unicode="&#x110;" 
 />
    <glyph glyph-name="dslash" unicode="&#x111;" 
 />
    <glyph glyph-name="Eogonek" unicode="&#x118;" 
 />
    <glyph glyph-name="eogonek" unicode="&#x119;" 
 />
    <glyph glyph-name="Ecaron" unicode="&#x11a;" 
 />
    <glyph glyph-name="ecaron" unicode="&#x11b;" 
 />
    <glyph glyph-name="Gbreve" unicode="&#x11e;" 
 />
    <glyph glyph-name="gbreve" unicode="&#x11f;" 
 />
    <glyph glyph-name="Idot" unicode="&#x130;" 
 />
    <glyph glyph-name="dotlessi" unicode="&#x131;" horiz-adv-x="179" 
d="M136 467v-467h-94v467h94v0z" />
    <glyph glyph-name="Lacute" unicode="&#x139;" 
 />
    <glyph glyph-name="lacute" unicode="&#x13a;" 
 />
    <glyph glyph-name="Lcaron" unicode="&#x13d;" 
 />
    <glyph glyph-name="lcaron" unicode="&#x13e;" 
 />
    <glyph glyph-name="Ldot" unicode="&#x13f;" 
 />
    <glyph glyph-name="ldot" unicode="&#x140;" 
 />
    <glyph glyph-name="Lslash" unicode="&#x141;" horiz-adv-x="428" 
d="M161 361v-249h262v-112h-373v255l-60 -67v102l60 66v311h111v-207l120 132v-99l-120 -132v0z" />
    <glyph glyph-name="lslash" unicode="&#x142;" horiz-adv-x="206" 
d="M151 376v-376h-97v283l-54 -60v77l54 61v306h97v-213l55 60v-79l-55 -59v0z" />
    <glyph glyph-name="Nacute" unicode="&#x143;" 
 />
    <glyph glyph-name="nacute" unicode="&#x144;" 
 />
    <glyph glyph-name="Ncaron" unicode="&#x147;" 
 />
    <glyph glyph-name="ncaron" unicode="&#x148;" 
 />
    <glyph glyph-name="Odblacute" unicode="&#x150;" 
 />
    <glyph glyph-name="odblacute" unicode="&#x151;" 
 />
    <glyph glyph-name="OE" unicode="&#x152;" horiz-adv-x="835" 
d="M534 557v-171h262v-93h-262v-187h279v-105h-381l1 70q-34 -53 -72 -64t-92 -11q-131 0 -182.5 54t-51.5 212v34v34q-1 17 -1 34v34q0 150 48 211t176 61q52 0 98.5 -10t76.5 -69l-1 74h378v-108h-276v0zM144 246q0 -103 30.5 -124t109.5 -21q80 0 111 21.5t32 122.5
q0 22 0.5 44t0.5 44v44v44q-1 105 -35 122.5t-114 17.5h-32q-64 0 -83 -32.5t-19 -109.5q0 -22 -0.5 -43.5t-0.5 -42.5v-43.5v-43.5v0z" />
    <glyph glyph-name="oe" unicode="&#x153;" horiz-adv-x="703" 
d="M673 218h-267q0 -74 12 -107.5t83 -33.5q41 0 58.5 12t21.5 60h92q0 -102 -42.5 -127.5t-123.5 -25.5h-16.5t-17.5 1q-34 2 -65 14t-48 51q-23 -46 -54 -56.5t-74 -10.5q-103 0 -149 40t-46 171q0 143 29.5 205t161.5 62q40 0 76.5 -8.5t55.5 -56.5q21 47 58.5 56.5
t77.5 9.5q104 0 140.5 -48t36.5 -167v-41v0zM133 242v-37q0 -63 12.5 -95t73.5 -32t78 26.5t17 92.5v67q0 57 -10.5 89.5t-67.5 32.5h-24h-10.5t-10.5 -1q-12 -1 -24 -5.5t-19 -15.5q-5 -7 -7.5 -16.5t-3.5 -19.5q0 -3 -0.5 -6.5t-0.5 -6.5l-2 -36t-1 -37v0zM582 288
q-2 63 -16 84t-72 21q-55 0 -71 -22t-18 -83h177v0z" />
    <glyph glyph-name="Racute" unicode="&#x154;" 
 />
    <glyph glyph-name="racute" unicode="&#x155;" 
 />
    <glyph glyph-name="Rcaron" unicode="&#x158;" 
 />
    <glyph glyph-name="rcaron" unicode="&#x159;" 
 />
    <glyph glyph-name="Sacute" unicode="&#x15a;" 
 />
    <glyph glyph-name="sacute" unicode="&#x15b;" 
 />
    <glyph glyph-name="Scedilla" unicode="&#x15e;" 
 />
    <glyph glyph-name="scedilla" unicode="&#x15f;" 
 />
    <glyph glyph-name="Scaron" unicode="&#x160;" horiz-adv-x="508" 
d="M470 472h-104q0 59 -20.5 79t-70.5 20h-29h-15t-16 -1q-15 -1 -29 -4.5t-25 -10.5q-11 -8 -16 -21t-7 -28q0 -6 -0.5 -11.5t-0.5 -10.5q0 -50 16.5 -68.5t60.5 -21.5q4 0 8 -0.5t9 -0.5q10 -1 21 -1.5t21 -0.5q83 -3 147 -27.5t64 -157.5q0 -85 -23 -139.5t-107 -64.5
q-26 -2 -52.5 -3t-53.5 -1q-97 0 -159 25.5t-62 163.5v6.5t1 6.5v6.5v6.5h103q0 -46 10.5 -79t58.5 -34q20 -1 40.5 -1h40.5q51 0 73.5 17.5t22.5 78.5q0 66 -29.5 78t-74.5 13h-17.5t-17.5 1q-5 0 -9.5 0.5t-8.5 1.5q-90 7 -140.5 35.5t-50.5 160.5q0 84 30.5 129t104.5 52
q23 2 45 3t44 1q88 0 152.5 -22t64.5 -150v-26v0zM254 703l-134 96l18 44l116 -55l116 55l18 -44l-134 -96v0z" />
    <glyph glyph-name="scaron" unicode="&#x161;" horiz-adv-x="421" 
d="M377 340h-91q0 33 -16 45.5t-42 12.5h-10.5h-10.5q-5 -1 -10.5 -1h-10.5q-24 0 -43.5 -7.5t-19.5 -44.5t12.5 -47.5t41.5 -12.5q9 -1 19 -1h20q4 -1 8.5 -1h9.5q60 -2 109.5 -22.5t49.5 -112.5q0 -103 -50.5 -128.5t-126.5 -25.5h-21t-22 1q-54 2 -99 25t-45 102v25h96
q0 -46 16 -61t53 -15h29q35 0 55.5 9.5t20.5 56.5q0 36 -14 45.5t-42 10.5h-10h-10t-10 0.5t-10 0.5q-68 1 -120 20.5t-52 124.5q0 96 53.5 116t117.5 20h25.5t26.5 -1q47 -4 85.5 -25.5t38.5 -88.5v-5.5v-4.5t-0.5 -4.5t-0.5 -5.5v0zM211 520l-134 96l17 44l117 -55l115 55
l19 -44l-134 -96v0z" />
    <glyph glyph-name="Tcedilla" unicode="&#x162;" 
 />
    <glyph glyph-name="tcedilla" unicode="&#x163;" 
 />
    <glyph glyph-name="Tcaron" unicode="&#x164;" 
 />
    <glyph glyph-name="tcaron" unicode="&#x165;" 
 />
    <glyph glyph-name="Uring" unicode="&#x16e;" 
 />
    <glyph glyph-name="uring" unicode="&#x16f;" 
 />
    <glyph glyph-name="udblacute" unicode="&#x170;" 
 />
    <glyph glyph-name="Udblacute" unicode="&#x171;" 
 />
    <glyph glyph-name="Ydieresis" unicode="&#x178;" horiz-adv-x="506" 
d="M514 667l-210 -411v-256h-108v256l-205 411h124l137 -285l136 285h126v0zM213 817v-79h-75v79h75v0zM367 817v-79h-75v79h75v0z" />
    <glyph glyph-name="Zacute" unicode="&#x179;" 
 />
    <glyph glyph-name="zacute" unicode="&#x17a;" 
 />
    <glyph glyph-name="Zdot" unicode="&#x17b;" 
 />
    <glyph glyph-name="zdot" unicode="&#x17c;" 
 />
    <glyph glyph-name="Zcaron" unicode="&#x17d;" horiz-adv-x="490" 
d="M468 667v-110l-314 -447l317 -2v-108h-452v108l311 448l-298 1v110h436v0zM245 702l-134 96l17 44l117 -55l115 55l19 -44l-134 -96v0z" />
    <glyph glyph-name="zcaron" unicode="&#x17e;" horiz-adv-x="359" 
d="M34 467h308v-93l-215 -291h215v-83h-325v96l212 289h-195v82v0zM179 519l-134 96l18 44l116 -55l116 55l19 -44l-135 -96v0z" />
    <glyph glyph-name="florin" unicode="&#x192;" horiz-adv-x="533" 
d="M336 417l-61 -402q-12 -94 -46.5 -124.5t-115.5 -30.5h-26.5t-27.5 1l12 84q2 1 4.5 0.5t4.5 -0.5q1 0 2 -0.5t2 -0.5q3 0 6.5 -0.5t6.5 -0.5q40 0 56 13.5t23 58.5l60 402h-68l13 83h67q2 15 4 28.5t4 26.5q14 92 42.5 139t129.5 47h23.5t21.5 -1l-12 -86q-2 0 -4.5 0.5
t-5.5 0.5q-4 1 -8.5 1.5t-9.5 0.5q-49 0 -61 -32.5t-18 -80.5q-1 -10 -2 -21.5t-3 -22.5h89l-13 -83h-89v0z" />
    <glyph glyph-name="hungarumlaut" unicode="&#x2ba;" horiz-adv-x="425" 
d="M162 676l53 -56l-116 -130l-33 35l96 151v0zM306 676l53 -56l-116 -130l-32 35l95 151v0z" />
    <glyph glyph-name="tilde" unicode="&#x2c6;" horiz-adv-x="425" 
d="M312 626l47 -31q-14 -30 -35 -53.5t-53 -23.5q-17 0 -31.5 7.5t-28.5 17.5q-2 1 -4.5 2.5t-4.5 3.5q-12 7 -23.5 12.5t-24.5 5.5q-14 0 -22.5 -10.5t-14.5 -22.5q0 -1 -0.5 -2.5t-1.5 -2.5l-49 31q0 1 0.5 1.5l1.5 1.5q14 26 33 48.5t47 24.5q17 0 31.5 -8t29.5 -17
q14 -9 28.5 -17t31.5 -8q14 0 24 11t17 24q0 1 0.5 2.5t1.5 2.5v0z" />
    <glyph glyph-name="caron" unicode="&#x2c7;" horiz-adv-x="425" 
d="M213 519l-135 96l18 44l117 -55l115 55l19 -44l-134 -96v0z" />
    <glyph glyph-name="macron" unicode="&#x2c9;" horiz-adv-x="425" 
d="M108 612h209v-67h-209v67v0z" />
    <glyph glyph-name="breve" unicode="&#x2d8;" horiz-adv-x="425" 
d="M84 648h50q6 -34 27.5 -55.5t51.5 -21.5q29 0 50 21.5t28 55.5h50q-8 -58 -41.5 -100.5t-86.5 -42.5t-87 42.5t-42 100.5v0z" />
    <glyph glyph-name="dotaccent" unicode="&#x2d9;" horiz-adv-x="425" 
d="M250 618v-79h-75v79h75v0z" />
    <glyph glyph-name="ring" unicode="&#x2da;" horiz-adv-x="425" 
d="M213 502q-28 0 -48.5 24t-20.5 58q0 33 20.5 57t48.5 24q29 0 49 -24t20 -57q0 -34 -20 -58t-49 -24v0zM213 542q14 0 24.5 12.5t10.5 29.5t-10.5 29t-24.5 12t-24.5 -12t-10.5 -29t10.5 -29.5t24.5 -12.5v0z" />
    <glyph glyph-name="ogonek" unicode="&#x2db;" horiz-adv-x="425" 
d="M209 0h66q-6 -3 -14.5 -8.5t-16.5 -11.5q-16 -12 -29.5 -28t-13.5 -34q0 -16 10 -23.5t22 -9.5h3.5h3.5q9 0 17.5 3t16.5 8v-59q-6 -1 -11.5 -3t-10.5 -3q-5 -2 -10.5 -2.5t-11.5 -0.5h-1.5h-1.5q-28 1 -52 21.5t-24 57.5q0 33 18 56t40 37v0z" />
    <glyph glyph-name="circumflex" unicode="&#x2dc;" horiz-adv-x="425" 
d="M213 659l134 -96l-19 -44l-115 56l-117 -56l-18 44l135 96v0z" />
    <glyph glyph-name="Gamma" unicode="&#x393;" horiz-adv-x="500" 
 />
    <glyph glyph-name="Theta" unicode="&#x398;" horiz-adv-x="500" 
 />
    <glyph glyph-name="summation" unicode="&#x3a3;" horiz-adv-x="500" 
 />
    <glyph glyph-name="Phi" unicode="&#x3a6;" horiz-adv-x="500" 
 />
    <glyph glyph-name="Omega" unicode="&#x3a9;" horiz-adv-x="500" 
 />
    <glyph glyph-name="alpha" unicode="&#x3b1;" horiz-adv-x="500" 
 />
    <glyph glyph-name="delta" unicode="&#x3b4;" horiz-adv-x="500" 
 />
    <glyph glyph-name="epsilon" unicode="&#x3b5;" horiz-adv-x="500" 
 />
    <glyph glyph-name="pi" unicode="&#x3c0;" horiz-adv-x="500" 
 />
    <glyph glyph-name="sigma" unicode="&#x3c3;" 
 />
    <glyph glyph-name="tau" unicode="&#x3c4;" horiz-adv-x="500" 
 />
    <glyph glyph-name="phi" unicode="&#x3c6;" 
 />
    <glyph glyph-name="glyph276" unicode="&#x2013;" horiz-adv-x="533" 
d="M48 303h436v-114h-436v114v0z" />
    <glyph glyph-name="emdash" unicode="&#x2014;" horiz-adv-x="584" 
d="M0 303h584v-114h-584v114v0z" />
    <glyph glyph-name="underscoredbl" unicode="&#x2017;" horiz-adv-x="500" 
 />
    <glyph glyph-name="quoteleft" unicode="&#x2018;" horiz-adv-x="176" 
d="M35 447v116q0 64 17 90.5t76 26.5h2h3q1 -1 2.5 -1h2.5v-52q-22 -1 -34 -10t-12 -36v-3.5t1 -3.5v-3.5v-3.5h37v-120h-95v0z" />
    <glyph glyph-name="quoteright" unicode="&#x2019;" horiz-adv-x="176" 
d="M141 667v-117q0 -63 -17 -89.5t-76 -26.5h-4.5t-5.5 1v52q23 1 34.5 9.5t11.5 36.5v3.5v3.5q-1 2 -1 3.5v3.5h-37v120h95v0z" />
    <glyph glyph-name="quotesinglbase" unicode="&#x201a;" horiz-adv-x="190" 
d="M141 120v-117q0 -62 -17 -88.5t-76 -26.5h-4.5t-5.5 1v51q23 2 34.5 10.5t11.5 36.5v3.5v3.5q-1 2 -1 3.5v2.5h-37v120h95v0z" />
    <glyph glyph-name="quotedblleft" unicode="&#x201c;" horiz-adv-x="320" 
d="M35 447v116q0 64 17 90.5t76 26.5h2h3q1 -1 2.5 -1h2.5v-52q-22 -1 -34 -10t-12 -36v-3.5t1 -3.5v-3.5v-3.5h37v-120h-95v0zM179 447v116q0 64 17.5 90.5t75.5 26.5h2.5h2.5q1 -1 2.5 -1h2.5v-52q-22 -1 -34 -10t-12 -36v-3.5t1 -3.5v-3.5v-3.5h38v-120h-96v0z" />
    <glyph glyph-name="quotedblright" unicode="&#x201d;" horiz-adv-x="320" 
d="M141 667v-117q0 -63 -17 -89.5t-76 -26.5h-4.5t-5.5 1v52q23 1 34.5 9.5t11.5 36.5v3.5v3.5q-1 2 -1 3.5v3.5h-37v120h95v0zM286 667v-117q0 -63 -17 -89.5t-76 -26.5h-2.5h-2.5t-2.5 0.5t-2.5 0.5v52q23 1 34.5 9.5t11.5 36.5v3.5v3.5q-1 2 -1 3.5v3.5h-38v120h96v0z
" />
    <glyph glyph-name="quotedblbase" unicode="&#x201e;" horiz-adv-x="320" 
d="M141 120v-117q0 -62 -17 -88.5t-76 -26.5h-4.5t-5.5 1v51q23 2 34.5 10.5t11.5 36.5v3.5v3.5q-1 2 -1 3.5v2.5h-37v120h95v0zM286 120v-117q0 -62 -17 -88.5t-76 -26.5h-2.5h-2.5t-2.5 0.5t-2.5 0.5v51q23 2 34.5 10.5t11.5 36.5v3.5v3.5q-1 2 -1 3.5v2.5h-38v120h96v0z
" />
    <glyph glyph-name="dagger" unicode="&#x2020;" horiz-adv-x="533" 
d="M317 667v-197h145v-95h-145v-575h-102v575h-145v95h145v197h102v0z" />
    <glyph glyph-name="daggerdbl" unicode="&#x2021;" horiz-adv-x="533" 
d="M317 667v-210h145v-95h-145v-247h145v-95h-145v-220h-102v220h-145v95h145v247h-145v95h145v210h102v0z" />
    <glyph glyph-name="glyph287" unicode="&#x2022;" horiz-adv-x="510" 
d="M168 286q0 40 24 68t58 28q35 0 59 -28t24 -68t-24 -68t-59 -28q-34 0 -58 28t-24 68v0z" />
    <glyph glyph-name="ellipsis" unicode="&#x2026;" horiz-adv-x="539" 
d="M137 122v-122h-94v122h94v0zM317 122v-122h-95v122h95v0zM496 122v-122h-94v122h94v0z" />
    <glyph glyph-name="perthousand" unicode="&#x2030;" horiz-adv-x="977" 
d="M428 174q0 80 18 120.5t91 40.5q68 0 100.5 -20.5t32.5 -108.5v-72q0 -15 -0.5 -30t-3.5 -29q-10 -52 -41.5 -64t-71.5 -12q-62 0 -94 23t-32 108v11.5t1 10.5v11.5v10.5v0zM484 171l1 -54q0 -46 15 -54t46 -8q37 0 52.5 9.5t15.5 53.5v98q0 47 -15.5 55.5t-50.5 8.5h-18
h-4.5h-4.5q-8 -1 -15 -3.5t-12 -9.5q-3 -5 -5 -12t-3 -14q-1 -3 -1 -6.5v-6.5q-1 -14 -1 -28.5v-28.5v0zM720 174q0 83 18.5 122t91.5 39q68 0 100 -21.5t32 -107.5v-72q0 -15 -0.5 -30t-2.5 -29q-10 -52 -41.5 -64t-72.5 -12l-16 -1q-58 1 -84 28t-26 104v11.5t1 10.5v11.5
v10.5v0zM776 171v-54q1 -46 16 -54t46 -8h4q35 0 49.5 9t14.5 54v98q0 47 -15 55.5t-50 8.5h-18q-22 0 -34 -9.5t-12 -42.5q-1 -14 -1 -28.5v-28.5v0zM558 667l-360 -667h-59l359 667h60v0zM27 508q0 79 18 120t92 41h12q65 0 92.5 -22.5t27.5 -112.5v-63q0 -68 -18 -103.5
t-87 -35.5q-65 0 -101.5 22t-36.5 109v11.5t1 11.5v10.5v11.5v0zM83 504v-54q1 -46 16 -54t46 -8q36 0 52 9.5t16 53.5v24.5v24.5v24.5v24.5q0 48 -15 56t-50 8h-18q-10 0 -20 -2t-16 -11q-4 -5 -6 -12t-3 -14q-1 -3 -1.5 -6.5t-0.5 -6.5v-57v0z" />
    <glyph glyph-name="guilsinglleft" unicode="&#x2039;" horiz-adv-x="246" 
d="M139 486l63 -43l-80 -192l85 -187l-60 -46l-108 233l100 235v0z" />
    <glyph glyph-name="guilsinglright" unicode="&#x203a;" horiz-adv-x="246" 
d="M108 486l99 -235l-108 -233l-60 46l86 187l-81 192l64 43v0z" />
    <glyph glyph-name="exclamdbl" unicode="&#x203c;" horiz-adv-x="500" 
 />
    <glyph glyph-name="nsuperior" unicode="&#x207f;" horiz-adv-x="500" 
 />
    <glyph glyph-name="franc" unicode="&#x20a3;" horiz-adv-x="500" 
 />
    <glyph glyph-name="peseta" unicode="&#x20a7;" horiz-adv-x="500" 
 />
    <glyph glyph-name="trademark" unicode="&#x2122;" horiz-adv-x="776" 
d="M181 594v-327h-74v327h-102v73h280v-73h-104v0zM742 667v-400h-73l3 314l-106 -314h-65l-107 312l4 -312h-73v400h114l96 -292h-4l95 292h116v0z" />
    <glyph glyph-name="arrowleft" unicode="&#x2190;" 
 />
    <glyph glyph-name="arrowup" unicode="&#x2191;" 
 />
    <glyph glyph-name="arrowright" unicode="&#x2192;" horiz-adv-x="500" 
 />
    <glyph glyph-name="arrowdown" unicode="&#x2193;" 
 />
    <glyph glyph-name="arrowboth" unicode="&#x2194;" 
 />
    <glyph glyph-name="arrowupdn" unicode="&#x2195;" 
 />
    <glyph glyph-name="arrowupdnbase" unicode="&#x21a8;" 
 />
    <glyph glyph-name="partialdiff" unicode="&#x2202;" horiz-adv-x="500" 
 />
    <glyph glyph-name="Delta" unicode="&#x2206;" horiz-adv-x="500" 
 />
    <glyph glyph-name="product" unicode="&#x220f;" 
 />
    <glyph glyph-name="minus" unicode="&#x2212;" horiz-adv-x="425" 
d="M13 380h398v-59h-398v59v0z" />
    <glyph glyph-name="fraction" unicode="&#x2215;" horiz-adv-x="426" 
d="M426 667l-359 -667h-67l359 667h67v0z" />
    <glyph glyph-name="periodcentered" unicode="&#x2219;" horiz-adv-x="533" 
d="M314 404v-122h-95v122h95v0z" />
    <glyph glyph-name="radical" unicode="&#x221a;" horiz-adv-x="500" 
 />
    <glyph glyph-name="infinity" unicode="&#x221e;" 
 />
    <glyph glyph-name="orthogonal" unicode="&#x221f;" 
 />
    <glyph glyph-name="intersection" unicode="&#x2229;" 
 />
    <glyph glyph-name="integral" unicode="&#x222b;" 
 />
    <glyph glyph-name="approxequal" unicode="&#x2248;" horiz-adv-x="500" 
 />
    <glyph glyph-name="notequal" unicode="&#x2260;" horiz-adv-x="500" 
 />
    <glyph glyph-name="equivalence" unicode="&#x2261;" 
 />
    <glyph glyph-name="lessequal" unicode="&#x2264;" horiz-adv-x="500" 
 />
    <glyph glyph-name="greaterequal" unicode="&#x2265;" horiz-adv-x="500" 
 />
    <glyph glyph-name="house" unicode="&#x2302;" 
 />
    <glyph glyph-name="revlogicalnot" unicode="&#x2310;" 
 />
    <glyph glyph-name="integraltp" unicode="&#x2320;" 
 />
    <glyph glyph-name="integralbt" unicode="&#x2321;" 
 />
    <glyph glyph-name="2500" unicode="&#x2500;" 
 />
    <glyph glyph-name="2502" unicode="&#x2502;" 
 />
    <glyph glyph-name="250c" unicode="&#x250c;" 
 />
    <glyph glyph-name="2510" unicode="&#x2510;" 
 />
    <glyph glyph-name="2514" unicode="&#x2514;" 
 />
    <glyph glyph-name="2518" unicode="&#x2518;" 
 />
    <glyph glyph-name="251c" unicode="&#x251c;" 
 />
    <glyph glyph-name="2524" unicode="&#x2524;" 
 />
    <glyph glyph-name="252c" unicode="&#x252c;" 
 />
    <glyph glyph-name="2534" unicode="&#x2534;" 
 />
    <glyph glyph-name="253c" unicode="&#x253c;" 
 />
    <glyph glyph-name="2550" unicode="&#x2550;" 
 />
    <glyph glyph-name="2551" unicode="&#x2551;" 
 />
    <glyph glyph-name="2552" unicode="&#x2552;" 
 />
    <glyph glyph-name="2553" unicode="&#x2553;" 
 />
    <glyph glyph-name="2554" unicode="&#x2554;" 
 />
    <glyph glyph-name="2555" unicode="&#x2555;" 
 />
    <glyph glyph-name="2556" unicode="&#x2556;" 
 />
    <glyph glyph-name="2557" unicode="&#x2557;" 
 />
    <glyph glyph-name="2558" unicode="&#x2558;" 
 />
    <glyph glyph-name="2559" unicode="&#x2559;" 
 />
    <glyph glyph-name="255a" unicode="&#x255a;" 
 />
    <glyph glyph-name="255b" unicode="&#x255b;" 
 />
    <glyph glyph-name="255c" unicode="&#x255c;" 
 />
    <glyph glyph-name="255d" unicode="&#x255d;" 
 />
    <glyph glyph-name="255e" unicode="&#x255e;" 
 />
    <glyph glyph-name="255f" unicode="&#x255f;" 
 />
    <glyph glyph-name="2560" unicode="&#x2560;" 
 />
    <glyph glyph-name="2561" unicode="&#x2561;" 
 />
    <glyph glyph-name="2562" unicode="&#x2562;" 
 />
    <glyph glyph-name="2563" unicode="&#x2563;" 
 />
    <glyph glyph-name="2564" unicode="&#x2564;" 
 />
    <glyph glyph-name="2565" unicode="&#x2565;" 
 />
    <glyph glyph-name="2566" unicode="&#x2566;" 
 />
    <glyph glyph-name="2567" unicode="&#x2567;" 
 />
    <glyph glyph-name="2568" unicode="&#x2568;" 
 />
    <glyph glyph-name="2569" unicode="&#x2569;" 
 />
    <glyph glyph-name="256a" unicode="&#x256a;" 
 />
    <glyph glyph-name="256b" unicode="&#x256b;" 
 />
    <glyph glyph-name="256c" unicode="&#x256c;" 
 />
    <glyph glyph-name="upblock" unicode="&#x2580;" 
 />
    <glyph glyph-name="dnblock" unicode="&#x2584;" 
 />
    <glyph glyph-name="block" unicode="&#x2588;" 
 />
    <glyph glyph-name="lfblock" unicode="&#x258c;" 
 />
    <glyph glyph-name="rtblock" unicode="&#x2590;" 
 />
    <glyph glyph-name="ltshade" unicode="&#x2591;" 
 />
    <glyph glyph-name="shade" unicode="&#x2592;" 
 />
    <glyph glyph-name="dkshade" unicode="&#x2593;" 
 />
    <glyph glyph-name="filledbox" unicode="&#x25a0;" horiz-adv-x="500" 
 />
    <glyph glyph-name="filledrect" unicode="&#x25ac;" 
 />
    <glyph glyph-name="triagup" unicode="&#x25b2;" 
 />
    <glyph glyph-name="triagrt" unicode="&#x25ba;" 
 />
    <glyph glyph-name="triagdn" unicode="&#x25bc;" 
 />
    <glyph glyph-name="triaglf" unicode="&#x25c4;" 
 />
    <glyph glyph-name="lozenge" unicode="&#x25ca;" horiz-adv-x="500" 
 />
    <glyph glyph-name="circle" unicode="&#x25cb;" 
 />
    <glyph glyph-name="invbullet" unicode="&#x25d8;" 
 />
    <glyph glyph-name="invcircle" unicode="&#x25d9;" 
 />
    <glyph glyph-name="smileface" unicode="&#x263a;" 
 />
    <glyph glyph-name="invsmileface" unicode="&#x263b;" 
 />
    <glyph glyph-name="sun" unicode="&#x263c;" 
 />
    <glyph glyph-name="female" unicode="&#x2640;" 
 />
    <glyph glyph-name="male" unicode="&#x2642;" 
 />
    <glyph glyph-name="spade" unicode="&#x2660;" 
 />
    <glyph glyph-name="club" unicode="&#x2663;" 
 />
    <glyph glyph-name="heart" unicode="&#x2665;" 
 />
    <glyph glyph-name="diamond" unicode="&#x2666;" 
 />
    <glyph glyph-name="musicalnote" unicode="&#x266a;" 
 />
    <glyph glyph-name="musicalnotedbl" unicode="&#x266b;" 
 />
    <glyph glyph-name="apple" unicode="&#xf000;" 
 />
    <glyph glyph-name="fi" unicode="&#xf001;" horiz-adv-x="441" 
d="M258 467v-83h-96v-384h-96v384h-56v83h56v51v21t2 22q1 17 5 33.5t12 28.5q15 24 40 34.5t51 13.5q17 2 32.5 2.5t29.5 0.5h4.5h4.5q2 -1 4.5 -1h4.5v-85q-3 1 -6.5 1.5t-7.5 0.5q-4 1 -7.5 1h-6.5h-7.5t-7.5 -1q-33 -3 -42 -19.5t-9 -52.5v-51h96v0zM400 467v-467h-96
v467h96v0zM400 667v-97h-96v97h96v0z" />
    <glyph glyph-name="fl" unicode="&#xf002;" horiz-adv-x="453" 
d="M258 467v-83h-96v-384h-96v384h-56v83h56v51v21t2 22q1 17 5 33.5t12 28.5q15 24 40 34.5t51 13.5q17 2 32.5 2.5t29.5 0.5h4.5h4.5q2 -1 4.5 -1h4.5v-85q-3 1 -6.5 1.5t-7.5 0.5q-4 1 -7.5 1h-6.5h-7.5t-7.5 -1q-33 -3 -42 -19.5t-9 -52.5v-51h96v0zM406 667v-667h-96
v667h96v0z" />
    <glyph glyph-name="degree" horiz-adv-x="425" 
d="M341 516q0 -62 -38.5 -106t-89.5 -44q-50 0 -89 43.5t-39 102.5q0 64 36.5 110t91.5 46q53 0 90.5 -45t37.5 -107v0zM298 516q0 41 -25 71.5t-60 30.5q-36 0 -60.5 -31.5t-24.5 -72.5q0 -39 25 -69t59 -30q35 0 60.5 30t25.5 71v0z" />
    <glyph glyph-name="bullet" horiz-adv-x="510" 
d="M168 286q0 40 24 68t58 28q35 0 59 -28t24 -68t-24 -68t-59 -28q-34 0 -58 28t-24 68v0z" />
    <glyph glyph-name="endash" horiz-adv-x="533" 
d="M48 303h436v-114h-436v114v0z" />
    </font>
</defs>
</svg>
