<?xml version="1.0" standalone="no"?>
<!DOCTYPE svg PUBLIC "-//W3C//DTD SVG 1.1//EN" "http://www.w3.org/Graphics/SVG/1.1/DTD/svg11.dtd" >
<svg xmlns="http://www.w3.org/2000/svg" xmlns:xlink="http://www.w3.org/1999/xlink" version="1.1">
<metadata>
Created by FontForge 20170731 at Wed Oct 10 22:58:03 2001
 By Aleksey,,,
Copyright 1990-2001 Bitstream Inc. All rights reserved.
</metadata>
<defs>
<font id="RaleighBT-Medium" horiz-adv-x="1024" >
  <font-face 
    font-family="Raleigh Md BT"
    font-weight="400"
    font-stretch="normal"
    units-per-em="2048"
    panose-1="2 4 5 3 4 3 5 3 2 4"
    ascent="1556"
    descent="-492"
    x-height="934"
    cap-height="1305"
    bbox="-346 -483 2048 1882"
    underline-thickness="111"
    underline-position="-398"
    unicode-range="U+0020-F002"
  />
<missing-glyph horiz-adv-x="1229" 
d="M102 -362v1806h1024v-1806h-1024zM217 -248h795v1577h-795v-1577z" />
    <glyph glyph-name=".notdef" horiz-adv-x="1229" 
d="M102 -362v1806h1024v-1806h-1024zM217 -248h795v1577h-795v-1577z" />
    <glyph glyph-name=".null" horiz-adv-x="0" 
 />
    <glyph glyph-name="nonmarkingreturn" horiz-adv-x="512" 
 />
    <glyph glyph-name="space" unicode=" " horiz-adv-x="512" 
 />
    <glyph glyph-name="exclam" unicode="!" horiz-adv-x="528" 
d="M150 1233l227 94q-27 -296 -39 -618t-12 -326q-3 -34 -23 -54t-102 -55q-6 225 -18.5 463t-32.5 496zM348 227v-53q0 -80 -5 -115t-17 -43q-26 -16 -64 -28.5t-55 -12.5q-26 0 -36.5 19.5t-10.5 66.5q0 70 37 104t151 62z" />
    <glyph glyph-name="quotedbl" unicode="&#x22;" horiz-adv-x="686" 
d="M526 860h-34l-70 459q-1 7 -1.5 14.5t-0.5 22.5q0 51 22.5 78.5t65.5 27.5q42 0 66 -27t24 -75q0 -16 -0.5 -24.5t-1.5 -16.5zM195 860h-35l-70 459q-2 17 -3 26t-1 15q0 48 24 75t66 27q44 0 67 -27.5t23 -78.5q0 -16 -0.5 -23.5t-1.5 -14.5z" />
    <glyph glyph-name="numbersign" unicode="#" horiz-adv-x="1575" 
d="M702 864l-98 -276h283l96 276h-281zM760 1458h155l-161 -454h276l162 454h156l-162 -454h301l-49 -140h-301l-97 -276h320l-49 -139h-320l-162 -453h-155l162 453h-279l-162 -453h-153l159 453h-313l51 139h312l98 276h-336l51 140h334z" />
    <glyph glyph-name="dollar" unicode="$" 
d="M463 1191q-93 -10 -147 -59.5t-54 -123.5q0 -64 39.5 -107.5t163.5 -105.5q0 160 -0.5 242t-1.5 154zM547 571q0 -118 1.5 -229t4.5 -217q97 6 156 64t59 147q0 79 -48.5 131.5t-172.5 103.5zM455 1430l118 88l-10 -213q114 -8 179.5 -11.5t121.5 -5.5v-303l-106 -41v27
q0 121 -41 166t-156 55q-6 -150 -10 -421v-15q201 -82 289 -173t88 -214q0 -147 -104 -252.5t-263 -114.5l4 -174l-123 -90l13 262h-31q-6 0 -108.5 5t-200.5 7v385l102 39q0 -183 49 -245t190 -70q4 105 5.5 205t1.5 196v86q-208 97 -284.5 178.5t-76.5 194.5q0 140 97 228
t260 94z" />
    <glyph glyph-name="percent" unicode="%" horiz-adv-x="1323" 
d="M989 582q-55 0 -74.5 -36.5t-19.5 -193.5v-20q0 -151 25.5 -199.5t91.5 -48.5q58 0 78 37t20 211q0 156 -26 203t-95 47zM754 313q0 183 67.5 274t202.5 91q120 0 173.5 -73.5t53.5 -239.5q0 -191 -66.5 -284t-203.5 -93q-122 0 -174.5 74t-52.5 251zM954 1315l152 22
q-183 -312 -366.5 -645t-374.5 -702l-150 -25q192 328 377 665t362 685zM305 1221q-55 0 -74.5 -37t-19.5 -193v-20q0 -153 25 -201.5t88 -48.5q61 0 81.5 38t20.5 210q0 156 -26 204t-95 48zM70 952q0 182 67.5 272.5t202.5 90.5q121 0 174 -72.5t53 -238.5
q0 -192 -66 -284.5t-202 -92.5q-123 0 -176 74.5t-53 250.5z" />
    <glyph glyph-name="ampersand" unicode="&#x26;" horiz-adv-x="1180" 
d="M692 219l-315 387q-77 -58 -112.5 -118t-35.5 -134q0 -99 69 -163t175 -64q60 0 114 23t105 69zM899 1305l-63 -160h-351q-38 0 -58 -9t-42 -32q-26 -27 -38.5 -53t-12.5 -52q0 -41 34.5 -101.5t125.5 -172.5l303 -375q27 40 41 89t14 108q0 129 -77.5 195.5t-235.5 72.5
l41 115h536l-41 -115h-205q48 -57 72.5 -123t24.5 -139q0 -83 -23 -156t-70 -141q59 -84 129 -121t173 -37h8l-37 -98h-293l-86 125q-88 -79 -170.5 -114.5t-175.5 -35.5q-161 0 -268 93t-107 229q0 98 64 192.5t198 196.5l-57 82q-36 52 -54 93.5t-18 74.5q0 60 48.5 142
t133.5 165q37 36 75 49t130 13h332z" />
    <glyph glyph-name="quotesingle" unicode="'" horiz-adv-x="352" 
d="M195 860h-35l-70 459q0 2 -1 8q-3 20 -3 29q0 50 23.5 78t66.5 28q42 0 66 -27t24 -75q0 -7 -0.5 -15t-3.5 -27z" />
    <glyph glyph-name="parenleft" unicode="(" horiz-adv-x="612" 
d="M557 1468q-121 -182 -182.5 -369t-61.5 -376q0 -196 68.5 -418.5t198.5 -445.5l-76 -76q-13 -13 -26 -21t-21 -8q-17 0 -33.5 21.5t-48.5 89.5q-104 222 -145.5 394t-41.5 357q0 227 67.5 436.5t207.5 415.5h94z" />
    <glyph glyph-name="parenright" unicode=")" horiz-adv-x="612" 
d="M55 -248q119 178 181.5 364.5t62.5 360.5q0 213 -66.5 434t-199.5 449l76 78q12 12 26 20t23 8q25 0 69 -90q8 -16 13 -24q98 -204 142 -383.5t44 -368.5q0 -224 -68 -432t-208 -416h-95z" />
    <glyph glyph-name="asterisk" unicode="*" 
d="M559 969l232 178l124 -109l-327 -133l315 -131l-102 -121l-242 187l33 -303l-160 -70l53 377l-245 -187l-131 115l340 135l-310 142l101 120l247 -204l-41 297l156 65z" />
    <glyph glyph-name="plus" unicode="+" horiz-adv-x="1706" 
d="M782 1221h142v-541h528v-139h-528v-541h-142v541h-528v139h528v541z" />
    <glyph glyph-name="comma" unicode="," horiz-adv-x="512" 
d="M162 -172q17 36 25 69t8 68q0 57 -18.5 117t-18.5 68q0 36 36.5 61t90.5 25q29 0 43 -30t14 -95q0 -86 -41 -155.5t-131 -133.5z" />
    <glyph glyph-name="hyphen" unicode="-" horiz-adv-x="520" 
d="M496 559l-68 -156h-403l67 156h404z" />
    <glyph glyph-name="period" unicode="." horiz-adv-x="512" 
d="M154 -25v58q0 82 5.5 121.5t18.5 48.5q30 18 70 31.5t57 13.5q25 0 36 -21t11 -69q0 -80 -38 -116t-160 -67z" />
    <glyph glyph-name="slash" unicode="/" horiz-adv-x="608" 
d="M625 1305l-574 -1495h-114l573 1495h115z" />
    <glyph glyph-name="zero" unicode="0" 
d="M760 653q0 335 -57 438t-207 103q-139 0 -183.5 -81t-44.5 -458q0 -336 57 -438t210 -102q138 0 181.5 82.5t43.5 455.5zM547 1327q215 0 309 -144t94 -478q0 -369 -117.5 -549.5t-357.5 -180.5q-215 0 -309 144t-94 479q0 369 117 549t358 180z" />
    <glyph glyph-name="one" unicode="1" 
d="M614 901v-557q0 -177 36 -217.5t159 -44.5l-25 -82h-583l24 82q149 4 185 40.5t36 221.5v569q0 160 -25.5 197t-96.5 37q-20 0 -48.5 -3.5t-62.5 -10.5l20 88q94 22 193.5 49t204.5 59q-5 -137 -11 -278t-6 -150z" />
    <glyph glyph-name="two" unicode="2" 
d="M920 184l-56 -184h-790l-4 145q368 318 512.5 502.5t144.5 327.5q0 96 -60.5 144t-181.5 48q-86 0 -187 -25.5t-216 -76.5l84 195q97 33 189.5 50t174.5 17q187 0 292.5 -84.5t105.5 -232.5q0 -145 -113.5 -300.5t-554.5 -539.5q137 0 294.5 3.5t365.5 10.5z" />
    <glyph glyph-name="three" unicode="3" 
d="M66 -184l65 116q274 44 442 186t168 322q0 104 -60 154.5t-183 50.5q-71 0 -145.5 -18.5t-164.5 -59.5l50 187q79 32 148.5 47.5t133.5 15.5q28 0 86 -7l6 -1q42 52 63 104.5t21 102.5q0 71 -47 106t-143 35q-86 0 -192 -33.5t-259 -109.5l80 207q109 53 213 79.5
t201 26.5q148 0 236.5 -67t88.5 -175q0 -77 -37 -145.5t-126 -151.5q104 -35 160.5 -115.5t56.5 -193.5q0 -248 -239 -435.5t-623 -227.5z" />
    <glyph glyph-name="four" unicode="4" 
d="M655 846v244q-137 -169 -258.5 -313.5t-234.5 -274.5h487q3 114 4.5 200t1.5 144zM813 506h3q94 4 140 10l-55 -164h-84q0 -89 3.5 -174t10.5 -168l-182 -73q1 63 1.5 120t0.5 111q0 42 -0.5 87.5t-1.5 96.5h-549l-63 180q153 180 475 569l150 181l172 45
q-10 -262 -15 -458t-6 -363z" />
    <glyph glyph-name="five" unicode="5" 
d="M876 1145q-47 -3 -95.5 -4.5t-121.5 -1.5h-346l-57 -299q47 3 78.5 4.5t40.5 1.5q257 0 389.5 -100t132.5 -295q0 -249 -218.5 -422.5t-584.5 -210.5l58 106q260 49 412.5 185t152.5 315q0 122 -91 187t-264 65q-45 0 -102.5 -5t-138.5 -16l127 650q280 0 431.5 4.5
t262.5 15.5z" />
    <glyph glyph-name="six" unicode="6" 
d="M293 840q-20 -69 -29.5 -135t-9.5 -130q0 -214 83 -338t226 -124q121 0 169 76t48 278q0 210 -72 302.5t-235 92.5q-34 0 -74 -4.5t-106 -17.5zM735 1401q-145 -77 -246.5 -185t-148.5 -237q67 12 119.5 18.5t93.5 6.5q190 0 297.5 -118t107.5 -327q0 -263 -124.5 -423.5
t-327.5 -160.5q-196 0 -316 166.5t-120 438.5q0 322 182.5 567t499.5 344z" />
    <glyph glyph-name="seven" unicode="7" 
d="M438 12l-268 -143q159 274 312.5 574.5t334.5 697.5q-118 -4 -359 -8.5t-364 -8.5l64 181q373 4 555.5 8.5t314.5 11.5q-214 -443 -353.5 -754t-236.5 -559z" />
    <glyph glyph-name="eight" unicode="8" 
d="M451 680q-118 -111 -173 -199t-55 -164q0 -97 79.5 -151.5t219.5 -54.5q138 0 214.5 44t76.5 124q0 83 -87.5 180t-274.5 221zM553 817q82 69 127 137t45 121q0 67 -55.5 104.5t-155.5 37.5q-109 0 -164 -29.5t-55 -87.5t63.5 -127.5t194.5 -155.5zM362 741
q-109 77 -165 154.5t-56 155.5q0 124 111 200t297 76q162 0 251 -55.5t89 -157.5q0 -77 -65 -168.5t-187 -185.5q190 -126 260 -216.5t70 -199.5q0 -157 -141.5 -263t-360.5 -106q-191 0 -309.5 85.5t-118.5 215.5q0 93 76 202.5t249 262.5z" />
    <glyph glyph-name="nine" unicode="9" 
d="M311 -106q146 94 239.5 202.5t137.5 235.5q-76 -14 -128 -20.5t-93 -6.5q-192 0 -296.5 114t-104.5 324q0 264 124 424t326 160q198 0 318 -165t120 -437q0 -316 -179 -568t-478 -354zM731 475q20 70 29.5 137t9.5 136q0 201 -83 321.5t-222 120.5q-124 0 -172.5 -75
t-48.5 -279q0 -203 73.5 -292t239.5 -89q38 0 80.5 5t93.5 15z" />
    <glyph glyph-name="colon" unicode=":" horiz-adv-x="559" 
d="M180 -25v58q0 83 6 122.5t19 47.5q32 19 71 32t56 13q25 0 36 -21t11 -71q0 -79 -37.5 -114.5t-161.5 -66.5zM180 475v55q0 83 6 123.5t19 48.5q29 18 69.5 32t57.5 14q25 0 36 -21.5t11 -71.5q0 -76 -39.5 -113t-159.5 -67z" />
    <glyph glyph-name="semicolon" unicode=";" horiz-adv-x="559" 
d="M195 -172q17 36 24.5 68.5t7.5 68.5q0 57 -19.5 117t-19.5 68q0 36 37.5 61t91.5 25q30 0 44 -30t14 -95q0 -85 -42 -154.5t-132 -134.5zM180 477v55q0 83 6 123.5t19 49.5q29 17 69.5 31t57.5 14q25 0 36 -22t11 -73q0 -75 -38 -110.5t-161 -67.5z" />
    <glyph glyph-name="less" unicode="&#x3c;" horiz-adv-x="1706" 
d="M1442 1159v-153l-969 -396l969 -393v-154l-1178 484v129z" />
    <glyph glyph-name="equal" unicode="=" horiz-adv-x="1706" 
d="M254 481h1198v-139h-1198v139zM254 879h1198v-140h-1198v140z" />
    <glyph glyph-name="greater" unicode="&#x3e;" horiz-adv-x="1706" 
d="M264 1159l1178 -483v-129l-1178 -484v154l971 393l-971 396v153z" />
    <glyph glyph-name="question" unicode="?" horiz-adv-x="743" 
d="M428 223v-18q-3 -176 -22 -189q-27 -16 -67 -28.5t-58 -12.5q-25 0 -35 18.5t-10 65.5q0 70 35.5 102t156.5 62zM440 332l-69 -27q-19 -6 -34.5 -10t-23.5 -4q-38 0 -69 40.5t-31 96.5q0 47 25 104t88 150q9 14 28 42q105 149 105 230q0 101 -88.5 155.5t-257.5 58.5
l112 159q184 -6 296 -92.5t112 -218.5q0 -71 -29 -137t-127 -187l-10 -12q-113 -138 -113 -205q0 -40 22 -76.5t64 -66.5z" />
    <glyph glyph-name="at" unicode="@" horiz-adv-x="2019" 
d="M1186 332q-62 -105 -138 -156t-169 -51q-129 0 -206 92t-77 246q0 109 49.5 216t140.5 195q68 65 146 99.5t155 34.5q90 0 146 -48.5t76 -142.5l51 174h158l-172 -612l-4 -12q-15 -56 -15 -86q0 -51 23.5 -79t66.5 -28q33 0 80.5 20t89.5 52q119 90 179.5 228.5
t60.5 318.5q0 133 -52.5 245t-156.5 201q-90 77 -214 118.5t-267 41.5q-180 0 -335.5 -61.5t-275.5 -180.5q-126 -124 -190 -287t-64 -358q0 -182 57 -313t179 -234q109 -92 254 -141t307 -49q170 0 327 51.5t300 155.5l33 -41q-147 -110 -312.5 -166t-345.5 -56
q-189 0 -345.5 45.5t-274.5 135.5q-151 113 -230.5 276.5t-79.5 360.5q0 203 86.5 380.5t251.5 313.5q134 111 294.5 167t342.5 56q346 0 555 -188.5t209 -499.5q0 -159 -58.5 -298t-166.5 -237q-59 -52 -126 -80t-134 -28q-96 0 -149 53t-60 156zM1104 961
q-54 0 -98.5 -30.5t-90.5 -99.5q-71 -107 -113 -233.5t-42 -228.5q0 -86 39.5 -138.5t101.5 -52.5q65 0 122.5 43.5t111.5 132.5q55 93 88.5 204t33.5 198q0 92 -42 148.5t-111 56.5z" />
    <glyph glyph-name="A" unicode="A" horiz-adv-x="1217" 
d="M895 723l90 -258l21 -60q106 -308 243 -323l-24 -82h-484l25 82q59 3 89 24.5t30 59.5q0 25 -7.5 59.5t-21.5 75.5l-47 141h-455l-30 -80q-20 -51 -29.5 -91.5t-9.5 -71.5q0 -64 45.5 -90.5t161.5 -26.5l-25 -82h-492l27 82q48 9 84.5 56.5t85.5 172.5l236 617
q33 88 63.5 180.5t58.5 191.5q44 4 86.5 10.5t85.5 16.5q62 -204 109 -352t84 -252zM774 553l-186 551l-197 -551h383z" />
    <glyph glyph-name="B" unicode="B" horiz-adv-x="1090" 
d="M391 961v-191q20 -2 39 -3t43 -1q134 0 204.5 58.5t70.5 168.5q0 103 -59.5 157t-172.5 54q-73 0 -99 -29.5t-26 -140.5v-73zM391 432q0 -129 0.5 -192.5t1.5 -116.5q43 -11 84.5 -17t79.5 -6q121 0 189.5 72t68.5 199q0 137 -85 210.5t-243 73.5q-20 0 -53 -2.5
t-43 -3.5v-217zM70 0l24 82h15q69 0 93.5 51.5t24.5 243.5v123v297q0 291 -34.5 354t-143.5 72l27 82h63q90 0 215.5 6t161.5 6q195 0 298.5 -82.5t103.5 -237.5q0 -99 -55 -174t-152 -110q138 -34 211 -119t73 -213q0 -182 -111.5 -287.5t-305.5 -105.5q-19 0 -171 6
t-286 6h-51z" />
    <glyph glyph-name="C" unicode="C" horiz-adv-x="1202" 
d="M1085 961l-112 -33q-2 150 -57 205t-205 55q-80 0 -155 -15.5t-120 -39.5q-74 -43 -119 -165t-45 -284q0 -266 140.5 -409.5t400.5 -143.5q64 0 138 13t163 40l-20 -141q-98 -35 -182 -51.5t-162 -16.5q-303 0 -488.5 186.5t-185.5 487.5q0 168 61.5 305.5t177.5 231.5
q95 75 216.5 108t318.5 33q56 0 114.5 -4t120.5 -12q0 -11 -1 -80t-1 -127q0 -31 0.5 -67t1.5 -76z" />
    <glyph glyph-name="D" unicode="D" horiz-adv-x="1395" 
d="M399 948v-819q102 -17 164 -24t105 -7q217 0 337.5 143.5t120.5 399.5t-132.5 411.5t-348.5 155.5q-143 0 -194.5 -41.5t-51.5 -218.5zM94 82h15q68 0 92 50t24 241v127v297q0 293 -34 355.5t-142 70.5l25 82l6 -1q104 -4 153 -4q96 0 246.5 7.5t204.5 7.5
q295 0 466 -178.5t171 -481.5q0 -134 -39 -254.5t-111 -207.5q-91 -111 -208 -158t-314 -47q-72 0 -218.5 8t-219.5 8q-33 0 -114 -3q-20 -1 -29 -1z" />
    <glyph glyph-name="E" unicode="E" horiz-adv-x="1118" 
d="M971 1305v-299l-109 -29q-6 127 -60 178t-184 51q-134 0 -175.5 -28t-41.5 -150v-67v-216h136q100 0 133.5 25.5t40.5 93.5l92 25v-418l-92 -22q-8 111 -44 147.5t-147 36.5h-119v-500q73 -10 121 -14t88 -4q131 0 196.5 63.5t72.5 196.5l108 39v-414h-917l26 82h15
q69 0 93.5 50.5t24.5 242.5v125v297q0 294 -34 355.5t-140 70.5l27 82h889z" />
    <glyph glyph-name="F" unicode="F" horiz-adv-x="1049" 
d="M952 1305v-299l-104 -29q-5 126 -57.5 177.5t-176.5 51.5q-133 0 -175 -29t-42 -157v-59v-216h133q100 0 132.5 25.5t37.5 93.5l91 25v-418l-90 -22q-8 112 -43.5 148t-143.5 36h-117v-322q0 -129 44.5 -172t195.5 -57l-25 -82h-544l26 82h15q68 0 92 50t24 241v127v319
q0 275 -33.5 335t-138.5 69l25 82h874z" />
    <glyph glyph-name="G" unicode="G" horiz-adv-x="1307" 
d="M1114 958l-115 -30q0 147 -57.5 203.5t-208.5 56.5q-126 0 -212 -24t-128 -70q-53 -59 -87 -178.5t-34 -258.5q0 -258 130 -403t360 -145q129 0 175 35.5t46 177.5q0 100 -46.5 139t-166.5 39h-6q-20 2 -35 2l27 90h536l-26 -90q-69 0 -91 -30.5t-22 -170.5v-16v-228
q-92 -40 -197.5 -61t-214.5 -21q-307 0 -486 178t-179 482q0 177 63 317t187 236q95 74 217 106.5t317 32.5q72 0 135 -4t119 -12q0 -22 -1 -91t-1 -116q0 -32 0.5 -68.5t1.5 -77.5z" />
    <glyph glyph-name="H" unicode="H" horiz-adv-x="1399" 
d="M623 1305l-27 -82q-120 -11 -158.5 -49t-38.5 -197v-45v-162h600v201q0 169 -41.5 207t-177.5 45l25 82h528l-26 -82h-15q-67 0 -91.5 -48.5t-24.5 -220.5v-151v-299q0 -286 34.5 -350t141.5 -72l-27 -82h-549l25 82q122 12 160 51.5t38 212.5v25v280h-600v-327
q0 -163 42 -199.5t177 -42.5l-24 -82h-528l24 82h14q70 0 94.5 54t24.5 272v92v297q0 292 -34.5 355t-141.5 71l25 82h551z" />
    <glyph glyph-name="I" unicode="I" horiz-adv-x="631" 
d="M561 1305l-24 -82h-15q-69 0 -94 -52t-25 -245v-123v-299q0 -286 35 -350t142 -72l-25 -82h-485l24 82h15q70 0 94 51.5t24 257.5v109v297q0 292 -34.5 355t-141.5 71l25 82h485z" />
    <glyph glyph-name="J" unicode="J" horiz-adv-x="621" 
d="M578 1305l-27 -82h-14q-68 0 -92.5 -48.5t-24.5 -220.5v-151v-445q0 -257 -11 -358.5t-38 -163.5q-46 -105 -142.5 -180.5t-236.5 -114.5v76q141 62 196.5 180.5t55.5 474.5v699q0 169 -41.5 207t-177.5 45l24 82h529z" />
    <glyph glyph-name="K" unicode="K" horiz-adv-x="1194" 
d="M563 1305l-26 -82h-11q-77 0 -103 -51.5t-26 -258.5v-155l246 252q71 73 90 101.5t19 51.5q0 22 -22 37t-64 23l24 82h436l-24 -82q-70 -7 -126 -37.5t-149 -124.5l-282 -287q71 -28 169.5 -134t243.5 -312l17 -23q156 -223 270 -223h15l-25 -82h-287
q-173 286 -308.5 453t-242.5 227v-369q0 -130 48 -172.5t206 -56.5l-24 -82h-564l25 82h14q70 0 94.5 51.5t24.5 243.5v123v319q0 275 -33.5 335t-138.5 69l25 82h489z" />
    <glyph glyph-name="L" unicode="L" horiz-adv-x="1036" 
d="M623 1305l-25 -82q-125 -10 -163 -48.5t-38 -205.5v-35v-701q0 -2 1.5 -35t3.5 -65q54 -8 106.5 -12t103.5 -4q132 0 194 63.5t68 204.5l107 43v-428h-913l24 82h14q70 0 94.5 51.5t24.5 257.5v109v319q0 274 -33.5 334.5t-138.5 69.5l25 82h545z" />
    <glyph glyph-name="M" unicode="M" horiz-adv-x="1759" 
d="M334 389v-14q0 -209 39.5 -250t172.5 -43l-26 -82h-461l25 82h12q72 0 96.5 54t24.5 257v135v390q0 200 -35 252.5t-137 52.5l25 82h360q100 -260 213.5 -511.5t241.5 -496.5q125 256 238 507t214 501h330l-27 -82h-14q-69 0 -94 -54.5t-25 -259.5v-133v-332
q0 -254 35 -308t139 -54l-26 -82h-522l22 82q121 13 159 56.5t38 238.5v14v658q-128 -250 -246 -511.5t-229 -537.5l-52 -25q-114 286 -237 563.5t-256 548.5z" />
    <glyph glyph-name="N" unicode="N" horiz-adv-x="1417" 
d="M348 379q2 -211 51 -254t222 -43l-27 -82h-526l24 82h17q72 0 98 57t26 267v172v221q0 294 -34 359t-138 65h-10l25 82h278q200 -284 383.5 -532t349.5 -462l-4 613q-2 210 -50.5 253.5t-221.5 45.5l27 82h526l-27 -82h-14q-73 0 -99 -52.5t-26 -244.5v-199v-498
q0 -90 1 -136.5t3 -86.5l-102 -35q-200 291 -388.5 547.5t-365.5 478.5z" />
    <glyph glyph-name="O" unicode="O" horiz-adv-x="1468" 
d="M1200 651q0 252 -128 385t-370 133q-234 0 -334 -116t-100 -389q0 -261 127 -395t373 -134q235 0 333.5 118t98.5 398zM784 1327q282 0 444.5 -169t162.5 -462q0 -318 -196.5 -519.5t-506.5 -201.5q-286 0 -449 168t-163 463q0 320 197.5 520.5t510.5 200.5z" />
    <glyph glyph-name="P" unicode="P" horiz-adv-x="1036" 
d="M399 377v-43q0 -169 43.5 -206.5t186.5 -45.5l-27 -82h-536l24 82h14q71 0 95 50.5t24 256.5v111v297q0 293 -34 355.5t-142 70.5l25 82h57q128 0 273 5t161 5q197 0 308.5 -105t111.5 -286q0 -188 -127.5 -296t-351.5 -108q-24 0 -50 1.5t-54 4.5zM399 944l1 -272
q57 -7 106 -11t86 -4q105 0 150.5 62t45.5 205q0 136 -62.5 211t-176.5 75q-85 0 -117.5 -35t-32.5 -165v-66z" />
    <glyph glyph-name="Q" unicode="Q" horiz-adv-x="1468" 
d="M1450 -225q-142 -106 -204 -141t-99 -35q-55 0 -290 73q-93 29 -146 45q-153 47 -225 63.5t-111 16.5t-82.5 -21.5t-97.5 -68.5l-27 33q122 113 190 153.5t125 40.5q47 0 125.5 -18.5t253.5 -75.5q190 -60 266.5 -79t118.5 -19q35 0 79 16t101 49zM1200 639
q0 261 -126.5 395.5t-371.5 134.5q-235 0 -334.5 -115t-99.5 -388q0 -262 127 -396.5t373 -134.5q231 0 331.5 117.5t100.5 386.5zM782 1327q282 0 445.5 -168t163.5 -459q0 -321 -196 -523t-507 -202q-284 0 -447 168t-163 461q0 322 195.5 522.5t508.5 200.5z" />
    <glyph glyph-name="R" unicode="R" horiz-adv-x="1126" 
d="M1144 82l-24 -82h-250l-35 75q-206 432 -266 511q-25 33 -67 49.5t-104 17.5l-1 -342q0 -128 46.5 -172.5t193.5 -56.5l-27 -82h-544l24 82h14q70 0 94.5 51.5t24.5 257.5v109v319q0 274 -33.5 334.5t-138.5 69.5l25 81q67 2 183 5q263 6 300 6q197 0 296 -82t99 -244
q0 -122 -78.5 -205.5t-218.5 -109.5q103 -28 231 -285l5 -10l26 -52q118 -237 225 -245zM397 967v-203q23 -2 45.5 -3t51.5 -1q134 0 201 57t67 172q0 104 -64 161.5t-180 57.5q-72 0 -96.5 -29.5t-24.5 -144.5v-67z" />
    <glyph glyph-name="S" unicode="S" horiz-adv-x="991" 
d="M852 997l-111 -41v50q0 108 -55.5 154t-187.5 46q-109 0 -172.5 -48.5t-63.5 -131.5q0 -111 238 -242l24 -14l8 -4q377 -209 377 -414q0 -179 -124 -278t-351 -99q-21 0 -131 5.5t-201 7.5v409l105 41v-28q0 -181 56 -243.5t210 -62.5q119 0 187.5 55t68.5 150
q0 132 -255 276l-5 3q-23 13 -68 38q-323 181 -323 365q0 159 115 247.5t323 88.5q29 0 141 -6.5t195 -10.5v-313z" />
    <glyph glyph-name="T" unicode="T" horiz-adv-x="1161" 
d="M1108 1305v-312l-92 -38q-8 148 -69 197.5t-240 49.5h-35q-2 -48 -3 -101.5t-1 -154.5v-579q0 -195 41.5 -237t187.5 -48l-27 -82h-614l20 82q136 8 177 49.5t41 241.5v573q0 24 -2 89.5t-5 166.5h-24q-181 0 -241.5 -42.5t-76.5 -166.5l-92 -39v351h1055z" />
    <glyph glyph-name="U" unicode="U" horiz-adv-x="1339" 
d="M645 1305l-27 -82q-143 -2 -187 -47t-44 -222q0 -23 1 -83t1 -97v-213q0 -267 69 -365t230 -98q72 0 126.5 19.5t96.5 60.5q47 44 65.5 110.5t18.5 239.5v404q0 195 -37.5 238t-150.5 53l24 82h433l-25 -82q-65 -2 -89 -54t-24 -237v-131v-205q0 -213 -22 -306t-74 -159
q-60 -77 -156.5 -115.5t-230.5 -38.5q-104 0 -195 37.5t-147 102.5q-49 57 -69.5 133t-20.5 258v289q0 272 -31 341t-117 85l25 82h557z" />
    <glyph glyph-name="V" unicode="V" horiz-adv-x="1196" 
d="M545 1305l-25 -82q-87 -2 -127.5 -33t-40.5 -96q0 -40 20.5 -123t57.5 -191l207 -602l217 598q37 102 57.5 184.5t20.5 124.5q0 71 -44.5 104.5t-137.5 33.5h-27l25 82h438q-113 -264 -234 -605q-11 -31 -16 -45l-68 -187q-8 -22 -86 -263l-65 -205q-46 -8 -91.5 -14
t-91.5 -10q-64 175 -125 351t-63 181l-51 145q-20 57 -54 156q-141 416 -270 416h-10l25 80h559z" />
    <glyph glyph-name="W" unicode="W" horiz-adv-x="1772" 
d="M1122 872l187 -581l164 530q32 104 45.5 162.5t13.5 95.5q0 75 -47.5 108.5t-157.5 33.5h-9q-34 2 -63 2l25 82h498q-57 -137 -106.5 -276t-94.5 -286l-133 -428q-11 -33 -31.5 -112.5t-48.5 -202.5l-127 -25q-45 144 -81.5 258t-51.5 158l-189 600q-5 -16 -18 -55
q-74 -225 -127 -401l-162 -535l-127 -25q-29 108 -56.5 203.5t-51.5 171.5l-84 262q-16 50 -44 138q-147 473 -259 473h-4l26 82h582l-25 -82q-6 0 -20.5 -1t-22.5 -1q-99 0 -144.5 -32t-45.5 -102q0 -65 61 -263v-1l168 -534l182 579q29 93 59.5 203t61.5 234l123 28
q31 -115 64.5 -230t70.5 -231z" />
    <glyph glyph-name="X" unicode="X" horiz-adv-x="1223" 
d="M594 1305l-25 -84q-58 -8 -84 -26.5t-26 -51.5q0 -27 26.5 -80t81.5 -137l70 -107l70 109q51 78 77.5 132t26.5 79q0 36 -26.5 55t-88.5 27l25 84h491l-26 -84q-152 -16 -317 -258l-11 -17l-158 -227l162 -248q13 -20 38 -59q212 -328 329 -328h8l-25 -84h-555l27 84h10
q67 0 99 20.5t32 63.5q0 24 -23 73.5t-65 114.5l-135 213l-137 -213q-43 -69 -63.5 -114.5t-20.5 -73.5q0 -43 34 -63.5t105 -20.5h10l-24 -84h-516l25 84q120 4 255 204q24 35 37 54l228 328l-138 211q-12 19 -35 54q-180 282 -352 286l25 84h559z" />
    <glyph glyph-name="Y" unicode="Y" horiz-adv-x="1053" 
d="M635 651v-319q0 -165 40 -203t170 -47l-26 -82h-559l27 82q106 12 140 48.5t34 184.5v50v253l-168 277q-122 201 -185.5 258t-142.5 68l27 84h602l-25 -84q-12 0 -30.5 1t-24.5 1q-79 0 -112 -19.5t-33 -64.5q0 -27 20 -72t78 -141l102 -170q78 134 146.5 268.5
t132.5 277.5q15 3 45 8q131 21 203 36q-149 -205 -269.5 -387t-191.5 -308z" />
    <glyph glyph-name="Z" unicode="Z" horiz-adv-x="1098" 
d="M999 1305l52 -109q-200 -257 -389.5 -524.5t-372.5 -552.5h293q178 0 241.5 52.5t104.5 215.5h110l-94 -387h-842l-55 109q214 272 405.5 541t360.5 536h-276q-178 0 -241.5 -53t-102.5 -209h-111l90 381h827z" />
    <glyph glyph-name="bracketleft" unicode="[" horiz-adv-x="612" 
d="M588 1444l-49 -113h-168q-7 -135 -10 -287.5t-3 -441.5q0 -276 3 -427.5t10 -287.5h217l-49 -110h-330q7 221 10.5 428t3.5 397q0 183 -3.5 395t-10.5 446z" />
    <glyph glyph-name="backslash" unicode="\" horiz-adv-x="608" 
d="M102 1305l574 -1495h-115l-573 1495h114z" />
    <glyph glyph-name="bracketright" unicode="]" horiz-adv-x="612" 
d="M23 -223l51 112l168 1q5 101 7.5 217.5t2.5 336.5v174v168q0 216 -2.5 330t-8.5 215h-218l51 113h329q-8 -255 -12 -457t-4 -369q0 -161 4 -367t12 -474h-380z" />
    <glyph glyph-name="asciicircum" unicode="^" horiz-adv-x="2048" 
d="M926 1462h194l512 -565h-98l-512 420l-514 -420h-96z" />
    <glyph glyph-name="underscore" unicode="_" 
d="M0 -340h1024v-143h-1024v143z" />
    <glyph glyph-name="grave" unicode="`" 
d="M694 1067h-71l-332 201q-37 22 -53.5 43t-16.5 45q0 32 22.5 54t55.5 22q25 0 48.5 -13.5t58.5 -50.5z" />
    <glyph glyph-name="a" unicode="a" horiz-adv-x="926" 
d="M578 406v102l-183 -78q-94 -41 -136 -85t-42 -101q0 -60 40 -96.5t105 -36.5q47 0 91.5 19t74.5 52q27 29 38.5 69.5t11.5 133.5v21zM748 346v-74q0 -117 27 -149.5t104 -40.5l-25 -82h-274v125q-60 -77 -126.5 -113.5t-146.5 -36.5q-118 0 -193 67.5t-75 172.5
q0 89 56 150t218 133l265 116v62q0 82 -32 110.5t-126 28.5q-63 0 -138 -9.5t-176 -31.5l60 141q90 22 161.5 32.5t123.5 10.5q84 0 143.5 -19.5t101.5 -61.5q28 -30 40 -75.5t12 -148.5v-69v-238z" />
    <glyph glyph-name="b" unicode="b" horiz-adv-x="1047" 
d="M317 535v-275q0 -106 31 -131t129 -25q160 0 244 96t84 279q0 173 -69 269t-191 96t-175 -68.5t-53 -240.5zM-29 1372l27 80q77 18 159.5 42t169.5 54q-4 -111 -7 -218t-3 -210v-278q64 58 134 87t143 29q178 0 286.5 -119t108.5 -315q0 -249 -157.5 -399t-423.5 -150
q-76 0 -131.5 9.5t-79.5 25.5q-29 19 -41.5 56t-12.5 110q0 23 2 92t2 115v795q0 121 -32.5 153.5t-143.5 40.5z" />
    <glyph glyph-name="c" unicode="c" horiz-adv-x="838" 
d="M764 778q-74 27 -140.5 40t-131.5 13q-129 0 -184.5 -83t-55.5 -269q0 -180 80.5 -265t251.5 -85q39 0 90 5t125 16l-47 -150q-70 -13 -119 -19t-88 -6q-220 0 -347.5 127.5t-127.5 343.5q0 236 135.5 373t369.5 137q29 0 65.5 -3t92.5 -11z" />
    <glyph glyph-name="d" unicode="d" horiz-adv-x="1100" 
d="M745 199v370q0 147 -61 218t-186 71q-112 0 -185 -98t-73 -254q0 -175 85 -281t222 -106q58 0 108.5 20.5t89.5 59.5zM918 1165v-860q0 -134 28.5 -174.5t106.5 -48.5l-25 -82h-270l-6 90q-57 -58 -123.5 -86.5t-145.5 -28.5q-180 0 -300 133t-120 336q0 226 129 369
t328 143q62 0 118.5 -15t106.5 -46v281q0 121 -32.5 153.5t-143.5 40.5l27 80q100 24 177 47.5t150 50.5q-2 -105 -3.5 -200.5t-1.5 -182.5z" />
    <glyph glyph-name="e" unicode="e" horiz-adv-x="963" 
d="M610 514q-42 0 -139 -4.5t-221 -11.5q0 -6 -1 -17.5t-1 -17.5q0 -151 92 -239.5t252 -88.5q54 0 118 9t150 28l-45 -147q-57 -24 -126.5 -37t-143.5 -13q-219 0 -346 128.5t-127 351.5q0 222 128 362.5t328 140.5q166 0 263.5 -112t97.5 -305v-27h-279zM258 600l184 8
q32 2 84 3q180 5 181 67q0 70 -62 125t-149 55q-97 0 -160 -68t-78 -190z" />
    <glyph glyph-name="f" unicode="f" horiz-adv-x="690" 
d="M731 1399q-27 1 -55.5 1.5t-79.5 0.5q-75 0 -110 -9t-54 -30q-18 -22 -25.5 -66t-7.5 -184v-178h258l-39 -109h-219v-444q0 -199 42 -245t175 -54l-24 -82h-510l25 82q71 9 95.5 50t24.5 192v501h-143l39 109h104v133q0 273 106 376t369 103q31 0 47 -0.5t29 -1.5z" />
    <glyph glyph-name="g" unicode="g" horiz-adv-x="909" 
d="M252 -25q-26 -28 -38.5 -59t-12.5 -66q0 -87 71.5 -133.5t208.5 -46.5q140 0 220.5 46t80.5 124q0 61 -46 90t-144 29h-219q-33 0 -63 4t-58 12zM627 606q0 136 -41.5 189t-139.5 53q-103 0 -141.5 -50t-38.5 -192q0 -141 42.5 -191t148.5 -50q95 0 132.5 52t37.5 189z
M927 930l-44 -125q-41 0 -76 1.5t-66 4.5q24 -43 34.5 -87.5t10.5 -94.5q0 -167 -107.5 -275t-277.5 -108q-13 0 -25 0.5t-23 1.5q-38 -25 -52 -41.5t-14 -34.5q0 -31 36.5 -46t110.5 -15q87 0 188 1q30 1 37 1q123 0 186.5 -56t63.5 -163q0 -154 -145 -259.5t-367 -105.5
q-163 0 -256.5 68t-93.5 186q0 58 29.5 115.5t89.5 115.5q-28 21 -42.5 43.5t-14.5 46.5q0 64 119 151q21 15 32 24q-78 35 -117 104t-39 172q0 180 102 291.5t265 111.5q50 0 99 -14t102 -45q61 6 125.5 14t129.5 17z" />
    <glyph glyph-name="h" unicode="h" horiz-adv-x="1157" 
d="M369 1147v-369q64 88 146.5 133t174.5 45q69 0 126 -25t91 -71q29 -39 41.5 -98.5t12.5 -218.5v-260q0 -125 27 -159t106 -42l-27 -82h-438l24 82q83 6 110.5 48.5t27.5 207.5v192q0 159 -41 222t-136 63q-120 0 -182.5 -85.5t-62.5 -250.5v-215q0 -113 32.5 -146
t132.5 -36l-24 -82h-459l27 82q71 9 96 51.5t25 190.5v854q0 121 -33 153.5t-143 40.5l26 80q77 17 158 41t169 55q-1 -71 -3 -188q-4 -169 -4 -213z" />
    <glyph glyph-name="i" unicode="i" horiz-adv-x="588" 
d="M387 530v-266q0 -115 32 -147t131 -35l-24 -82h-458l27 82q70 9 95 52t25 190v301q0 119 -28 147t-119 33l26 82q68 11 141.5 29t155.5 42q-2 -108 -3 -209.5t-1 -218.5zM205 1036q0 12 1 36q5 152 21 163q25 15 62.5 26t60.5 11q26 0 37.5 -20.5t11.5 -65.5
q0 -65 -35.5 -95t-158.5 -55z" />
    <glyph glyph-name="j" unicode="j" horiz-adv-x="506" 
d="M358 494v-529q0 -153 -89.5 -261.5t-270.5 -172.5v66q106 47 147 155.5t41 388.5v484q0 119 -27 146.5t-120 33.5l24 82q66 12 143 30t165 41q-6 -131 -9.5 -250t-3.5 -214zM182 1036q1 22 2 59q4 130 19 140q25 15 62.5 26t60.5 11q26 0 37.5 -20t11.5 -64
q0 -68 -36 -98t-157 -54z" />
    <glyph glyph-name="k" unicode="k" horiz-adv-x="1053" 
d="M367 1120v-522q123 63 188.5 117.5t65.5 93.5q0 24 -16 33.5t-68 9.5l26 82h422l-25 -82q-115 -4 -357 -193q-34 -26 -52 -41q106 -51 239 -281q71 -122 113 -177q33 -42 65.5 -58.5t87.5 -19.5l-24 -82h-244q-36 60 -99 167q-219 372 -322 411v-277q0 -149 32 -182.5
t131 -36.5l-22 -82h-457l27 82q71 9 96 51.5t25 190.5v854q0 121 -33 153.5t-143 40.5l26 80q77 17 158 41t169 55q-4 -111 -6.5 -217.5t-2.5 -210.5z" />
    <glyph glyph-name="l" unicode="l" horiz-adv-x="569" 
d="M369 1120v-819q0 -149 32.5 -182.5t132.5 -36.5l-24 -82h-459l27 82q71 9 96 51.5t25 190.5v854q0 121 -33 153.5t-143 40.5l26 80q77 18 159.5 42t169.5 54q-4 -111 -6.5 -217.5t-2.5 -210.5z" />
    <glyph glyph-name="m" unicode="m" horiz-adv-x="1706" 
d="M373 741q87 111 172.5 163t181.5 52q86 0 140 -50t71 -146q76 97 159.5 146.5t172.5 49.5q126 0 181.5 -72t55.5 -241q0 -18 -1 -64.5t-1 -74.5v-221q0 -125 27.5 -159t105.5 -42l-24 -82h-432l26 81q81 6 108 48.5t27 208.5v180q0 193 -31 238t-116 45
q-126 0 -189 -89.5t-63 -269.5v-178q0 -110 31 -145t118 -37l-24 -82h-451l28 82q79 5 106.5 47.5t27.5 208.5v203q0 170 -31.5 215t-113.5 45q-130 0 -193 -98t-63 -300v-139q0 -110 31 -145t118 -37l-24 -82h-434l25 82q70 9 95 52t25 190v301q0 119 -27 146.5t-118 33.5
l24 82q76 13 145 30.5t134 40.5v-217z" />
    <glyph glyph-name="n" unicode="n" horiz-adv-x="1176" 
d="M375 762q65 94 151 144t181 50q70 0 127.5 -25t91.5 -71q27 -37 39 -94t12 -193v-30v-260q0 -125 27.5 -159t105.5 -42l-27 -82h-438l27 82q80 5 107.5 47.5t27.5 208.5v192q0 159 -40.5 222t-135.5 63q-120 0 -182 -85t-62 -251v-215q0 -115 32 -147t131 -35l-24 -82
h-458l27 82q70 9 95 52t25 190v301q0 119 -28 147t-119 33l26 82q67 10 136.5 27.5t144.5 43.5v-196z" />
    <glyph glyph-name="o" unicode="o" horiz-adv-x="1047" 
d="M795 410q0 241 -70 328t-242 87q-129 0 -179 -62.5t-50 -240.5q0 -236 70 -322.5t243 -86.5q127 0 177.5 62.5t50.5 234.5zM565 958q194 0 303 -120t109 -334q0 -245 -132 -386t-362 -141q-196 0 -304.5 118t-108.5 333q0 248 132 389t363 141z" />
    <glyph glyph-name="p" unicode="p" horiz-adv-x="1110" 
d="M383 416v-295l55 -6q35 -3 64.5 -4.5t54.5 -1.5q154 0 228.5 92.5t74.5 283.5q0 173 -55.5 258.5t-167.5 85.5q-131 0 -192.5 -100t-61.5 -313zM383 -23v-139q0 -130 49 -172t217 -53l-24 -82h-574l27 82q80 6 107.5 48.5t27.5 178.5v795q0 111 -27.5 137.5t-119.5 32.5
l24 82q67 10 136.5 27.5t144.5 43.5v-182q69 93 147 136.5t172 43.5q157 0 253.5 -119t96.5 -315q0 -140 -58 -257.5t-173 -209.5q-52 -42 -130.5 -60t-234.5 -18h-61z" />
    <glyph glyph-name="q" unicode="q" horiz-adv-x="1026" 
d="M705 651v49v60v74h-33q-18 0 -69.5 3t-84.5 3q-142 0 -206 -88.5t-64 -282.5q0 -179 66.5 -278t185.5 -99q95 0 150 55t55 152v135v217zM877 387v-428q0 -223 26.5 -281.5t102.5 -64.5l-25 -82h-508l25 82q125 9 166 56.5t41 250.5v57v107q-54 -54 -118 -81.5t-134 -27.5
q-171 0 -280.5 124t-109.5 317q0 125 52 242.5t141 195.5q64 56 136.5 80t180.5 24q21 0 101 -3t139 -3q12 0 39.5 1t42.5 1q-8 -195 -13 -352.5t-5 -214.5z" />
    <glyph glyph-name="r" unicode="r" horiz-adv-x="735" 
d="M215 324v272q0 128 -26.5 156t-120.5 32l26 84q71 11 139 28.5t134 41.5v-252q40 131 131 199.5t231 72.5l-70 -192q-11 2 -24 3t-37 1q-115 0 -163 -87t-48 -296v-123q0 -116 35.5 -148.5t148.5 -33.5l-24 -82h-477l25 82q71 9 95.5 51.5t24.5 190.5z" />
    <glyph glyph-name="s" unicode="s" horiz-adv-x="842" 
d="M203 348v-45q0 -124 46 -170.5t165 -46.5q87 0 131.5 34.5t44.5 100.5q0 88 -187 174q-42 20 -65 31q-157 74 -198.5 126t-41.5 134q0 124 89 197t241 73q30 0 117 -11t143 -11h25v-229l-97 -52q0 7 1 17.5t1 15.5q0 88 -44.5 126t-147.5 38q-79 0 -119.5 -31t-40.5 -90
q0 -49 32.5 -81.5t156.5 -88.5q13 -6 38 -17q265 -120 265 -282q0 -128 -94.5 -206.5t-249.5 -78.5q-62 0 -167 11.5t-143 14.5v300z" />
    <glyph glyph-name="t" unicode="t" horiz-adv-x="674" 
d="M360 934h146q14 0 58.5 2t102.5 6l-40 -118q-57 -4 -101 -6.5t-57 -2.5h-109v-493q0 -133 34.5 -164t137.5 -31q30 0 61.5 2t63.5 6l-47 -137q-46 -8 -79 -11t-62 -3q-157 0 -219 68.5t-62 350.5v412h-149l35 94q86 23 126 80.5t48 171.5l112 41v-268z" />
    <glyph glyph-name="u" unicode="u" horiz-adv-x="1143" 
d="M375 569v-166q0 -160 40.5 -221t137.5 -61q103 0 162 65t59 181v266q0 112 -32 144.5t-133 35.5l26 82q80 12 158 26t157 31q-3 -72 -4.5 -147t-1.5 -195v-354q0 -111 24 -138.5t99 -35.5l-25 -82h-266v137q-66 -82 -140 -121t-163 -39q-70 0 -126.5 25t-90.5 72
q-29 38 -41 97t-12 220v205q0 144 -26 178.5t-101 38.5l26 81q71 10 140 26t137 38q-2 -92 -3 -182t-1 -207z" />
    <glyph glyph-name="v" unicode="v" horiz-adv-x="963" 
d="M446 934l-24 -82q-56 -9 -84.5 -29t-28.5 -51q0 -15 7 -38.5t34 -90.5l176 -453l152 408q24 63 33.5 99t9.5 63q0 48 -30.5 68t-114.5 24l26 82h336q-106 -234 -200.5 -467t-178.5 -469q-38 -8 -69.5 -13.5t-61.5 -9.5l-241 620q-5 12 -14 35q-77 196 -196 222l25 82h444
z" />
    <glyph glyph-name="w" unicode="w" horiz-adv-x="1497" 
d="M432 934l-25 -82q-57 -4 -78.5 -19t-21.5 -49q0 -31 41 -143q16 -43 25 -68l123 -356l172 381q16 37 24 71t8 62q0 65 -30.5 92t-106.5 27l-10.5 1t-20.5 1l25 82h455l-27 -82q-67 -8 -91 -30t-24 -72q0 -26 11.5 -68t42.5 -129l118 -338l140 344q35 90 51 142t16 77
q0 39 -32 56.5t-103 17.5l25 82h344q-125 -226 -228 -458.5t-186 -475.5l-115 -25q-26 91 -49 164.5t-39 117.5l-110 302l-144 -301q-18 -40 -45.5 -108.5t-56.5 -149.5l-119 -25q-167 579 -240 728t-151 149h-12l24 82h420z" />
    <glyph glyph-name="x" unicode="x" horiz-adv-x="993" 
d="M455 934l-25 -76q-34 -2 -53 -12t-19 -27q0 -39 58 -111l6 -8l74 -94l61 88q9 14 25 36q43 59 43 87q-1 18 -19.5 28t-54.5 13l22 76h361l-25 -82q-66 -3 -122 -45.5t-140 -161.5l-86 -123l209 -270l2 -3q130 -165 229 -167l-26 -82h-473l24 78h15q49 0 74.5 11t25.5 32
q0 35 -59 112l-7 9l-112 143l-92 -137q-9 -13 -25 -35q-45 -62 -45 -88q0 -23 24.5 -35t69.5 -12l-22 -78h-385l24 82q69 4 125.5 48t143.5 169l118 168l-170 221q-77 101 -123 132t-101 32l26 82h424z" />
    <glyph glyph-name="y" unicode="y" horiz-adv-x="975" 
d="M485 934l-24 -82h-29q-53 0 -77.5 -15t-24.5 -49t49 -159l2 -4l166 -420l112 303q51 135 66.5 188t15.5 80q0 39 -29 57.5t-91 18.5h-11l25 82h326q-70 -145 -121 -261.5t-78 -189.5l-238 -626q-76 -201 -154 -263.5t-220 -62.5q-27 0 -49.5 2t-43.5 6l54 133
q13 -1 28.5 -2.5t18.5 -1.5q115 0 167.5 50.5t123.5 250.5l-252 645l-2 4q-91 230 -195 234l25 82h460z" />
    <glyph glyph-name="z" unicode="z" horiz-adv-x="858" 
d="M731 934l37 -86q-144 -188 -267.5 -374t-228.5 -370h222q84 0 125.5 42t70.5 165h90l-71 -311h-621l-41 92q135 181 258.5 365t237.5 372h-183q-84 0 -119.5 -29.5t-64.5 -127.5h-90l59 262h586z" />
    <glyph glyph-name="braceleft" unicode="{" 
d="M848 1516v-53q-136 -2 -186 -55t-50 -210v-141q0 -227 -59 -308.5t-217 -113.5q159 -32 217.5 -113.5t58.5 -308.5v-141q0 -157 49.5 -209t186.5 -54v-53h-10q-219 0 -301 74t-82 272v207q0 161 -59 221.5t-218 73.5v64q161 13 219 73.5t58 221.5v206q0 199 82 273
t301 74h10z" />
    <glyph glyph-name="bar" unicode="|" 
d="M438 1565h150v-2048h-150v2048z" />
    <glyph glyph-name="braceright" unicode="}" 
d="M176 1516h10q220 0 302.5 -74t82.5 -273v-206q0 -161 58 -221.5t219 -73.5v-64q-161 -13 -219 -73.5t-58 -221.5v-207q0 -198 -82.5 -272t-302.5 -74h-10v53q137 2 186.5 54.5t49.5 208.5v141q0 227 58.5 308.5t217.5 113.5q-158 32 -217 113.5t-59 308.5v141
q0 157 -50 210t-186 55v53z" />
    <glyph glyph-name="asciitilde" unicode="~" horiz-adv-x="1706" 
d="M1530 770v-156q-104 -72 -199 -106.5t-190 -34.5q-93 0 -256 58q-22 8 -34 12l-15 5q-176 60 -273 60q-84 0 -175 -37t-210 -120v155q106 72 202 108t185 36q62 0 127.5 -13.5t163.5 -48.5q16 -5 47 -17q159 -57 240 -57q88 0 179.5 37t207.5 119z" />
    <glyph glyph-name="Euro" 
d="M51 555h131q-2 37 -3 57t-1 37q0 19 1 41.5t3 64.5l-145 1l24 86h134q17 108 57 194t102 150q74 75 171.5 108t254.5 33q44 0 89.5 -4t95.5 -12q0 -11 -1 -80t-1 -127q0 -14 2 -96l-95 -33q0 119 -44.5 166t-155.5 47q-63 0 -121.5 -15.5t-93.5 -39.5
q-36 -26 -54.5 -92.5t-23.5 -198.5h409l-26 -86h-385v-72q0 -34 1.5 -66.5t4.5 -62.5h342l-27 -86h-305q31 -171 119.5 -254.5t239.5 -83.5q50 0 108.5 13t128.5 40l-16 -141q-76 -34 -142 -51t-129 -17q-196 0 -331 132.5t-174 361.5h-168z" />
    <glyph glyph-name="Euro" unicode="&#x20ac;" 
d="M51 555h131q-2 37 -3 57t-1 37q0 19 1 41.5t3 64.5l-145 1l24 86h134q17 108 57 194t102 150q74 75 171.5 108t254.5 33q44 0 89.5 -4t95.5 -12q0 -11 -1 -80t-1 -127q0 -14 2 -96l-95 -33q0 119 -44.5 166t-155.5 47q-63 0 -121.5 -15.5t-93.5 -39.5
q-36 -26 -54.5 -92.5t-23.5 -198.5h409l-26 -86h-385v-72q0 -34 1.5 -66.5t4.5 -62.5h342l-27 -86h-305q31 -171 119.5 -254.5t239.5 -83.5q50 0 108.5 13t128.5 40l-16 -141q-76 -34 -142 -51t-129 -17q-196 0 -331 132.5t-174 361.5h-168z" />
    <glyph glyph-name="nonbreakingspace" unicode="&#xa0;" 
 />
    <glyph glyph-name="exclamdown" unicode="&#xa1;" horiz-adv-x="528" 
d="M178 1077v53q0 81 5.5 115.5t17.5 40.5q27 17 65.5 30t55.5 13q24 0 34.5 -19.5t10.5 -68.5q0 -70 -36.5 -103t-152.5 -61zM377 72l-227 -97q27 301 40 621.5t13 323.5q3 36 22.5 55t100.5 53q5 -223 18 -460t33 -496z" />
    <glyph glyph-name="cent" unicode="&#xa2;" 
d="M569 147v289v264v138h-20q-104 0 -158.5 -90t-54.5 -261q0 -143 59 -229t174 -111zM666 961h41q14 -1 45 -4.5t73 -10.5l31 -160q-46 18 -93.5 29.5t-98.5 17.5q-3 -202 -4 -307.5t-1 -195.5v-189h33q31 0 78.5 5.5t122.5 17.5l-47 -144q-62 -10 -104 -15t-74 -5v-53
q0 -7 1.5 -41t2.5 -60l-111 -56q3 58 4.5 95t1.5 52v63q-189 17 -300 140.5t-111 318.5q0 206 110 339t299 155q-1 23 -1.5 49t-0.5 79l108 55q-1 -51 -2.5 -95t-2.5 -80z" />
    <glyph glyph-name="sterling" unicode="&#xa3;" 
d="M883 1135q-88 5 -154 7.5t-121 2.5q-106 0 -152 -44.5t-46 -150.5q0 -21 1.5 -65.5t4.5 -116.5h116q62 0 119.5 4t112.5 12l-45 -135h-299q1 -16 1.5 -34t0.5 -54q0 -143 -26 -248.5t-77 -167.5q69 -18 136.5 -27t134.5 -9q140 0 200 60t62 201l104 27q0 -17 -1 -54
q-3 -216 -7 -343h-903l27 96q91 11 131.5 68.5t40.5 175.5q0 57 -8 223q-3 57 -5 88q-32 0 -86.5 -2.5t-66.5 -3.5l41 129q26 -3 53.5 -4.5t54.5 -1.5q-1 11 -1.5 23.5t-0.5 35.5q0 114 45.5 206.5t145.5 185.5q50 46 112.5 66t180.5 20h165h70z" />
    <glyph glyph-name="currency" unicode="&#xa4;" 
d="M51 555h131q-2 37 -3 57t-1 37q0 19 1 41.5t3 64.5l-145 1l24 86h134q17 108 57 194t102 150q74 75 171.5 108t254.5 33q44 0 89.5 -4t95.5 -12q0 -11 -1 -80t-1 -127q0 -14 2 -96l-95 -33q0 119 -44.5 166t-155.5 47q-63 0 -121.5 -15.5t-93.5 -39.5
q-36 -26 -54.5 -92.5t-23.5 -198.5h409l-26 -86h-385v-72q0 -34 1.5 -66.5t4.5 -62.5h342l-27 -86h-305q31 -171 119.5 -254.5t239.5 -83.5q50 0 108.5 13t128.5 40l-16 -141q-76 -34 -142 -51t-129 -17q-196 0 -331 132.5t-174 361.5h-168z" />
    <glyph glyph-name="yen" unicode="&#xa5;" horiz-adv-x="1034" 
d="M743 903h224v-86h-277l-94 -164v-35h371v-86h-371v-200q0 -165 40 -203t170 -47l-26 -82h-536l24 82q107 12 140.5 50.5t33.5 195.5v37v167h-368v86h368l-116 199h-252v86h198l-59 97q-8 12 -23 37q-114 188 -210 190l22 78h520l-22 -78h-29q-76 0 -109.5 -20.5
t-33.5 -65.5q0 -43 95 -205l9 -16l105 -181q96 173 170.5 314.5t128.5 251.5q51 5 104.5 15.5t106.5 25.5q-82 -113 -158 -223.5t-146 -219.5z" />
    <glyph glyph-name="brokenbar" unicode="&#xa6;" 
d="M438 408h150v-758h-150v758zM438 1432h150v-758h-150v758z" />
    <glyph glyph-name="section" unicode="&#xa7;" 
d="M551 231q83 35 127.5 98t44.5 144q0 85 -56.5 141t-203.5 111q-83 -36 -127.5 -98.5t-44.5 -143.5q0 -83 54 -137.5t206 -114.5zM815 1102l-94 -45q-3 89 -42.5 127.5t-129.5 38.5q-81 0 -132.5 -43t-51.5 -111t38.5 -114.5t133.5 -90.5q213 -96 278.5 -174.5
t65.5 -195.5q0 -107 -62.5 -188.5t-175.5 -121.5q86 -45 130 -116.5t44 -165.5q0 -137 -98 -219t-264 -82q-5 0 -101 9t-190 14v288l96 47v-22q0 -118 51 -172t160 -54q81 0 131.5 44.5t50.5 115.5t-40 121t-138 96q-217 104 -276.5 179t-59.5 188q0 107 64 190t176 121
q-87 46 -130.5 114t-43.5 158q0 130 94 209.5t248 79.5q27 0 117 -9t151 -13v-203z" />
    <glyph glyph-name="dieresis" unicode="&#xa8;" 
d="M690 1333q43 0 74 -30.5t31 -73.5q0 -46 -30 -76.5t-75 -30.5q-44 0 -75 31t-31 76q0 42 31.5 73t74.5 31zM334 1333q43 0 74.5 -31t31.5 -73q0 -46 -30.5 -76.5t-75.5 -30.5q-44 0 -74.5 31t-30.5 76q0 42 31 73t74 31z" />
    <glyph glyph-name="copyright" unicode="&#xa9;" horiz-adv-x="1683" 
d="M1122 1098h37l2 -316h-43q-32 135 -103 204t-177 69q-119 0 -179.5 -93.5t-60.5 -277.5q0 -187 66.5 -284t193.5 -97q84 0 153.5 44t127.5 132l39 -26q-61 -105 -148 -158t-199 -53q-173 0 -292 124t-119 304q0 183 118.5 307.5t290.5 124.5q75 0 149.5 -33t80.5 -33
q27 0 42 14.5t21 47.5zM844 1305q-123 0 -238 -49t-203 -138q-88 -90 -134 -202.5t-46 -237.5q0 -127 46.5 -239t136.5 -201q91 -90 201.5 -136.5t234.5 -46.5q126 0 237 46.5t199 136.5q89 90 136.5 204t47.5 236q0 123 -48 241t-134 203q-86 86 -201 134.5t-235 48.5z
M844 1391q138 0 269 -54.5t230 -152.5q100 -99 154.5 -232t54.5 -274q0 -140 -53.5 -269.5t-155.5 -232.5q-99 -101 -228 -155t-273 -54q-142 0 -270 53.5t-232 155.5q-103 102 -156 229t-53 273q0 141 53.5 270t155.5 232q100 101 230.5 156t273.5 55z" />
    <glyph glyph-name="ordfeminine" unicode="&#xaa;" horiz-adv-x="694" 
d="M434 934v72l-137 -56q-70 -28 -101.5 -59t-31.5 -72t29.5 -66.5t78.5 -25.5q35 0 69 13.5t56 35.5q20 21 28.5 50t8.5 94v14zM561 891v-51q0 -82 20.5 -105t77.5 -29l-18 -57h-207v88q-42 -53 -92 -78.5t-111 -25.5q-89 0 -145.5 47t-56.5 121q0 62 42.5 104t164.5 92
l198 82v43q0 58 -23.5 78.5t-95.5 20.5q-44 0 -98.5 -6.5t-136.5 -22.5l45 98q67 15 120.5 23t92.5 8q62 0 107 -14t77 -43q21 -21 30 -54.5t9 -103.5v-47v-168z" />
    <glyph glyph-name="guillemotleft" unicode="&#xab;" horiz-adv-x="930" 
d="M848 782l-240 -315l240 -315h-168l-240 315l238 315h170zM479 782l-239 -315l239 -315h-168l-239 315l237 315h170z" />
    <glyph glyph-name="logicalnot" unicode="&#xac;" horiz-adv-x="1706" 
d="M254 860h1198v-502h-137v363h-1061v139z" />
    <glyph glyph-name="sfthyphen" unicode="&#xad;" horiz-adv-x="520" 
d="M496 559l-68 -156h-403l67 156h404z" />
    <glyph glyph-name="registered" unicode="&#xae;" horiz-adv-x="1683" 
d="M738 721q13 -1 28 -1.5t35 -0.5q105 0 163 45t58 127q0 72 -50 116t-134 44q-51 0 -76 -17.5t-25 -52.5zM467 1094h397q144 0 231 -54t87 -141q0 -83 -66 -131.5t-219 -75.5q95 -28 145 -76.5t68 -130.5q1 -9 3 -28q11 -125 67 -125q31 0 47 33.5t16 97.5h45v-19
q0 -84 -41 -129t-119 -45q-49 0 -84 16t-51 46q-20 37 -22 110t-8 97q-19 71 -66.5 105t-130.5 34h-29v-246q0 -51 25.5 -72t93.5 -27v-44h-389v44q69 4 95 25.5t26 73.5v516q0 53 -26 74.5t-95 26.5v45zM844 1305q-123 0 -238 -49t-203 -138q-88 -90 -134 -202.5
t-46 -237.5q0 -127 46.5 -239t136.5 -201q89 -90 199.5 -136.5t236.5 -46.5q125 0 237 47t199 136q88 90 135 203t47 237q0 125 -47.5 242t-132.5 202q-86 86 -201 134.5t-235 48.5zM844 1391q140 0 273 -56t233 -157q97 -99 149.5 -230.5t52.5 -275.5q0 -139 -56 -270
t-161 -234q-100 -99 -228 -150t-276 -51q-134 0 -261.5 54.5t-229.5 154.5q-102 101 -155.5 229t-53.5 273q0 142 53 270.5t154 231.5q100 101 231.5 156t274.5 55z" />
    <glyph glyph-name="macron" unicode="&#xaf;" 
d="M776 1292v-131h-528v131h528z" />
    <glyph glyph-name="degree" unicode="&#xb0;" horiz-adv-x="674" 
d="M338 1362q-81 0 -138 -56t-57 -137t57 -138.5t138 -57.5t136.5 57.5t55.5 138.5t-55.5 137t-136.5 56zM338 1456q118 0 202.5 -84.5t84.5 -204.5q0 -119 -84 -202.5t-205 -83.5t-204 83t-83 203t85 204.5t204 84.5z" />
    <glyph glyph-name="plusminus" unicode="&#xb1;" horiz-adv-x="1706" 
d="M254 170h1198v-141h-1198v141zM782 1192h142v-340h528v-139h-528v-340h-142v340h-528v139h528v340z" />
    <glyph glyph-name="twosuperior" unicode="&#xb2;" horiz-adv-x="676" 
d="M606 631l-35 -111h-522l-4 88q240 187 337 299t97 199q0 58 -39.5 86.5t-120.5 28.5q-57 0 -124 -15.5t-142 -46.5l56 117q65 20 126 30.5t115 10.5q124 0 193 -51t69 -140q0 -86 -73.5 -178.5t-366.5 -324.5q139 0 428 8h6z" />
    <glyph glyph-name="threesuperior" unicode="&#xb3;" horiz-adv-x="676" 
d="M43 410l43 69q181 26 292 111.5t111 193.5q0 63 -39.5 93t-121.5 30q-48 0 -97 -11t-106 -36l33 113q49 18 95.5 27.5t90.5 9.5q9 0 22 -1t38 -3q27 30 41 61.5t14 62.5q0 43 -31 63.5t-94 20.5q-55 0 -124 -19.5t-173 -66.5l53 125q71 32 139.5 48t132.5 16
q98 0 157 -40.5t59 -105.5q0 -46 -25 -87.5t-84 -90.5q69 -21 106 -69.5t37 -116.5q0 -149 -157.5 -261t-411.5 -136z" />
    <glyph glyph-name="acute" unicode="&#xb4;" 
d="M401 1067h-71l288 301q35 37 58.5 50.5t48.5 13.5q33 0 55.5 -22t22.5 -54q0 -23 -16.5 -44t-53.5 -44z" />
    <glyph glyph-name="mu" unicode="&#xb5;" horiz-adv-x="1169" 
d="M166 195q-33 -143 -64 -355q-37 -260 -116 -260q-43 0 -65.5 24.5t-22.5 69.5q0 44 70 277t110 422l108 512h168l-100 -475q-9 -40 -13.5 -74.5t-4.5 -59.5q0 -70 41.5 -108.5t119.5 -38.5q97 0 154 54.5t82 172.5l112 529h173l-115 -532q-9 -43 -14 -75.5t-5 -52.5
q0 -48 26.5 -74t76.5 -26q44 0 81 25t58 69q13 27 27 73q17 56 39 56q9 0 15.5 -8t6.5 -21q0 -34 -13.5 -88t-35.5 -100q-39 -78 -92.5 -117t-122.5 -39q-81 0 -125.5 55t-44.5 154v13q-52 -115 -123 -168.5t-172 -53.5q-95 0 -151 56t-68 164z" />
    <glyph glyph-name="paragraph" unicode="&#xb6;" 
d="M958 1479v-86h-120v-1393h-111v1393h-176v-1393h-113v782q-170 8 -271 102.5t-101 245.5q0 157 107.5 253t285.5 96h499z" />
    <glyph glyph-name="glyph122" unicode="&#xb7;" horiz-adv-x="512" 
d="M256 786q52 0 89.5 -37t37.5 -90q0 -51 -38 -89t-89 -38t-89 38.5t-38 88.5q0 52 37.5 89.5t89.5 37.5z" />
    <glyph glyph-name="cedilla" unicode="&#xb8;" 
d="M520 0v-112q23 3 39.5 4t30.5 2q78 0 127 -46.5t49 -119.5q0 -84 -58 -130.5t-163 -46.5q-66 0 -138.5 20t-156.5 60l33 78q62 -35 123.5 -54.5t111.5 -19.5q53 0 81 24t28 69q0 40 -27 63t-74 23q-16 0 -35 -2t-36 -4v192h65z" />
    <glyph glyph-name="onesuperior" unicode="&#xb9;" horiz-adv-x="676" 
d="M406 1061v-334q0 -107 23 -131t103 -27l-16 -49h-385l16 49q98 3 122 25t24 133v342q0 97 -17 118t-63 21q-15 0 -33.5 -2t-40.5 -6l15 53q76 17 140 32.5t122 30.5q-3 -62 -6.5 -153t-3.5 -102z" />
    <glyph glyph-name="ordmasculine" unicode="&#xba;" horiz-adv-x="784" 
d="M596 936q0 168 -52.5 229.5t-181.5 61.5q-96 0 -134 -44t-38 -167q0 -167 52.5 -227t183.5 -60q95 0 132.5 44t37.5 163zM424 1321q146 0 227.5 -84.5t81.5 -235.5q0 -171 -99.5 -269.5t-271.5 -98.5q-146 0 -227.5 82.5t-81.5 232.5q0 174 99 273.5t272 99.5z" />
    <glyph glyph-name="guillemotright" unicode="&#xbb;" horiz-adv-x="930" 
d="M621 782l237 -315l-237 -315h-170l239 315l-239 315h170zM252 782l237 -315l-239 -315h-168l240 315l-240 315h170z" />
    <glyph glyph-name="onequarter" unicode="&#xbc;" horiz-adv-x="1632" 
d="M1401 473v137q-76 -82 -154 -164.5t-157 -164.5h307q0 22 1 64q3 99 3 128zM1499 283q10 0 30 1q41 2 60 4l-35 -91h-53q0 -41 2.5 -87.5t7.5 -103.5l-114 -41v129v103h-346l-41 102q78 81 171 180t222 240l108 24q-4 -117 -7 -232.5t-5 -227.5zM1331 1327l-921 -1352
h-111l922 1352h110zM387 1077v-311q0 -100 22 -122t101 -26l-16 -45h-367l14 45q93 3 116.5 24t23.5 124v319q0 91 -16 111.5t-60 20.5q-12 -1 -45 -5q-16 -2 -27 -3l14 48q57 12 119 26.5t131 33.5q-2 -57 -6 -141q-4 -88 -4 -99z" />
    <glyph glyph-name="onehalf" unicode="&#xbd;" horiz-adv-x="1632" 
d="M1567 102l-35 -102h-498l-4 82q234 178 325 281.5t91 183.5q0 53 -39 79.5t-115 26.5q-56 0 -119.5 -14t-134.5 -43l54 109q61 18 120 28t109 10q118 0 184 -47t66 -131q0 -81 -71 -168t-349 -303q133 0 409 8h7zM1331 1327l-921 -1352h-111l922 1352h110zM387 1077v-311
q0 -100 22 -122t101 -26l-16 -45h-367l14 45q93 3 116.5 24t23.5 124v319q0 91 -16 111.5t-60 20.5q-12 -1 -45 -5q-16 -2 -27 -3l14 48q57 12 119 26.5t131 33.5q-2 -57 -6 -141q-4 -88 -4 -99z" />
    <glyph glyph-name="threequarters" unicode="&#xbe;" horiz-adv-x="1632" 
d="M1401 473v137q-76 -82 -154 -164.5t-157 -164.5h307q0 22 1 64q3 99 3 128zM1499 283q10 0 30 1q41 2 60 4l-35 -91h-53q0 -41 2.5 -87.5t7.5 -103.5l-114 -41v129v103h-346l-41 102q78 81 171 180t222 240l108 24q-4 -117 -7 -232.5t-5 -227.5zM1331 1327l-921 -1352
h-111l922 1352h110zM41 471l41 66q172 23 278.5 102.5t106.5 179.5q0 58 -38 86.5t-116 28.5q-47 0 -95 -10.5t-99 -32.5l31 104q50 18 93.5 26.5t84.5 8.5q17 0 51 -3q4 -1 6 -1q26 29 39.5 59t13.5 58q0 39 -29 58.5t-90 19.5q-56 0 -124.5 -19.5t-159.5 -60.5l51 116
q70 30 135.5 45t124.5 15q93 0 149 -37.5t56 -97.5q0 -44 -23.5 -82.5t-78.5 -83.5q64 -20 99.5 -65.5t35.5 -108.5q0 -140 -151 -244.5t-392 -126.5z" />
    <glyph glyph-name="questiondown" unicode="&#xbf;" horiz-adv-x="743" 
d="M527 -24q-187 7 -297.5 93.5t-110.5 223.5q0 68 30 134t127 185l11 13q110 136 110 202q0 41 -21 76t-65 68l69 26q19 7 35 11t27 4q34 0 65.5 -41t31.5 -97q0 -47 -25 -104t-88 -149q-9 -13 -26 -37q-107 -152 -107 -236q0 -100 89.5 -155t256.5 -58zM326 1079
q0 131 4.5 165.5t15.5 41.5q25 15 66 28t59 13q25 0 36 -18.5t11 -63.5q0 -73 -36.5 -105.5t-155.5 -60.5z" />
    <glyph glyph-name="Agrave" unicode="&#xc0;" horiz-adv-x="1217" 
d="M895 723l90 -258l21 -60q106 -308 243 -323l-24 -82h-484l25 82q59 3 89 24.5t30 59.5q0 25 -7.5 59.5t-21.5 75.5l-47 141h-455l-30 -80q-20 -51 -29.5 -91.5t-9.5 -71.5q0 -64 45.5 -90.5t161.5 -26.5l-25 -82h-492l27 82q48 9 84.5 56.5t85.5 172.5l236 617
q33 88 63.5 180.5t58.5 191.5q44 4 86.5 10.5t85.5 16.5q62 -204 109 -352t84 -252zM774 553l-186 551l-197 -551h383zM792 1446h-71l-332 201q-37 22 -53.5 43t-16.5 45q0 32 22.5 54t55.5 22q25 0 48.5 -13.5t58.5 -50.5z" />
    <glyph glyph-name="Aacute" unicode="&#xc1;" horiz-adv-x="1217" 
d="M895 723l90 -258l21 -60q106 -308 243 -323l-24 -82h-484l25 82q59 3 89 24.5t30 59.5q0 25 -7.5 59.5t-21.5 75.5l-47 141h-455l-30 -80q-20 -51 -29.5 -91.5t-9.5 -71.5q0 -64 45.5 -90.5t161.5 -26.5l-25 -82h-492l27 82q48 9 84.5 56.5t85.5 172.5l236 617
q33 88 63.5 180.5t58.5 191.5q44 4 86.5 10.5t85.5 16.5q62 -204 109 -352t84 -252zM774 553l-186 551l-197 -551h383zM499 1446h-71l288 301q35 37 58.5 50.5t48.5 13.5q33 0 55.5 -22t22.5 -54q0 -23 -16.5 -44t-53.5 -44z" />
    <glyph glyph-name="Acircumflex" unicode="&#xc2;" horiz-adv-x="1217" 
d="M895 723l90 -258l21 -60q106 -308 243 -323l-24 -82h-484l25 82q59 3 89 24.5t30 59.5q0 25 -7.5 59.5t-21.5 75.5l-47 141h-455l-30 -80q-20 -51 -29.5 -91.5t-9.5 -71.5q0 -64 45.5 -90.5t161.5 -26.5l-25 -82h-492l27 82q48 9 84.5 56.5t85.5 172.5l236 617
q33 88 63.5 180.5t58.5 191.5q44 4 86.5 10.5t85.5 16.5q62 -204 109 -352t84 -252zM774 553l-186 551l-197 -551h383zM673 1800l232 -354h-64l-231 207l-231 -207h-64l232 354h126z" />
    <glyph glyph-name="Atilde" unicode="&#xc3;" horiz-adv-x="1217" 
d="M895 723l90 -258l21 -60q106 -308 243 -323l-24 -82h-484l25 82q59 3 89 24.5t30 59.5q0 25 -7.5 59.5t-21.5 75.5l-47 141h-455l-30 -80q-20 -51 -29.5 -91.5t-9.5 -71.5q0 -64 45.5 -90.5t161.5 -26.5l-25 -82h-492l27 82q48 9 84.5 56.5t85.5 172.5l236 617
q33 88 63.5 180.5t58.5 191.5q44 4 86.5 10.5t85.5 16.5q62 -204 109 -352t84 -252zM774 553l-186 551l-197 -551h383zM901 1751q-20 -107 -70.5 -161t-130.5 -54q-14 0 -31 2.5t-38 7.5l-109 29q-14 3 -28.5 4.5t-30.5 1.5q-34 0 -55 -21.5t-34 -68.5h-57
q18 110 68.5 164.5t134.5 54.5q19 0 35.5 -2t29.5 -6l112 -29q17 -4 30 -6t24 -2q36 0 58 20t37 66h55z" />
    <glyph glyph-name="Adieresis" unicode="&#xc4;" horiz-adv-x="1217" 
d="M895 723l90 -258l21 -60q106 -308 243 -323l-24 -82h-484l25 82q59 3 89 24.5t30 59.5q0 25 -7.5 59.5t-21.5 75.5l-47 141h-455l-30 -80q-20 -51 -29.5 -91.5t-9.5 -71.5q0 -64 45.5 -90.5t161.5 -26.5l-25 -82h-492l27 82q48 9 84.5 56.5t85.5 172.5l236 617
q33 88 63.5 180.5t58.5 191.5q44 4 86.5 10.5t85.5 16.5q62 -204 109 -352t84 -252zM774 553l-186 551l-197 -551h383zM788 1712q43 0 74 -30.5t31 -73.5q0 -46 -30 -76.5t-75 -30.5q-44 0 -75 31t-31 76q0 42 31.5 73t74.5 31zM432 1712q43 0 74.5 -31t31.5 -73
q0 -46 -30.5 -76.5t-75.5 -30.5q-44 0 -74.5 31t-30.5 76q0 42 31 73t74 31z" />
    <glyph glyph-name="Aring" unicode="&#xc5;" horiz-adv-x="1217" 
d="M774 553l-186 551l-197 -551h383zM895 723l90 -258l21 -60q106 -308 243 -323l-24 -82h-484l25 82q59 3 89 24.5t30 59.5q0 25 -7.5 59.5t-21.5 75.5l-47 141h-455l-30 -80q-20 -51 -29.5 -91.5t-9.5 -71.5q0 -64 45.5 -90.5t161.5 -26.5l-25 -82h-492l27 82
q48 9 84.5 56.5t85.5 172.5l236 617q33 88 63.5 180.5t58.5 191.5q44 4 86.5 10.5t85.5 16.5q62 -204 109 -352t84 -252zM762 1636q0 62 -42.5 105t-103.5 43q-59 0 -102 -43t-43 -103t42 -102.5t101 -42.5q61 0 104.5 42t43.5 101zM616 1882q103 0 173.5 -71t70.5 -175
q0 -100 -71 -170.5t-173 -70.5t-172.5 70t-70.5 173q0 102 70.5 173t172.5 71z" />
    <glyph glyph-name="AE" unicode="&#xc6;" horiz-adv-x="1698" 
d="M811 1190h-45l-336 -637h381v637zM1548 1305v-299l-106 -29q-6 127 -60.5 178t-183.5 51q-136 0 -177.5 -28.5t-41.5 -157.5v-59v-216h137q103 0 136 25.5t38 93.5l92 25v-418l-92 -20q-7 110 -43.5 146t-146.5 36h-121v-500q71 -10 120.5 -14t90.5 -4q131 0 196.5 63.5
t71.5 196.5l107 39v-414h-912l25 82h6q72 0 99.5 38.5t27.5 141.5v180h-438l-47 -84q-33 -59 -46.5 -97.5t-13.5 -70.5q0 -54 41.5 -79.5t136.5 -28.5l-24 -82h-520l26 84q66 6 115.5 51t140.5 213l320 580q50 92 67 136t17 75q0 38 -27 57.5t-86 26.5l25 82h1050z" />
    <glyph glyph-name="Ccedilla" unicode="&#xc7;" horiz-adv-x="1202" 
d="M1085 961l-112 -33q-2 150 -57 205t-205 55q-80 0 -155 -15.5t-120 -39.5q-74 -43 -119 -165t-45 -284q0 -266 140.5 -409.5t400.5 -143.5q64 0 138 13t163 40l-20 -141q-98 -35 -182 -51.5t-162 -16.5q-303 0 -488.5 186.5t-185.5 487.5q0 168 61.5 305.5t177.5 231.5
q95 75 216.5 108t318.5 33q56 0 114.5 -4t120.5 -12q0 -11 -1 -80t-1 -127q0 -31 0.5 -67t1.5 -76zM749 0v-112q23 3 39.5 4t30.5 2q78 0 127 -46.5t49 -119.5q0 -84 -58 -130.5t-163 -46.5q-66 0 -138.5 20t-156.5 60l33 78q62 -35 123.5 -54.5t111.5 -19.5q53 0 81 24
t28 69q0 40 -27 63t-74 23q-16 0 -35 -2t-36 -4v192h65z" />
    <glyph glyph-name="Egrave" unicode="&#xc8;" horiz-adv-x="1118" 
d="M971 1305v-299l-109 -29q-6 127 -60 178t-184 51q-134 0 -175.5 -28t-41.5 -150v-67v-216h136q100 0 133.5 25.5t40.5 93.5l92 25v-418l-92 -22q-8 111 -44 147.5t-147 36.5h-119v-500q73 -10 121 -14t88 -4q131 0 196.5 63.5t72.5 196.5l108 39v-414h-917l26 82h15
q69 0 93.5 50.5t24.5 242.5v125v297q0 294 -34 355.5t-140 70.5l27 82h889zM743 1446h-71l-332 201q-37 22 -53.5 43t-16.5 45q0 32 22.5 54t55.5 22q25 0 48.5 -13.5t58.5 -50.5z" />
    <glyph glyph-name="Eacute" unicode="&#xc9;" horiz-adv-x="1118" 
d="M971 1305v-299l-109 -29q-6 127 -60 178t-184 51q-134 0 -175.5 -28t-41.5 -150v-67v-216h136q100 0 133.5 25.5t40.5 93.5l92 25v-418l-92 -22q-8 111 -44 147.5t-147 36.5h-119v-500q73 -10 121 -14t88 -4q131 0 196.5 63.5t72.5 196.5l108 39v-414h-917l26 82h15
q69 0 93.5 50.5t24.5 242.5v125v297q0 294 -34 355.5t-140 70.5l27 82h889zM450 1446h-71l288 301q35 37 58.5 50.5t48.5 13.5q33 0 55.5 -22t22.5 -54q0 -23 -16.5 -44t-53.5 -44z" />
    <glyph glyph-name="Ecircumflex" unicode="&#xca;" horiz-adv-x="1118" 
d="M971 1305v-299l-109 -29q-6 127 -60 178t-184 51q-134 0 -175.5 -28t-41.5 -150v-67v-216h136q100 0 133.5 25.5t40.5 93.5l92 25v-418l-92 -22q-8 111 -44 147.5t-147 36.5h-119v-500q73 -10 121 -14t88 -4q131 0 196.5 63.5t72.5 196.5l108 39v-414h-917l26 82h15
q69 0 93.5 50.5t24.5 242.5v125v297q0 294 -34 355.5t-140 70.5l27 82h889zM624 1800l232 -354h-64l-231 207l-231 -207h-64l232 354h126z" />
    <glyph glyph-name="Edieresis" unicode="&#xcb;" horiz-adv-x="1118" 
d="M971 1305v-299l-109 -29q-6 127 -60 178t-184 51q-134 0 -175.5 -28t-41.5 -150v-67v-216h136q100 0 133.5 25.5t40.5 93.5l92 25v-418l-92 -22q-8 111 -44 147.5t-147 36.5h-119v-500q73 -10 121 -14t88 -4q131 0 196.5 63.5t72.5 196.5l108 39v-414h-917l26 82h15
q69 0 93.5 50.5t24.5 242.5v125v297q0 294 -34 355.5t-140 70.5l27 82h889zM739 1712q43 0 74 -30.5t31 -73.5q0 -46 -30 -76.5t-75 -30.5q-44 0 -75 31t-31 76q0 42 31.5 73t74.5 31zM383 1712q43 0 74.5 -31t31.5 -73q0 -46 -30.5 -76.5t-75.5 -30.5q-44 0 -74.5 31
t-30.5 76q0 42 31 73t74 31z" />
    <glyph glyph-name="Igrave" unicode="&#xcc;" horiz-adv-x="631" 
d="M561 1305l-24 -82h-15q-69 0 -94 -52t-25 -245v-123v-299q0 -286 35 -350t142 -72l-25 -82h-485l24 82h15q70 0 94 51.5t24 257.5v109v297q0 292 -34.5 355t-141.5 71l25 82h485zM499 1446h-71l-332 201q-37 22 -53.5 43t-16.5 45q0 32 22.5 54t55.5 22q25 0 48.5 -13.5
t58.5 -50.5z" />
    <glyph glyph-name="Iacute" unicode="&#xcd;" horiz-adv-x="631" 
d="M561 1305l-24 -82h-15q-69 0 -94 -52t-25 -245v-123v-299q0 -286 35 -350t142 -72l-25 -82h-485l24 82h15q70 0 94 51.5t24 257.5v109v297q0 292 -34.5 355t-141.5 71l25 82h485zM206 1446h-71l288 301q35 37 58.5 50.5t48.5 13.5q33 0 55.5 -22t22.5 -54
q0 -23 -16.5 -44t-53.5 -44z" />
    <glyph glyph-name="Icircumflex" unicode="&#xce;" horiz-adv-x="631" 
d="M561 1305l-24 -82h-15q-69 0 -94 -52t-25 -245v-123v-299q0 -286 35 -350t142 -72l-25 -82h-485l24 82h15q70 0 94 51.5t24 257.5v109v297q0 292 -34.5 355t-141.5 71l25 82h485zM380 1800l232 -354h-64l-231 207l-231 -207h-64l232 354h126z" />
    <glyph glyph-name="Idieresis" unicode="&#xcf;" horiz-adv-x="631" 
d="M561 1305l-24 -82h-15q-69 0 -94 -52t-25 -245v-123v-299q0 -286 35 -350t142 -72l-25 -82h-485l24 82h15q70 0 94 51.5t24 257.5v109v297q0 292 -34.5 355t-141.5 71l25 82h485zM495 1712q43 0 74 -30.5t31 -73.5q0 -46 -30 -76.5t-75 -30.5q-44 0 -75 31t-31 76
q0 42 31.5 73t74.5 31zM139 1712q43 0 74.5 -31t31.5 -73q0 -46 -30.5 -76.5t-75.5 -30.5q-44 0 -74.5 31t-30.5 76q0 42 31 73t74 31z" />
    <glyph glyph-name="Eth" unicode="&#xd0;" horiz-adv-x="1434" 
d="M436 262q0 -8 1.5 -54t2.5 -81q83 -14 151 -21.5t116 -7.5q216 0 337 144t121 399q0 256 -133.5 411.5t-349.5 155.5q-143 0 -194.5 -41.5t-51.5 -218.5v-188h365v-101h-365v-397zM131 82h14q70 0 94.5 51.5t24.5 257.5v109v159h-246v101h246v71q0 262 -34 322t-144 70
l27 82q3 -1 12 -1q98 -4 145 -4q96 0 247 7.5t206 7.5q295 0 466 -178.5t171 -481.5q0 -132 -40 -253t-112 -209q-91 -112 -207.5 -158.5t-312.5 -46.5q-73 0 -219 8t-219 8q-33 0 -114 -3q-20 -1 -30 -1z" />
    <glyph glyph-name="Ntilde" unicode="&#xd1;" horiz-adv-x="1417" 
d="M348 379q2 -211 51 -254t222 -43l-27 -82h-526l24 82h17q72 0 98 57t26 267v172v221q0 294 -34 359t-138 65h-10l25 82h278q200 -284 383.5 -532t349.5 -462l-4 613q-2 210 -50.5 253.5t-221.5 45.5l27 82h526l-27 -82h-14q-73 0 -99 -52.5t-26 -244.5v-199v-498
q0 -90 1 -136.5t3 -86.5l-102 -35q-200 291 -388.5 547.5t-365.5 478.5zM1002 1751q-20 -107 -70.5 -161t-130.5 -54q-14 0 -31 2.5t-38 7.5l-109 29q-14 3 -28.5 4.5t-30.5 1.5q-34 0 -55 -21.5t-34 -68.5h-57q18 110 68.5 164.5t134.5 54.5q19 0 35.5 -2t29.5 -6l112 -29
q17 -4 30 -6t24 -2q36 0 58 20t37 66h55z" />
    <glyph glyph-name="Ograve" unicode="&#xd2;" horiz-adv-x="1468" 
d="M1200 651q0 252 -128 385t-370 133q-234 0 -334 -116t-100 -389q0 -261 127 -395t373 -134q235 0 333.5 118t98.5 398zM784 1327q282 0 444.5 -169t162.5 -462q0 -318 -196.5 -519.5t-506.5 -201.5q-286 0 -449 168t-163 463q0 320 197.5 520.5t510.5 200.5zM919 1446
h-71l-332 201q-37 22 -53.5 43t-16.5 45q0 32 22.5 54t55.5 22q25 0 48.5 -13.5t58.5 -50.5z" />
    <glyph glyph-name="Oacute" unicode="&#xd3;" horiz-adv-x="1468" 
d="M1200 651q0 252 -128 385t-370 133q-234 0 -334 -116t-100 -389q0 -261 127 -395t373 -134q235 0 333.5 118t98.5 398zM784 1327q282 0 444.5 -169t162.5 -462q0 -318 -196.5 -519.5t-506.5 -201.5q-286 0 -449 168t-163 463q0 320 197.5 520.5t510.5 200.5zM626 1446
h-71l288 301q35 37 58.5 50.5t48.5 13.5q33 0 55.5 -22t22.5 -54q0 -23 -16.5 -44t-53.5 -44z" />
    <glyph glyph-name="Ocircumflex" unicode="&#xd4;" horiz-adv-x="1468" 
d="M1200 651q0 252 -128 385t-370 133q-234 0 -334 -116t-100 -389q0 -261 127 -395t373 -134q235 0 333.5 118t98.5 398zM784 1327q282 0 444.5 -169t162.5 -462q0 -318 -196.5 -519.5t-506.5 -201.5q-286 0 -449 168t-163 463q0 320 197.5 520.5t510.5 200.5zM800 1800
l232 -354h-64l-231 207l-231 -207h-64l232 354h126z" />
    <glyph glyph-name="Otilde" unicode="&#xd5;" horiz-adv-x="1468" 
d="M1200 651q0 252 -128 385t-370 133q-234 0 -334 -116t-100 -389q0 -261 127 -395t373 -134q235 0 333.5 118t98.5 398zM784 1327q282 0 444.5 -169t162.5 -462q0 -318 -196.5 -519.5t-506.5 -201.5q-286 0 -449 168t-163 463q0 320 197.5 520.5t510.5 200.5zM1028 1751
q-20 -107 -70.5 -161t-130.5 -54q-14 0 -31 2.5t-38 7.5l-109 29q-14 3 -28.5 4.5t-30.5 1.5q-34 0 -55 -21.5t-34 -68.5h-57q18 110 68.5 164.5t134.5 54.5q19 0 35.5 -2t29.5 -6l112 -29q17 -4 30 -6t24 -2q36 0 58 20t37 66h55z" />
    <glyph glyph-name="Odieresis" unicode="&#xd6;" horiz-adv-x="1468" 
d="M1200 651q0 252 -128 385t-370 133q-234 0 -334 -116t-100 -389q0 -261 127 -395t373 -134q235 0 333.5 118t98.5 398zM784 1327q282 0 444.5 -169t162.5 -462q0 -318 -196.5 -519.5t-506.5 -201.5q-286 0 -449 168t-163 463q0 320 197.5 520.5t510.5 200.5zM915 1712
q43 0 74 -30.5t31 -73.5q0 -46 -30 -76.5t-75 -30.5q-44 0 -75 31t-31 76q0 42 31.5 73t74.5 31zM559 1712q43 0 74.5 -31t31.5 -73q0 -46 -30.5 -76.5t-75.5 -30.5q-44 0 -74.5 31t-30.5 76q0 42 31 73t74 31z" />
    <glyph glyph-name="multiply" unicode="&#xd7;" horiz-adv-x="1706" 
d="M391 1178l469 -469l469 469l98 -99l-469 -469l469 -469l-98 -96l-469 467l-469 -467l-98 96l469 469l-469 469z" />
    <glyph glyph-name="Oslash" unicode="&#xd8;" horiz-adv-x="1468" 
d="M444 221q60 -41 145 -63.5t185 -22.5q227 0 326.5 118.5t99.5 391.5q0 129 -34 232t-95 159q-129 -156 -286.5 -361t-340.5 -454zM373 293q130 157 287 363t329 446q-58 35 -127.5 51t-159.5 16q-235 0 -334.5 -116t-99.5 -391q0 -116 27.5 -212t77.5 -157zM1327 1352
l-131 -164q95 -81 145 -206t50 -284q0 -318 -196.5 -519.5t-506.5 -201.5q-107 0 -195.5 23t-158.5 68l-98 -129h-156l166 198q-84 87 -126 204.5t-42 264.5q0 322 196 521.5t512 199.5q92 0 168 -18t148 -56l69 99h156z" />
    <glyph glyph-name="Ugrave" unicode="&#xd9;" horiz-adv-x="1339" 
d="M645 1305l-27 -82q-143 -2 -187 -47t-44 -222q0 -23 1 -83t1 -97v-213q0 -267 69 -365t230 -98q72 0 126.5 19.5t96.5 60.5q47 44 65.5 110.5t18.5 239.5v404q0 195 -37.5 238t-150.5 53l24 82h433l-25 -82q-65 -2 -89 -54t-24 -237v-131v-205q0 -213 -22 -306t-74 -159
q-60 -77 -156.5 -115.5t-230.5 -38.5q-104 0 -195 37.5t-147 102.5q-49 57 -69.5 133t-20.5 258v289q0 272 -31 341t-117 85l25 82h557zM854 1446h-71l-332 201q-37 22 -53.5 43t-16.5 45q0 32 22.5 54t55.5 22q25 0 48.5 -13.5t58.5 -50.5z" />
    <glyph glyph-name="Uacute" unicode="&#xda;" horiz-adv-x="1339" 
d="M645 1305l-27 -82q-143 -2 -187 -47t-44 -222q0 -23 1 -83t1 -97v-213q0 -267 69 -365t230 -98q72 0 126.5 19.5t96.5 60.5q47 44 65.5 110.5t18.5 239.5v404q0 195 -37.5 238t-150.5 53l24 82h433l-25 -82q-65 -2 -89 -54t-24 -237v-131v-205q0 -213 -22 -306t-74 -159
q-60 -77 -156.5 -115.5t-230.5 -38.5q-104 0 -195 37.5t-147 102.5q-49 57 -69.5 133t-20.5 258v289q0 272 -31 341t-117 85l25 82h557zM561 1446h-71l288 301q35 37 58.5 50.5t48.5 13.5q33 0 55.5 -22t22.5 -54q0 -23 -16.5 -44t-53.5 -44z" />
    <glyph glyph-name="Ucircumflex" unicode="&#xdb;" horiz-adv-x="1339" 
d="M645 1305l-27 -82q-143 -2 -187 -47t-44 -222q0 -23 1 -83t1 -97v-213q0 -267 69 -365t230 -98q72 0 126.5 19.5t96.5 60.5q47 44 65.5 110.5t18.5 239.5v404q0 195 -37.5 238t-150.5 53l24 82h433l-25 -82q-65 -2 -89 -54t-24 -237v-131v-205q0 -213 -22 -306t-74 -159
q-60 -77 -156.5 -115.5t-230.5 -38.5q-104 0 -195 37.5t-147 102.5q-49 57 -69.5 133t-20.5 258v289q0 272 -31 341t-117 85l25 82h557zM735 1800l232 -354h-64l-231 207l-231 -207h-64l232 354h126z" />
    <glyph glyph-name="Udieresis" unicode="&#xdc;" horiz-adv-x="1339" 
d="M645 1305l-27 -82q-143 -2 -187 -47t-44 -222q0 -23 1 -83t1 -97v-213q0 -267 69 -365t230 -98q72 0 126.5 19.5t96.5 60.5q47 44 65.5 110.5t18.5 239.5v404q0 195 -37.5 238t-150.5 53l24 82h433l-25 -82q-65 -2 -89 -54t-24 -237v-131v-205q0 -213 -22 -306t-74 -159
q-60 -77 -156.5 -115.5t-230.5 -38.5q-104 0 -195 37.5t-147 102.5q-49 57 -69.5 133t-20.5 258v289q0 272 -31 341t-117 85l25 82h557zM850 1712q43 0 74 -30.5t31 -73.5q0 -46 -30 -76.5t-75 -30.5q-44 0 -75 31t-31 76q0 42 31.5 73t74.5 31zM494 1712q43 0 74.5 -31
t31.5 -73q0 -46 -30.5 -76.5t-75.5 -30.5q-44 0 -74.5 31t-30.5 76q0 42 31 73t74 31z" />
    <glyph glyph-name="Yacute" unicode="&#xdd;" horiz-adv-x="1053" 
d="M635 651v-319q0 -165 40 -203t170 -47l-26 -82h-559l27 82q106 12 140 48.5t34 184.5v50v253l-168 277q-122 201 -185.5 258t-142.5 68l27 84h602l-25 -84q-12 0 -30.5 1t-24.5 1q-79 0 -112 -19.5t-33 -64.5q0 -27 20 -72t78 -141l102 -170q78 134 146.5 268.5
t132.5 277.5q15 3 45 8q131 21 203 36q-149 -205 -269.5 -387t-191.5 -308zM417 1446h-71l288 301q35 37 58.5 50.5t48.5 13.5q33 0 55.5 -22t22.5 -54q0 -23 -16.5 -44t-53.5 -44z" />
    <glyph glyph-name="Thorn" unicode="&#xde;" horiz-adv-x="1040" 
d="M399 698l1 -268q55 -7 103 -10.5t89 -3.5q105 0 150.5 60.5t45.5 199.5q0 135 -62.5 207.5t-178.5 72.5q-85 0 -116.5 -34.5t-31.5 -165.5v-58zM561 1305l-24 -82q-79 0 -110.5 -37.5t-30.5 -130.5q58 3 101 4.5t66 1.5q197 0 308.5 -104t111.5 -285
q0 -180 -127.5 -284.5t-351.5 -104.5q-25 0 -51 1.5t-53 4.5l-1 -25q0 -99 45 -136.5t185 -45.5l-27 -82h-536l24 82h14q70 0 94.5 51.5t24.5 257.5v109v297q0 293 -34 355.5t-142 70.5l25 82h489z" />
    <glyph glyph-name="germandbls" unicode="&#xdf;" horiz-adv-x="1067" 
d="M647 834q177 -23 262.5 -127.5t85.5 -294.5q0 -203 -109.5 -319t-299.5 -116q-36 0 -61.5 1t-51.5 4v120q7 0 19 -1q41 -3 55 -3q138 0 202 71.5t64 223.5q0 192 -74.5 286.5t-226.5 94.5q-1 0 -6 1q-17 1 -33 1v110q155 10 216 73.5t61 220.5q0 124 -53.5 190t-153.5 66
q-99 0 -136.5 -56t-37.5 -278v-31v-1071h-340l25 82q85 5 114 35t29 145v55v648q0 191 19 276t65 152q54 79 125 116t167 37q157 0 254 -100t97 -264q0 -135 -71 -221t-206 -115v-12z" />
    <glyph glyph-name="agrave" unicode="&#xe0;" horiz-adv-x="926" 
d="M578 406v102l-183 -78q-94 -41 -136 -85t-42 -101q0 -60 40 -96.5t105 -36.5q47 0 91.5 19t74.5 52q27 29 38.5 69.5t11.5 133.5v21zM748 346v-74q0 -117 27 -149.5t104 -40.5l-25 -82h-274v125q-60 -77 -126.5 -113.5t-146.5 -36.5q-118 0 -193 67.5t-75 172.5
q0 89 56 150t218 133l265 116v62q0 82 -32 110.5t-126 28.5q-63 0 -138 -9.5t-176 -31.5l60 141q90 22 161.5 32.5t123.5 10.5q84 0 143.5 -19.5t101.5 -61.5q28 -30 40 -75.5t12 -148.5v-69v-238zM626 1067h-71l-332 201q-37 22 -53.5 43t-16.5 45q0 32 22.5 54t55.5 22
q25 0 48.5 -13.5t58.5 -50.5z" />
    <glyph glyph-name="aacute" unicode="&#xe1;" horiz-adv-x="926" 
d="M578 406v102l-183 -78q-94 -41 -136 -85t-42 -101q0 -60 40 -96.5t105 -36.5q47 0 91.5 19t74.5 52q27 29 38.5 69.5t11.5 133.5v21zM748 346v-74q0 -117 27 -149.5t104 -40.5l-25 -82h-274v125q-60 -77 -126.5 -113.5t-146.5 -36.5q-118 0 -193 67.5t-75 172.5
q0 89 56 150t218 133l265 116v62q0 82 -32 110.5t-126 28.5q-63 0 -138 -9.5t-176 -31.5l60 141q90 22 161.5 32.5t123.5 10.5q84 0 143.5 -19.5t101.5 -61.5q28 -30 40 -75.5t12 -148.5v-69v-238zM333 1067h-71l288 301q35 37 58.5 50.5t48.5 13.5q33 0 55.5 -22t22.5 -54
q0 -23 -16.5 -44t-53.5 -44z" />
    <glyph glyph-name="acircumflex" unicode="&#xe2;" horiz-adv-x="926" 
d="M578 406v102l-183 -78q-94 -41 -136 -85t-42 -101q0 -60 40 -96.5t105 -36.5q47 0 91.5 19t74.5 52q27 29 38.5 69.5t11.5 133.5v21zM748 346v-74q0 -117 27 -149.5t104 -40.5l-25 -82h-274v125q-60 -77 -126.5 -113.5t-146.5 -36.5q-118 0 -193 67.5t-75 172.5
q0 89 56 150t218 133l265 116v62q0 82 -32 110.5t-126 28.5q-63 0 -138 -9.5t-176 -31.5l60 141q90 22 161.5 32.5t123.5 10.5q84 0 143.5 -19.5t101.5 -61.5q28 -30 40 -75.5t12 -148.5v-69v-238zM507 1421l232 -354h-64l-231 207l-231 -207h-64l232 354h126z" />
    <glyph glyph-name="atilde" unicode="&#xe3;" horiz-adv-x="926" 
d="M578 406v102l-183 -78q-94 -41 -136 -85t-42 -101q0 -60 40 -96.5t105 -36.5q47 0 91.5 19t74.5 52q27 29 38.5 69.5t11.5 133.5v21zM748 346v-74q0 -117 27 -149.5t104 -40.5l-25 -82h-274v125q-60 -77 -126.5 -113.5t-146.5 -36.5q-118 0 -193 67.5t-75 172.5
q0 89 56 150t218 133l265 116v62q0 82 -32 110.5t-126 28.5q-63 0 -138 -9.5t-176 -31.5l60 141q90 22 161.5 32.5t123.5 10.5q84 0 143.5 -19.5t101.5 -61.5q28 -30 40 -75.5t12 -148.5v-69v-238zM735 1372q-20 -107 -70.5 -161t-130.5 -54q-14 0 -31 2.5t-38 7.5l-109 29
q-14 3 -28.5 4.5t-30.5 1.5q-34 0 -55 -21.5t-34 -68.5h-57q18 110 68.5 164.5t134.5 54.5q19 0 35.5 -2t29.5 -6l112 -29q17 -4 30 -6t24 -2q36 0 58 20t37 66h55z" />
    <glyph glyph-name="adieresis" unicode="&#xe4;" horiz-adv-x="926" 
d="M578 406v102l-183 -78q-94 -41 -136 -85t-42 -101q0 -60 40 -96.5t105 -36.5q47 0 91.5 19t74.5 52q27 29 38.5 69.5t11.5 133.5v21zM748 346v-74q0 -117 27 -149.5t104 -40.5l-25 -82h-274v125q-60 -77 -126.5 -113.5t-146.5 -36.5q-118 0 -193 67.5t-75 172.5
q0 89 56 150t218 133l265 116v62q0 82 -32 110.5t-126 28.5q-63 0 -138 -9.5t-176 -31.5l60 141q90 22 161.5 32.5t123.5 10.5q84 0 143.5 -19.5t101.5 -61.5q28 -30 40 -75.5t12 -148.5v-69v-238zM622 1333q43 0 74 -30.5t31 -73.5q0 -46 -30 -76.5t-75 -30.5q-44 0 -75 31
t-31 76q0 42 31.5 73t74.5 31zM266 1333q43 0 74.5 -31t31.5 -73q0 -46 -30.5 -76.5t-75.5 -30.5q-44 0 -74.5 31t-30.5 76q0 42 31 73t74 31z" />
    <glyph glyph-name="aring" unicode="&#xe5;" horiz-adv-x="926" 
d="M578 406v102l-183 -78q-94 -41 -136 -85t-42 -101q0 -60 40 -96.5t105 -36.5q47 0 91.5 19t74.5 52q27 29 38.5 69.5t11.5 133.5v21zM748 346v-74q0 -117 27 -149.5t104 -40.5l-25 -82h-274v125q-60 -77 -127 -113.5t-150 -36.5q-115 0 -189.5 68t-74.5 172q0 89 56 150
t218 133l265 116v62q0 82 -32 110.5t-126 28.5q-63 0 -138 -9.5t-176 -31.5l60 141q90 22 161.5 32.5t123.5 10.5q84 0 143.5 -19.5t99.5 -61.5q29 -29 41.5 -74.5t12.5 -149.5v-69v-238zM598 1268q0 61 -42.5 103t-102.5 42t-103 -42.5t-43 -100.5q0 -61 42.5 -104.5
t103.5 -43.5q60 0 102.5 43t42.5 103zM453 1511q102 0 172.5 -71t70.5 -174q0 -100 -71 -171t-172 -71q-103 0 -173.5 70.5t-70.5 173.5q0 102 70.5 172.5t173.5 70.5z" />
    <glyph glyph-name="ae" unicode="&#xe6;" horiz-adv-x="1417" 
d="M582 322v186l-185 -78q-97 -41 -138.5 -85t-41.5 -105q0 -64 41 -101t111 -37q101 0 157 57.5t56 162.5zM758 600l167 8q30 2 78 3q166 5 166 67q0 72 -56 126t-138 54q-90 0 -147.5 -68.5t-69.5 -189.5zM1343 514h-260q-38 0 -129.5 -4.5t-205.5 -11.5v-35
q0 -153 85.5 -240.5t235.5 -87.5q50 0 110 9t138 28l-43 -147q-54 -24 -118 -37t-130 -13q-125 0 -218 47t-157 142q-53 -89 -141.5 -139t-192.5 -50q-126 0 -202 65.5t-76 172.5q0 92 59 155t215 130l269 116v62q0 81 -32.5 110t-125.5 29q-62 0 -137.5 -9.5t-180.5 -31.5
l60 141q72 22 143.5 32.5t141.5 10.5q109 0 175.5 -29t100.5 -91q63 63 132 91.5t157 28.5q148 0 237.5 -112.5t89.5 -302.5v-29z" />
    <glyph glyph-name="ccedilla" unicode="&#xe7;" horiz-adv-x="838" 
d="M764 778q-74 27 -140.5 40t-131.5 13q-129 0 -184.5 -83t-55.5 -269q0 -180 80.5 -265t251.5 -85q39 0 90 5t125 16l-47 -150q-70 -13 -119 -19t-88 -6q-220 0 -347.5 127.5t-127.5 343.5q0 236 135.5 373t369.5 137q29 0 65.5 -3t92.5 -11zM495 0v-112q23 3 39.5 4
t30.5 2q78 0 127 -46.5t49 -119.5q0 -84 -58 -130.5t-163 -46.5q-66 0 -138.5 20t-156.5 60l33 78q62 -35 123.5 -54.5t111.5 -19.5q53 0 81 24t28 69q0 40 -27 63t-74 23q-16 0 -35 -2t-36 -4v192h65z" />
    <glyph glyph-name="egrave" unicode="&#xe8;" horiz-adv-x="963" 
d="M610 514q-42 0 -139 -4.5t-221 -11.5q0 -6 -1 -17.5t-1 -17.5q0 -151 92 -239.5t252 -88.5q54 0 118 9t150 28l-45 -147q-57 -24 -126.5 -37t-143.5 -13q-219 0 -346 128.5t-127 351.5q0 222 128 362.5t328 140.5q166 0 263.5 -112t97.5 -305v-27h-279zM258 600l184 8
q32 2 84 3q180 5 181 67q0 70 -62 125t-149 55q-97 0 -160 -68t-78 -190zM710 1067h-71l-332 201q-37 22 -53.5 43t-16.5 45q0 32 22.5 54t55.5 22q25 0 48.5 -13.5t58.5 -50.5z" />
    <glyph glyph-name="eacute" unicode="&#xe9;" horiz-adv-x="963" 
d="M610 514q-42 0 -139 -4.5t-221 -11.5q0 -6 -1 -17.5t-1 -17.5q0 -151 92 -239.5t252 -88.5q54 0 118 9t150 28l-45 -147q-57 -24 -126.5 -37t-143.5 -13q-219 0 -346 128.5t-127 351.5q0 222 128 362.5t328 140.5q166 0 263.5 -112t97.5 -305v-27h-279zM258 600l184 8
q32 2 84 3q180 5 181 67q0 70 -62 125t-149 55q-97 0 -160 -68t-78 -190zM417 1067h-71l288 301q35 37 58.5 50.5t48.5 13.5q33 0 55.5 -22t22.5 -54q0 -23 -16.5 -44t-53.5 -44z" />
    <glyph glyph-name="ecircumflex" unicode="&#xea;" horiz-adv-x="963" 
d="M610 514q-42 0 -139 -4.5t-221 -11.5q0 -6 -1 -17.5t-1 -17.5q0 -151 92 -239.5t252 -88.5q54 0 118 9t150 28l-45 -147q-57 -24 -126.5 -37t-143.5 -13q-219 0 -346 128.5t-127 351.5q0 222 128 362.5t328 140.5q166 0 263.5 -112t97.5 -305v-27h-279zM258 600l184 8
q32 2 84 3q180 5 181 67q0 70 -62 125t-149 55q-97 0 -160 -68t-78 -190zM591 1421l232 -354h-64l-231 207l-231 -207h-64l232 354h126z" />
    <glyph glyph-name="edieresis" unicode="&#xeb;" horiz-adv-x="963" 
d="M610 514q-42 0 -139 -4.5t-221 -11.5q0 -6 -1 -17.5t-1 -17.5q0 -151 92 -239.5t252 -88.5q54 0 118 9t150 28l-45 -147q-57 -24 -126.5 -37t-143.5 -13q-219 0 -346 128.5t-127 351.5q0 222 128 362.5t328 140.5q166 0 263.5 -112t97.5 -305v-27h-279zM258 600l184 8
q32 2 84 3q180 5 181 67q0 70 -62 125t-149 55q-97 0 -160 -68t-78 -190zM706 1333q43 0 74 -30.5t31 -73.5q0 -46 -30 -76.5t-75 -30.5q-44 0 -75 31t-31 76q0 42 31.5 73t74.5 31zM350 1333q43 0 74.5 -31t31.5 -73q0 -46 -30.5 -76.5t-75.5 -30.5q-44 0 -74.5 31
t-30.5 76q0 42 31 73t74 31z" />
    <glyph glyph-name="igrave" unicode="&#xec;" horiz-adv-x="588" 
d="M387 530v-266q0 -115 32 -147t131 -35l-24 -82h-456l25 82q70 9 95 52t25 190v301q0 119 -27 146.5t-118 33.5l24 82q68 11 141.5 29t155.5 42q0 -22 -1 -66q-3 -256 -3 -362zM477 1067h-71l-332 201q-37 22 -53.5 43t-16.5 45q0 32 22.5 54t55.5 22q25 0 48.5 -13.5
t58.5 -50.5z" />
    <glyph glyph-name="iacute" unicode="&#xed;" horiz-adv-x="588" 
d="M387 530v-266q0 -115 32 -147t131 -35l-24 -82h-456l25 82q70 9 95 52t25 190v301q0 119 -27 146.5t-118 33.5l24 82q68 11 141.5 29t155.5 42q0 -22 -1 -66q-3 -256 -3 -362zM184 1067h-71l288 301q35 37 58.5 50.5t48.5 13.5q33 0 55.5 -22t22.5 -54q0 -23 -16.5 -44
t-53.5 -44z" />
    <glyph glyph-name="icircumflex" unicode="&#xee;" horiz-adv-x="588" 
d="M387 530v-266q0 -115 32 -147t131 -35l-24 -82h-456l25 82q70 9 95 52t25 190v301q0 119 -27 146.5t-118 33.5l24 82q68 11 141.5 29t155.5 42q0 -22 -1 -66q-3 -256 -3 -362zM358 1421l232 -354h-64l-231 207l-231 -207h-64l232 354h126z" />
    <glyph glyph-name="idieresis" unicode="&#xef;" horiz-adv-x="588" 
d="M387 530v-266q0 -115 32 -147t131 -35l-24 -82h-456l25 82q70 9 95 52t25 190v301q0 119 -27 146.5t-118 33.5l24 82q68 11 141.5 29t155.5 42q0 -22 -1 -66q-3 -256 -3 -362zM473 1333q43 0 74 -30.5t31 -73.5q0 -46 -30 -76.5t-75 -30.5q-44 0 -75 31t-31 76
q0 42 31.5 73t74.5 31zM117 1333q43 0 74.5 -31t31.5 -73q0 -46 -30.5 -76.5t-75.5 -30.5q-44 0 -74.5 31t-30.5 76q0 42 31 73t74 31z" />
    <glyph glyph-name="eth" unicode="&#xf0;" horiz-adv-x="1047" 
d="M795 397q0 238 -69 323t-241 85q-129 0 -180 -62t-51 -227q0 -237 70 -321t245 -84q126 0 176 61t50 225zM586 1321l288 137l37 -80l-256 -118q159 -154 239.5 -346t80.5 -416q0 -245 -130.5 -383t-359.5 -138q-198 0 -305.5 115t-107.5 326q0 233 127 371.5t336 138.5
q66 0 113.5 -16t84.5 -50q-31 89 -83 173.5t-126 164.5l-329 -153l-35 75l307 144q-35 42 -95.5 94.5t-152.5 120.5l60 65q95 -61 172.5 -117.5t134.5 -107.5z" />
    <glyph glyph-name="ntilde" unicode="&#xf1;" horiz-adv-x="1176" 
d="M375 762q65 94 151 144t181 50q70 0 127.5 -25t91.5 -71q27 -37 39 -94t12 -193v-30v-260q0 -125 27.5 -159t105.5 -42l-27 -82h-438l27 82q80 5 107.5 47.5t27.5 208.5v192q0 159 -40.5 222t-135.5 63q-120 0 -182 -85t-62 -251v-215q0 -115 32 -147t131 -35l-24 -82
h-458l27 82q70 9 95 52t25 190v301q0 119 -28 147t-119 33l26 82q67 10 136.5 27.5t144.5 43.5v-196zM879 1372q-20 -107 -70.5 -161t-130.5 -54q-14 0 -31 2.5t-38 7.5l-109 29q-14 3 -28.5 4.5t-30.5 1.5q-34 0 -55 -21.5t-34 -68.5h-57q18 110 68.5 164.5t134.5 54.5
q19 0 35.5 -2t29.5 -6l112 -29q17 -4 30 -6t24 -2q36 0 58 20t37 66h55z" />
    <glyph glyph-name="ograve" unicode="&#xf2;" horiz-adv-x="1047" 
d="M795 410q0 241 -70 328t-242 87q-129 0 -179 -62.5t-50 -240.5q0 -236 70 -322.5t243 -86.5q127 0 177.5 62.5t50.5 234.5zM565 958q194 0 303 -120t109 -334q0 -245 -132 -386t-362 -141q-196 0 -304.5 118t-108.5 333q0 248 132 389t363 141zM706 1067h-71l-332 201
q-37 22 -53.5 43t-16.5 45q0 32 22.5 54t55.5 22q25 0 48.5 -13.5t58.5 -50.5z" />
    <glyph glyph-name="oacute" unicode="&#xf3;" horiz-adv-x="1047" 
d="M795 410q0 241 -70 328t-242 87q-129 0 -179 -62.5t-50 -240.5q0 -236 70 -322.5t243 -86.5q127 0 177.5 62.5t50.5 234.5zM565 958q194 0 303 -120t109 -334q0 -245 -132 -386t-362 -141q-196 0 -304.5 118t-108.5 333q0 248 132 389t363 141zM413 1067h-71l288 301
q35 37 58.5 50.5t48.5 13.5q33 0 55.5 -22t22.5 -54q0 -23 -16.5 -44t-53.5 -44z" />
    <glyph glyph-name="ocircumflex" unicode="&#xf4;" horiz-adv-x="1047" 
d="M795 410q0 241 -70 328t-242 87q-129 0 -179 -62.5t-50 -240.5q0 -236 70 -322.5t243 -86.5q127 0 177.5 62.5t50.5 234.5zM565 958q194 0 303 -120t109 -334q0 -245 -132 -386t-362 -141q-196 0 -304.5 118t-108.5 333q0 248 132 389t363 141zM587 1421l232 -354h-64
l-231 207l-231 -207h-64l232 354h126z" />
    <glyph glyph-name="otilde" unicode="&#xf5;" horiz-adv-x="1047" 
d="M795 410q0 241 -70 328t-242 87q-129 0 -179 -62.5t-50 -240.5q0 -236 70 -322.5t243 -86.5q127 0 177.5 62.5t50.5 234.5zM565 958q194 0 303 -120t109 -334q0 -245 -132 -386t-362 -141q-196 0 -304.5 118t-108.5 333q0 248 132 389t363 141zM815 1372
q-20 -107 -70.5 -161t-130.5 -54q-14 0 -31 2.5t-38 7.5l-109 29q-14 3 -28.5 4.5t-30.5 1.5q-34 0 -55 -21.5t-34 -68.5h-57q18 110 68.5 164.5t134.5 54.5q19 0 35.5 -2t29.5 -6l112 -29q17 -4 30 -6t24 -2q36 0 58 20t37 66h55z" />
    <glyph glyph-name="odieresis" unicode="&#xf6;" horiz-adv-x="1047" 
d="M795 410q0 241 -70 328t-242 87q-129 0 -179 -62.5t-50 -240.5q0 -236 70 -322.5t243 -86.5q127 0 177.5 62.5t50.5 234.5zM565 958q194 0 303 -120t109 -334q0 -245 -132 -386t-362 -141q-196 0 -304.5 118t-108.5 333q0 248 132 389t363 141zM702 1333q43 0 74 -30.5
t31 -73.5q0 -46 -30 -76.5t-75 -30.5q-44 0 -75 31t-31 76q0 42 31.5 73t74.5 31zM346 1333q43 0 74.5 -31t31.5 -73q0 -46 -30.5 -76.5t-75.5 -30.5q-44 0 -74.5 31t-30.5 76q0 42 31 73t74 31z" />
    <glyph glyph-name="divide" unicode="&#xf7;" horiz-adv-x="1706" 
d="M854 367q51 0 88 -37t37 -88q0 -52 -36.5 -88.5t-88.5 -36.5q-53 0 -89 36t-36 89q0 51 37 88t88 37zM254 680h1198v-139h-1198v139zM854 1106q51 0 88 -37.5t37 -89.5q0 -51 -36.5 -88t-88.5 -37t-88.5 36.5t-36.5 88.5t37 89.5t88 37.5z" />
    <glyph glyph-name="oslash" unicode="&#xf8;" horiz-adv-x="1047" 
d="M344 172q40 -31 95.5 -46t129.5 -15q136 0 189 62.5t53 229.5q0 132 -12.5 202.5t-40.5 103.5q-116 -137 -218 -269.5t-196 -267.5zM285 242q84 105 185.5 236.5t223.5 295.5q-36 27 -88 40t-125 13q-135 0 -188 -62.5t-53 -232.5q0 -118 10.5 -186t34.5 -104zM999 983
l-129 -145q52 -55 79.5 -140.5t27.5 -193.5q0 -245 -133 -387t-363 -142q-70 0 -128.5 15.5t-104.5 46.5l-74 -98h-141l137 165q-47 45 -72.5 131.5t-25.5 198.5q0 243 132.5 382.5t362.5 139.5q70 0 123.5 -13.5t102.5 -43.5l65 84h141z" />
    <glyph glyph-name="ugrave" unicode="&#xf9;" horiz-adv-x="1143" 
d="M375 569v-166q0 -160 40.5 -221t137.5 -61q103 0 162 65t59 181v266q0 112 -32 144.5t-133 35.5l26 82q80 12 158 26t157 31q-3 -72 -4.5 -147t-1.5 -195v-354q0 -111 24 -138.5t99 -35.5l-25 -82h-266v137q-66 -82 -140 -121t-163 -39q-70 0 -126.5 25t-90.5 72
q-29 38 -41 97t-12 220v205q0 144 -26 178.5t-101 38.5l26 81q71 10 140 26t137 38q-2 -92 -3 -182t-1 -207zM741 1067h-71l-332 201q-37 22 -53.5 43t-16.5 45q0 32 22.5 54t55.5 22q25 0 48.5 -13.5t58.5 -50.5z" />
    <glyph glyph-name="uacute" unicode="&#xfa;" horiz-adv-x="1143" 
d="M375 569v-166q0 -160 40.5 -221t137.5 -61q103 0 162 65t59 181v266q0 112 -32 144.5t-133 35.5l26 82q80 12 158 26t157 31q-3 -72 -4.5 -147t-1.5 -195v-354q0 -111 24 -138.5t99 -35.5l-25 -82h-266v137q-66 -82 -140 -121t-163 -39q-70 0 -126.5 25t-90.5 72
q-29 38 -41 97t-12 220v205q0 144 -26 178.5t-101 38.5l26 81q71 10 140 26t137 38q-2 -92 -3 -182t-1 -207zM448 1067h-71l288 301q35 37 58.5 50.5t48.5 13.5q33 0 55.5 -22t22.5 -54q0 -23 -16.5 -44t-53.5 -44z" />
    <glyph glyph-name="ucircumflex" unicode="&#xfb;" horiz-adv-x="1143" 
d="M375 569v-166q0 -160 40.5 -221t137.5 -61q103 0 162 65t59 181v266q0 112 -32 144.5t-133 35.5l26 82q80 12 158 26t157 31q-3 -72 -4.5 -147t-1.5 -195v-354q0 -111 24 -138.5t99 -35.5l-25 -82h-266v137q-66 -82 -140 -121t-163 -39q-70 0 -126.5 25t-90.5 72
q-29 38 -41 97t-12 220v205q0 144 -26 178.5t-101 38.5l26 81q71 10 140 26t137 38q-2 -92 -3 -182t-1 -207zM622 1421l232 -354h-64l-231 207l-231 -207h-64l232 354h126z" />
    <glyph glyph-name="udieresis" unicode="&#xfc;" horiz-adv-x="1143" 
d="M375 569v-166q0 -160 40.5 -221t137.5 -61q103 0 162 65t59 181v266q0 112 -32 144.5t-133 35.5l26 82q80 12 158 26t157 31q-3 -72 -4.5 -147t-1.5 -195v-354q0 -111 24 -138.5t99 -35.5l-25 -82h-266v137q-66 -82 -140 -121t-163 -39q-70 0 -126.5 25t-90.5 72
q-29 38 -41 97t-12 220v205q0 144 -26 178.5t-101 38.5l26 81q71 10 140 26t137 38q-2 -92 -3 -182t-1 -207zM737 1333q43 0 74 -30.5t31 -73.5q0 -46 -30 -76.5t-75 -30.5q-44 0 -75 31t-31 76q0 42 31.5 73t74.5 31zM381 1333q43 0 74.5 -31t31.5 -73q0 -46 -30.5 -76.5
t-75.5 -30.5q-44 0 -74.5 31t-30.5 76q0 42 31 73t74 31z" />
    <glyph glyph-name="yacute" unicode="&#xfd;" horiz-adv-x="975" 
d="M485 934l-24 -82h-29q-53 0 -77.5 -15t-24.5 -49t49 -159l2 -4l166 -420l112 303q51 135 66.5 188t15.5 80q0 39 -29 57.5t-91 18.5h-11l25 82h326q-70 -145 -121 -261.5t-78 -189.5l-238 -626q-76 -201 -154 -263.5t-220 -62.5q-27 0 -49.5 2t-43.5 6l54 133
q13 -1 28.5 -2.5t18.5 -1.5q115 0 167.5 50.5t123.5 250.5l-252 645l-2 4q-91 230 -195 234l25 82h460zM376 1067h-71l288 301q35 37 58.5 50.5t48.5 13.5q33 0 55.5 -22t22.5 -54q0 -23 -16.5 -44t-53.5 -44z" />
    <glyph glyph-name="thorn" unicode="&#xfe;" horiz-adv-x="1057" 
d="M330 121l52 -6q32 -3 62.5 -4.5t59.5 -1.5q154 0 228.5 92.5t74.5 283.5q0 173 -55.5 258.5t-167.5 85.5q-131 0 -192.5 -100t-61.5 -313v-295zM324 1120v-334q67 88 143.5 130t167.5 42q157 0 253.5 -119.5t96.5 -316.5q0 -139 -58 -255.5t-173 -209.5
q-55 -43 -134 -61.5t-237 -18.5h-53v-139q0 -130 49 -172t217 -53l-27 -82h-571l25 82q81 6 109 48.5t28 178.5v1336q0 123 -33 155.5t-143 40.5l24 80q88 20 168 43.5t157 52.5q-4 -110 -6.5 -217t-2.5 -211z" />
    <glyph glyph-name="ydieresis" unicode="&#xff;" horiz-adv-x="975" 
d="M485 934l-24 -82h-29q-53 0 -77.5 -15t-24.5 -49t49 -159l2 -4l166 -420l112 303q51 135 66.5 188t15.5 80q0 39 -29 57.5t-91 18.5h-11l25 82h326q-70 -145 -121 -261.5t-78 -189.5l-238 -626q-76 -201 -154 -263.5t-220 -62.5q-27 0 -49.5 2t-43.5 6l54 133
q13 -1 28.5 -2.5t18.5 -1.5q115 0 167.5 50.5t123.5 250.5l-252 645l-2 4q-91 230 -195 234l25 82h460zM665 1333q43 0 74 -30.5t31 -73.5q0 -46 -30 -76.5t-75 -30.5q-44 0 -75 31t-31 76q0 42 31.5 73t74.5 31zM309 1333q43 0 74.5 -31t31.5 -73q0 -46 -30.5 -76.5
t-75.5 -30.5q-44 0 -74.5 31t-30.5 76q0 42 31 73t74 31z" />
    <glyph glyph-name="Cacute" unicode="&#x106;" horiz-adv-x="1202" 
d="M1085 961l-112 -33q-2 150 -57 205t-205 55q-80 0 -155 -15.5t-120 -39.5q-74 -43 -119 -165t-45 -284q0 -266 140.5 -409.5t400.5 -143.5q64 0 138 13t163 40l-20 -141q-98 -35 -182 -51.5t-162 -16.5q-303 0 -488.5 186.5t-185.5 487.5q0 168 61.5 305.5t177.5 231.5
q95 75 216.5 108t318.5 33q56 0 114.5 -4t120.5 -12q0 -11 -1 -80t-1 -127q0 -31 0.5 -67t1.5 -76zM598 1446h-71l288 301q35 37 58.5 50.5t48.5 13.5q33 0 55.5 -22t22.5 -54q0 -23 -16.5 -44t-53.5 -44z" />
    <glyph glyph-name="cacute" unicode="&#x107;" horiz-adv-x="838" 
d="M764 778q-74 27 -140.5 40t-131.5 13q-129 0 -184.5 -83t-55.5 -269q0 -180 80.5 -265t251.5 -85q39 0 90 5t125 16l-47 -150q-70 -13 -119 -19t-88 -6q-220 0 -347.5 127.5t-127.5 343.5q0 236 135.5 373t369.5 137q29 0 65.5 -3t92.5 -11zM395 1067h-71l288 301
q35 37 58.5 50.5t48.5 13.5q33 0 55.5 -22t22.5 -54q0 -23 -16.5 -44t-53.5 -44z" />
    <glyph glyph-name="Ccaron" unicode="&#x10c;" horiz-adv-x="1202" 
d="M1085 961l-112 -33q-2 150 -57 205t-205 55q-80 0 -155 -15.5t-120 -39.5q-74 -43 -119 -165t-45 -284q0 -266 140.5 -409.5t400.5 -143.5q64 0 138 13t163 40l-20 -141q-98 -35 -182 -51.5t-162 -16.5q-303 0 -488.5 186.5t-185.5 487.5q0 168 61.5 305.5t177.5 231.5
q95 75 216.5 108t318.5 33q56 0 114.5 -4t120.5 -12q0 -11 -1 -80t-1 -127q0 -31 0.5 -67t1.5 -76zM478 1800l231 -207l231 207h64l-232 -354h-126l-232 354h64z" />
    <glyph glyph-name="ccaron" unicode="&#x10d;" horiz-adv-x="838" 
d="M764 778q-74 27 -140.5 40t-131.5 13q-129 0 -184.5 -83t-55.5 -269q0 -180 80.5 -265t251.5 -85q39 0 90 5t125 16l-47 -150q-70 -13 -119 -19t-88 -6q-220 0 -347.5 127.5t-127.5 343.5q0 236 135.5 373t369.5 137q29 0 65.5 -3t92.5 -11zM275 1421l231 -207l231 207
h64l-232 -354h-126l-232 354h64z" />
    <glyph glyph-name="dcroat" unicode="&#x111;" horiz-adv-x="1114" 
d="M745 199v370q0 147 -61 218t-186 71q-112 0 -185 -98t-73 -254q0 -175 85 -281t222 -106q58 0 108.5 20.5t89.5 59.5zM915 1190h185v-90h-185v-785q0 -143 29.5 -184.5t108.5 -48.5l-25 -82h-270l-6 90q-57 -58 -123.5 -86.5t-145.5 -28.5q-180 0 -300 133t-120 336
q0 226 129 369t328 143q62 0 118.5 -15t106.5 -46v205h-284v90h284v12q0 93 -29 124t-149 44l27 80q82 19 163.5 43.5t160.5 54.5z" />
    <glyph glyph-name="Gbreve" unicode="&#x11e;" horiz-adv-x="1307" 
d="M1114 958l-115 -30q0 147 -57.5 203.5t-208.5 56.5q-126 0 -212 -24t-128 -70q-53 -59 -87 -178.5t-34 -258.5q0 -258 130 -403t360 -145q129 0 175 35.5t46 177.5q0 100 -46.5 139t-166.5 39h-6q-20 2 -35 2l27 90h536l-26 -90q-69 0 -91 -30.5t-22 -170.5v-16v-228
q-92 -40 -197.5 -61t-214.5 -21q-307 0 -486 178t-179 482q0 177 63 317t187 236q95 74 217 106.5t317 32.5q72 0 135 -4t119 -12q0 -22 -1 -91t-1 -116q0 -32 0.5 -68.5t1.5 -77.5zM415 1761q18 -74 74.5 -106.5t165.5 -32.5t164 32.5t74 106.5h57q-20 -135 -95 -205.5
t-200 -70.5t-200.5 70t-96.5 206h57z" />
    <glyph glyph-name="gbreve" unicode="&#x11f;" horiz-adv-x="909" 
d="M252 -25q-26 -28 -38.5 -59t-12.5 -66q0 -87 71.5 -133.5t208.5 -46.5q140 0 220.5 46t80.5 124q0 61 -46 90t-144 29h-219q-33 0 -63 4t-58 12zM627 606q0 136 -41.5 189t-139.5 53q-103 0 -141.5 -50t-38.5 -192q0 -141 42.5 -191t148.5 -50q95 0 132.5 52t37.5 189z
M927 930l-44 -125q-41 0 -76 1.5t-66 4.5q24 -43 34.5 -87.5t10.5 -94.5q0 -167 -107.5 -275t-277.5 -108q-13 0 -25 0.5t-23 1.5q-38 -25 -52 -41.5t-14 -34.5q0 -31 36.5 -46t110.5 -15q87 0 188 1q30 1 37 1q123 0 186.5 -56t63.5 -163q0 -154 -145 -259.5t-367 -105.5
q-163 0 -256.5 68t-93.5 186q0 58 29.5 115.5t89.5 115.5q-28 21 -42.5 43.5t-14.5 46.5q0 64 119 151q21 15 32 24q-78 35 -117 104t-39 172q0 180 102 291.5t265 111.5q50 0 99 -14t102 -45q61 6 125.5 14t129.5 17zM215 1382q18 -74 74.5 -106.5t165.5 -32.5t164 32.5
t74 106.5h57q-20 -135 -95 -205.5t-200 -70.5t-200.5 70t-96.5 206h57z" />
    <glyph glyph-name="Idotaccent" unicode="&#x130;" horiz-adv-x="631" 
d="M561 1305l-24 -82h-15q-69 0 -94 -52t-25 -245v-123v-299q0 -286 35 -350t142 -72l-25 -82h-485l24 82h15q70 0 94 51.5t24 257.5v109v297q0 292 -34.5 355t-141.5 71l25 82h485zM317 1718q45 0 78 -33t33 -77q0 -47 -32.5 -80t-78.5 -33q-45 0 -78 33.5t-33 79.5
q0 44 33.5 77t77.5 33z" />
    <glyph glyph-name="dotlessi" unicode="&#x131;" horiz-adv-x="588" 
d="M387 530v-266q0 -115 32 -147t131 -35l-24 -82h-456l25 82q70 9 95 52t25 190v301q0 119 -27 146.5t-118 33.5l24 82q68 11 141.5 29t155.5 42q0 -22 -1 -66q-3 -256 -3 -362z" />
    <glyph glyph-name="Lslash" unicode="&#x141;" horiz-adv-x="1069" 
d="M659 1305l-26 -82q-123 -8 -161 -45t-38 -199v-45v-184l303 204v-123l-303 -204v-295q0 -86 0.5 -126t2.5 -73q63 -8 110 -12t86 -4q143 0 207.5 62.5t70.5 205.5l107 43v-428h-916l27 82h14q70 0 94.5 50t24.5 237v120v52l-244 -166v121l244 166v135q0 293 -34 355
t-140 71l27 82h544z" />
    <glyph glyph-name="lslash" unicode="&#x142;" horiz-adv-x="598" 
d="M385 1120v-207l199 125v-108l-199 -125v-504q0 -149 32.5 -182.5t132.5 -36.5l-26 -82h-456l24 82q73 9 98 52.5t25 189.5l2 387l-203 -125v108l201 125v359q0 120 -33.5 153t-144.5 41l26 80q77 18 159.5 42t170.5 54q-4 -92 -6 -186t-2 -242z" />
    <glyph glyph-name="OE" unicode="&#x152;" horiz-adv-x="1847" 
d="M997 186v940q-77 30 -144 43t-136 13q-226 0 -327 -123.5t-101 -403.5q0 -249 125.5 -385.5t353.5 -136.5q63 0 118.5 13t110.5 40zM1741 1305v-299l-109 -29q-6 128 -59.5 178.5t-181.5 50.5q-137 0 -178.5 -28.5t-41.5 -157.5v-59v-216h136q101 0 134.5 25.5t39.5 93.5
l92 25v-418l-92 -22q-8 112 -44 148t-147 36h-119v-500q73 -10 121 -14t88 -4q131 0 196.5 63.5t72.5 196.5l108 39v-414h-850q-44 -13 -89.5 -19t-96.5 -6q-294 0 -458.5 166t-164.5 463q0 319 195 521t500 202q45 0 93.5 -5.5t102.5 -16.5h752z" />
    <glyph glyph-name="oe" unicode="&#x153;" horiz-adv-x="1610" 
d="M1272 514q-39 0 -132.5 -4.5t-211.5 -11.5v-35q0 -151 88.5 -239.5t240.5 -88.5q49 0 109 9t143 28l-43 -147q-52 -24 -117 -36t-139 -12q-123 0 -217.5 45.5t-163.5 137.5q-67 -92 -158.5 -137.5t-211.5 -45.5q-187 0 -288 117t-101 334q0 246 123.5 387t336.5 141
q114 0 200 -45.5t128 -128.5q68 90 151.5 132t192.5 42q152 0 243 -111t91 -298v-33h-264zM938 600l174 8q30 2 80 3q172 6 172 67q0 70 -59.5 125t-143.5 55q-92 0 -150.5 -68t-72.5 -190zM752 412q0 238 -65 325.5t-224 87.5q-117 0 -164 -63t-47 -232q0 -241 64.5 -329
t224.5 -88q117 0 164 63.5t47 235.5z" />
    <glyph glyph-name="Scedilla" unicode="&#x15e;" horiz-adv-x="991" 
d="M852 997l-111 -41v50q0 108 -55.5 154t-187.5 46q-109 0 -172.5 -48.5t-63.5 -131.5q0 -111 238 -242l24 -14l8 -4q377 -209 377 -414q0 -179 -124 -278t-351 -99q-21 0 -131 5.5t-201 7.5v409l105 41v-28q0 -181 56 -243.5t210 -62.5q119 0 187.5 55t68.5 150
q0 132 -255 276l-5 3q-23 13 -68 38q-323 181 -323 365q0 159 115 247.5t323 88.5q29 0 141 -6.5t195 -10.5v-313zM514 0v-112q23 3 39.5 4t30.5 2q78 0 127 -46.5t49 -119.5q0 -84 -58 -130.5t-163 -46.5q-66 0 -138.5 20t-156.5 60l33 78q62 -35 123.5 -54.5t111.5 -19.5
q53 0 81 24t28 69q0 40 -27 63t-74 23q-16 0 -35 -2t-36 -4v192h65z" />
    <glyph glyph-name="scedilla" unicode="&#x15f;" horiz-adv-x="842" 
d="M203 348v-45q0 -124 46 -170.5t165 -46.5q87 0 131.5 34.5t44.5 100.5q0 88 -187 174q-42 20 -65 31q-157 74 -198.5 126t-41.5 134q0 124 89 197t241 73q30 0 117 -11t143 -11h25v-229l-97 -52q0 7 1 17.5t1 15.5q0 88 -44.5 126t-147.5 38q-79 0 -119.5 -31t-40.5 -90
q0 -49 32.5 -81.5t156.5 -88.5q13 -6 38 -17q265 -120 265 -282q0 -128 -94.5 -206.5t-249.5 -78.5q-62 0 -167 11.5t-143 14.5v300zM430 0v-112q23 3 39.5 4t30.5 2q78 0 127 -46.5t49 -119.5q0 -84 -58 -130.5t-163 -46.5q-66 0 -138.5 20t-156.5 60l33 78
q62 -35 123.5 -54.5t111.5 -19.5q53 0 81 24t28 69q0 40 -27 63t-74 23q-16 0 -35 -2t-36 -4v192h65z" />
    <glyph glyph-name="Scaron" unicode="&#x160;" horiz-adv-x="991" 
d="M852 997l-111 -41v50q0 108 -55.5 154t-187.5 46q-109 0 -172.5 -48.5t-63.5 -131.5q0 -111 238 -242l24 -14l8 -4q377 -209 377 -414q0 -179 -124 -278t-351 -99q-21 0 -131 5.5t-201 7.5v409l105 41v-28q0 -181 56 -243.5t210 -62.5q119 0 187.5 55t68.5 150
q0 132 -255 276l-5 3q-23 13 -68 38q-323 181 -323 365q0 159 115 247.5t323 88.5q29 0 141 -6.5t195 -10.5v-313zM267 1800l231 -207l231 207h64l-232 -354h-126l-232 354h64z" />
    <glyph glyph-name="scaron" unicode="&#x161;" horiz-adv-x="842" 
d="M203 348v-45q0 -124 46 -170.5t165 -46.5q87 0 131.5 34.5t44.5 100.5q0 88 -187 174q-42 20 -65 31q-157 74 -198.5 126t-41.5 134q0 124 89 197t241 73q30 0 117 -11t143 -11h25v-229l-97 -52q0 7 1 17.5t1 15.5q0 88 -44.5 126t-147.5 38q-79 0 -119.5 -31t-40.5 -90
q0 -49 32.5 -81.5t156.5 -88.5q13 -6 38 -17q265 -120 265 -282q0 -128 -94.5 -206.5t-249.5 -78.5q-62 0 -167 11.5t-143 14.5v300zM191 1421l231 -207l231 207h64l-232 -354h-126l-232 354h64z" />
    <glyph glyph-name="Ydieresis" unicode="&#x178;" horiz-adv-x="1053" 
d="M635 651v-319q0 -165 40 -203t170 -47l-26 -82h-559l27 82q106 12 140 48.5t34 184.5v50v253l-168 277q-122 201 -185.5 258t-142.5 68l27 84h602l-25 -84q-12 0 -30.5 1t-24.5 1q-79 0 -112 -19.5t-33 -64.5q0 -27 20 -72t78 -141l102 -170q78 134 146.5 268.5
t132.5 277.5q15 3 45 8q131 21 203 36q-149 -205 -269.5 -387t-191.5 -308zM706 1712q43 0 74 -30.5t31 -73.5q0 -46 -30 -76.5t-75 -30.5q-44 0 -75 31t-31 76q0 42 31.5 73t74.5 31zM350 1712q43 0 74.5 -31t31.5 -73q0 -46 -30.5 -76.5t-75.5 -30.5q-44 0 -74.5 31
t-30.5 76q0 42 31 73t74 31z" />
    <glyph glyph-name="Zcaron" unicode="&#x17d;" horiz-adv-x="1098" 
d="M999 1305l52 -109q-200 -257 -389.5 -524.5t-372.5 -552.5h293q178 0 241.5 52.5t104.5 215.5h110l-94 -387h-842l-55 109q214 272 405.5 541t360.5 536h-276q-178 0 -241.5 -53t-102.5 -209h-111l90 381h827zM320 1800l231 -207l231 207h64l-232 -354h-126l-232 354h64z
" />
    <glyph glyph-name="zcaron" unicode="&#x17e;" horiz-adv-x="858" 
d="M731 934l37 -86q-144 -188 -267.5 -374t-228.5 -370h222q84 0 125.5 42t70.5 165h90l-71 -311h-621l-41 92q135 181 258.5 365t237.5 372h-183q-84 0 -119.5 -29.5t-64.5 -127.5h-90l59 262h586zM199 1421l231 -207l231 207h64l-232 -354h-126l-232 354h64z" />
    <glyph glyph-name="florin" unicode="&#x192;" 
d="M937 1301q-35 13 -70.5 19.5t-71.5 6.5q-64 0 -91.5 -35t-46.5 -178l-34 -272h206l-36 -109h-185l-63 -469q-39 -284 -127.5 -407t-247.5 -123q-58 0 -107.5 11t-89.5 32l56 139q54 -33 100 -49.5t84 -16.5q65 0 95.5 49.5t51.5 213.5l84 620h-211l37 109h189l20 162
q30 219 124 338.5t237 119.5q31 0 65 -4t70 -12z" />
    <glyph glyph-name="circumflex" unicode="&#x2c6;" 
d="M575 1421l232 -354h-64l-231 207l-231 -207h-64l232 354h126z" />
    <glyph glyph-name="caron" unicode="&#x2c7;" 
d="M281 1421l231 -207l231 207h64l-232 -354h-126l-232 354h64z" />
    <glyph glyph-name="breve" unicode="&#x2d8;" 
d="M272 1382q18 -74 74.5 -106.5t165.5 -32.5t164 32.5t74 106.5h57q-20 -135 -95 -205.5t-200 -70.5t-200.5 70t-96.5 206h57z" />
    <glyph glyph-name="dotaccent" unicode="&#x2d9;" 
d="M512 1339q45 0 78 -33t33 -77q0 -47 -32.5 -80t-78.5 -33q-45 0 -78 33.5t-33 79.5q0 44 33.5 77t77.5 33z" />
    <glyph glyph-name="ring" unicode="&#x2da;" 
d="M657 1292q0 60 -42.5 103t-102.5 43q-61 0 -103 -42.5t-42 -103.5q0 -60 42.5 -102.5t102.5 -42.5q59 0 102 41.5t43 99.5v4zM512 1536q101 0 172.5 -71t71.5 -173t-71 -172.5t-173 -70.5q-103 0 -173.5 70t-70.5 173q0 102 71.5 173t172.5 71z" />
    <glyph glyph-name="ogonek" unicode="&#x2db;" 
d="M631 31q-89 -69 -133.5 -135t-44.5 -129q0 -55 26 -87t70 -32q40 0 69.5 18t49.5 53l30 -16q-38 -75 -93 -114.5t-122 -39.5q-70 0 -114.5 41t-44.5 103q0 88 64 172t194 166h49z" />
    <glyph glyph-name="tilde" unicode="&#x2dc;" 
d="M803 1372q-20 -107 -70.5 -161t-130.5 -54q-14 0 -31 2.5t-38 7.5l-109 29q-14 3 -28.5 4.5t-30.5 1.5q-34 0 -55 -21.5t-34 -68.5h-57q18 110 68.5 164.5t134.5 54.5q19 0 35.5 -2t29.5 -6l112 -29q17 -4 30 -6t24 -2q36 0 58 20t37 66h55z" />
    <glyph glyph-name="hungarumlaut" unicode="&#x2dd;" 
d="M623 1067h-64l189 289q27 41 51 58.5t55 17.5q27 0 45.5 -18.5t18.5 -45.5q0 -23 -12.5 -44.5t-37.5 -43.5zM379 1067h-66l146 279q25 47 48 67.5t50 20.5q30 0 50 -20t20 -50q0 -17 -11 -38.5t-32 -43.5z" />
    <glyph glyph-name="Omega" unicode="&#x3a9;" horiz-adv-x="1569" 
d="M1112 231v-26h311l60 184h61l-117 -389h-505q120 216 181.5 435t61.5 427q0 277 -95.5 418t-283.5 141q-189 0 -284.5 -140t-95.5 -419q0 -209 61 -426t182 -436h-506l-116 389h61l59 -184h312v26q-165 183 -237 335t-72 311q0 267 183 443.5t453 176.5t452.5 -177
t182.5 -443q0 -158 -71.5 -309t-237.5 -337z" />
    <glyph glyph-name="pi" unicode="&#x3c0;" horiz-adv-x="1389" 
d="M1370 885l-43 -199h-340q-33 -137 -37 -401q-1 -58 -2 -87q-3 -125 -32.5 -183t-90.5 -58q-42 0 -64 28t-22 83q0 58 77 259t114 359h-387q-35 -142 -40 -414q-1 -49 -1 -73q-4 -127 -33 -184.5t-90 -57.5q-42 0 -63 28t-21 83q0 59 76 260t112 358h-188
q-91 0 -135.5 -41.5t-67.5 -152.5h-57q40 218 124 305.5t251 87.5h960z" />
    <glyph glyph-name="endash" unicode="&#x2013;" 
d="M1024 537l-49 -111h-975l49 111h975z" />
    <glyph glyph-name="emdash" unicode="&#x2014;" horiz-adv-x="2048" 
d="M2048 537l-49 -111h-1999l61 111h1987z" />
    <glyph glyph-name="quoteleft" unicode="&#x2018;" horiz-adv-x="512" 
d="M299 891q-73 68 -108 135t-35 137q0 75 20 119.5t53 44.5q44 0 85.5 -30t41.5 -64q0 -13 -34.5 -87t-34.5 -142q0 -21 4.5 -44.5t15.5 -62.5z" />
    <glyph glyph-name="quoteright" unicode="&#x2019;" horiz-adv-x="512" 
d="M205 895q11 37 15.5 61.5t4.5 44.5q0 68 -33.5 144t-33.5 88q0 35 40.5 63.5t86.5 28.5q33 0 53 -44t20 -118q0 -69 -35.5 -136t-109.5 -138z" />
    <glyph glyph-name="quotesinglbase" unicode="&#x201a;" horiz-adv-x="512" 
d="M205 -166q11 36 15.5 59.5t4.5 45.5q0 68 -33.5 143.5t-33.5 87.5q0 36 40.5 64t86.5 28q33 0 53 -44t20 -118q0 -68 -35 -134t-110 -138z" />
    <glyph glyph-name="quotedblleft" unicode="&#x201c;" horiz-adv-x="846" 
d="M631 891q-75 70 -110.5 136t-35.5 136q0 74 20.5 119t53.5 45q45 0 87 -29.5t42 -64.5q0 -13 -35 -88t-35 -144q1 -19 5 -42t16 -62zM299 891q-73 68 -108 135t-35 137q0 75 20 119.5t53 44.5q44 0 85.5 -30t41.5 -64q0 -13 -34.5 -87t-34.5 -142q0 -21 4.5 -44.5
t15.5 -62.5z" />
    <glyph glyph-name="quotedblright" unicode="&#x201d;" horiz-adv-x="846" 
d="M541 895q11 35 15.5 59.5t4.5 46.5q0 69 -33.5 143.5t-33.5 86.5q0 36 40.5 65t86.5 29q34 0 53.5 -44.5t19.5 -125.5q0 -64 -36 -131t-107 -135zM207 895q11 35 15.5 59.5t4.5 46.5q0 69 -34.5 144.5t-34.5 87.5q0 35 40.5 63.5t86.5 28.5q33 0 53 -44t20 -118
q0 -70 -35 -137t-108 -137z" />
    <glyph glyph-name="quotedblbase" unicode="&#x201e;" horiz-adv-x="846" 
d="M541 -166q11 36 15.5 59.5t4.5 45.5q0 68 -33.5 142.5t-33.5 86.5q0 36 40.5 65t86.5 29q34 0 53.5 -44.5t19.5 -125.5q0 -63 -35.5 -129t-107.5 -135zM205 -166q11 36 15.5 59.5t4.5 45.5q0 68 -33.5 143.5t-33.5 87.5q0 36 40.5 64t86.5 28q33 0 53 -44t20 -118
q0 -68 -35 -134t-110 -138z" />
    <glyph glyph-name="dagger" unicode="&#x2020;" 
d="M614 1309q-21 -62 -31 -135t-10 -195v-148h48q140 0 206.5 9.5t120.5 29.5v-180q-61 22 -133.5 31.5t-193.5 9.5h-48v-659q0 -122 10 -194.5t31 -133.5h-204q21 61 31 133.5t10 194.5v659h-48q-121 0 -193.5 -9.5t-133.5 -31.5v180q55 -20 121 -29.5t206 -9.5h48v148
q0 122 -10 195t-31 135h204z" />
    <glyph glyph-name="daggerdbl" unicode="&#x2021;" 
d="M614 1309q-21 -62 -31 -135t-10 -195v-127h48q140 0 206.5 9t120.5 30v-180q-61 21 -133.5 31t-193.5 10h-48v-410h48q131 0 200.5 9.5t126.5 31.5v-180q-58 20 -128 29.5t-199 9.5h-48v-170q0 -122 10 -194.5t31 -133.5h-204q21 61 31 133.5t10 194.5v170h-48
q-129 0 -199 -9.5t-128 -29.5v180q58 -22 127.5 -31.5t199.5 -9.5h48v410h-48q-121 0 -193.5 -10t-133.5 -31v180q55 -21 121 -30t206 -9h48v127q0 122 -10 195t-31 135h204z" />
    <glyph glyph-name="bullet" unicode="&#x2022;" horiz-adv-x="1208" 
d="M307 762q0 123 87 209t210 86q122 0 208.5 -86.5t86.5 -208.5t-87.5 -209.5t-209.5 -87.5q-123 0 -209 87t-86 210z" />
    <glyph glyph-name="ellipsis" unicode="&#x2026;" horiz-adv-x="2048" 
d="M240 -25v58q0 82 5.5 121.5t18.5 48.5q30 18 70 31.5t57 13.5q25 0 36 -21t11 -69q0 -80 -38 -116t-160 -67zM922 -25v58q0 82 5.5 121.5t18.5 48.5q30 18 70 31.5t57 13.5q25 0 36 -21t11 -69q0 -80 -38 -116t-160 -67zM1606 -25v58q0 82 5.5 121.5t18.5 48.5
q30 18 70 31.5t57 13.5q25 0 36 -21t11 -69q0 -80 -38 -116t-160 -67z" />
    <glyph glyph-name="perthousand" unicode="&#x2030;" horiz-adv-x="1937" 
d="M1604 582q-55 0 -75 -37t-20 -193v-20q0 -153 25 -200.5t90 -47.5q60 0 80 38.5t20 209.5q0 155 -26 202.5t-94 47.5zM1366 313q0 182 68 273.5t202 91.5q121 0 174.5 -73t53.5 -240q0 -191 -66.5 -284t-202.5 -93q-122 0 -175.5 75t-53.5 250zM989 582
q-55 0 -74.5 -36.5t-19.5 -193.5v-20q0 -151 25.5 -199.5t91.5 -48.5q58 0 78 37t20 211q0 156 -26 203t-95 47zM754 313q0 183 67.5 274t202.5 91q120 0 173.5 -73.5t53.5 -239.5q0 -191 -66.5 -284t-203.5 -93q-122 0 -174.5 74t-52.5 251zM954 1315l152 22
q-183 -312 -366.5 -645t-374.5 -702l-150 -25q192 328 377 665t362 685zM305 1221q-55 0 -74.5 -37t-19.5 -193v-20q0 -153 25 -201.5t88 -48.5q61 0 81.5 38t20.5 210q0 156 -26 204t-95 48zM70 952q0 182 67.5 272.5t202.5 90.5q121 0 174 -72.5t53 -238.5
q0 -192 -66 -284.5t-202 -92.5q-123 0 -176 74.5t-53 250.5z" />
    <glyph glyph-name="guilsinglleft" unicode="&#x2039;" horiz-adv-x="561" 
d="M479 782l-239 -315l239 -315h-168l-239 315l237 315h170z" />
    <glyph glyph-name="guilsinglright" unicode="&#x203a;" horiz-adv-x="561" 
d="M252 782l237 -315l-239 -315h-168l240 315l-240 315h170z" />
    <glyph glyph-name="franc" unicode="&#x20a3;" horiz-adv-x="1784" 
d="M952 1305v-299l-104 -29q-5 126 -57.5 177.5t-176.5 51.5q-133 0 -175 -29t-42 -157v-59v-216h133q100 0 132.5 25.5t37.5 93.5l91 25v-418l-90 -22q-8 112 -43.5 148t-143.5 36h-117v-322q0 -129 44.5 -172t195.5 -57l-25 -82h-544l26 82h15q68 0 92 50t24 241v127v319
q0 275 -33.5 335t-138.5 69l25 82h874zM1264 324v272q0 128 -26.5 156t-120.5 32l26 84q71 11 139 28.5t134 41.5v-252q40 131 131 199.5t231 72.5l-70 -192q-11 2 -24 3t-37 1q-115 0 -163 -87t-48 -296v-123q0 -116 35.5 -148.5t148.5 -33.5l-24 -82h-477l25 82
q71 9 95.5 51.5t24.5 190.5z" />
    <glyph glyph-name="trademark" unicode="&#x2122;" horiz-adv-x="1683" 
d="M780 1442h191l137 -391l143 391h181v-25l-30 -2q-21 -2 -31.5 -15t-10.5 -38v-375q0 -25 10.5 -38t31.5 -15l30 -2v-29h-240v29l31 2q21 2 32 15.5t11 37.5v387l-172 -473h-21l-172 475v-389q0 -24 11 -37.5t32 -15.5l33 -2v-29h-197v29l34 2q20 2 31 15.5t11 37.5v371
q0 24 -11 37.5t-31 15.5l-34 4v27zM250 1442h444l11 -182h-27q-8 78 -40.5 114.5t-94.5 36.5h-17v-424q0 -24 10.5 -37.5t30.5 -15.5l33 -2v-29h-254v29l31 2q21 2 32 15.5t11 37.5v424h-17q-64 0 -96.5 -36t-40.5 -115h-26z" />
    <glyph glyph-name="partialdiff" unicode="&#x2202;" horiz-adv-x="1059" 
d="M756 621q15 87 22.5 168.5t7.5 156.5q0 129 -36.5 194.5t-108.5 65.5q-55 0 -127 -58t-108 -58t-60 22t-24 53q0 62 72 111t173 49q180 0 287 -155t107 -418q0 -335 -144.5 -556t-357.5 -221q-152 0 -253.5 108t-101.5 271q0 198 110.5 326.5t272.5 128.5
q101 0 166 -45.5t103 -142.5zM707 494q0 116 -43.5 178.5t-122.5 62.5q-109 0 -179.5 -129t-70.5 -336q0 -116 43 -177.5t123 -61.5q109 0 179.5 130t70.5 333z" />
    <glyph glyph-name="Delta" unicode="&#x2206;" horiz-adv-x="1350" 
d="M602 1174l-389 -957h768zM666 1497h30l600 -1497h-1243z" />
    <glyph glyph-name="product" unicode="&#x220f;" horiz-adv-x="1630" 
d="M53 1473h1522v-74h-191v-1718h191v-74h-596v74h192v1718h-714v-1718h192v-74h-596v74h191v1718h-191v74z" />
    <glyph glyph-name="summation" unicode="&#x2211;" horiz-adv-x="1462" 
d="M16 1473h1162l110 -365h-78l-73 227q-11 34 -41.5 49t-98.5 15h-690l809 -832v-37l-825 -735h887q61 0 79 13t29 51l72 229h78l-148 -481h-1272v41l920 815l-920 956v54z" />
    <glyph glyph-name="minus" unicode="&#x2212;" horiz-adv-x="1706" 
d="M254 682h1198v-141h-1198v141z" />
    <glyph glyph-name="fraction" unicode="&#x2215;" horiz-adv-x="342" 
d="M686 1327l-922 -1352h-110l921 1352h111z" />
    <glyph glyph-name="periodcentered" unicode="&#x2219;" horiz-adv-x="512" 
d="M256 786q52 0 89.5 -37t37.5 -90q0 -51 -38 -89t-89 -38t-89 38.5t-38 88.5q0 52 37.5 89.5t89.5 37.5z" />
    <glyph glyph-name="radical" unicode="&#x221a;" horiz-adv-x="1305" 
d="M1116 1661h189v-96h-115l-594 -1606h-66l-319 883l-125 -45l-25 80l283 98l256 -709z" />
    <glyph glyph-name="infinity" unicode="&#x221e;" horiz-adv-x="1706" 
d="M915 559q50 -89 116.5 -133.5t150.5 -44.5q101 0 165 67.5t64 172.5q0 101 -59 168t-148 67q-81 0 -146.5 -66.5t-142.5 -230.5zM793 666q-49 88 -115.5 132t-151.5 44q-101 0 -165 -66.5t-64 -171.5q0 -101 59 -168t148 -67q81 0 146.5 66t142.5 231zM864 483
q-71 -136 -148.5 -199t-172.5 -63q-135 0 -228.5 112t-93.5 277q0 175 83.5 283t217.5 108q95 0 170 -61.5t150 -202.5q68 138 147 203.5t176 65.5q133 0 227.5 -113t94.5 -279q0 -174 -83.5 -281.5t-217.5 -107.5q-95 0 -168.5 58.5t-153.5 199.5z" />
    <glyph glyph-name="integral" unicode="&#x222b;" horiz-adv-x="1067" 
d="M311 -262q106 0 120 688q2 108 3 165q12 515 107 737t297 222q80 0 130 -42t50 -107q0 -54 -32 -85.5t-87 -31.5q-42 0 -70 19t-40 54q-6 15 -10.5 51t-20.5 36q-107 0 -121 -619q-4 -193 -8 -303q-17 -479 -111.5 -686t-290.5 -207q-79 0 -129.5 41.5t-50.5 106.5
q0 56 34 87.5t95 31.5q33 0 57 -14.5t39 -42.5q10 -18 15 -59.5t24 -41.5z" />
    <glyph glyph-name="approxequal" unicode="&#x2248;" horiz-adv-x="1706" 
d="M1530 586v-156q-105 -73 -199.5 -107t-189.5 -34t-285 67.5t-293 67.5q-82 0 -171.5 -36t-213.5 -122v156q108 73 204 109t183 36q115 0 305 -68.5t273 -68.5q88 0 177 35.5t210 120.5zM1530 954v-155q-105 -73 -199.5 -107.5t-189.5 -34.5t-285 68t-293 68
q-83 0 -171.5 -36t-213.5 -122v156q106 72 202 107.5t185 35.5q116 0 305.5 -67.5t272.5 -67.5q87 0 175 34.5t212 120.5z" />
    <glyph glyph-name="notequal" unicode="&#x2260;" horiz-adv-x="1706" 
d="M1208 1194l105 -82l-187 -235h326v-136h-416l-205 -262h621v-135h-709l-249 -317l-105 84l184 233h-319v135h408l204 262h-612v136h702z" />
    <glyph glyph-name="lessequal" unicode="&#x2264;" horiz-adv-x="1706" 
d="M262 162h1184v-139h-1184v139zM1444 1206v-147l-936 -309l936 -306v-149l-1182 395v121z" />
    <glyph glyph-name="greaterequal" unicode="&#x2265;" horiz-adv-x="1706" 
d="M262 162h1184v-139h-1184v139zM262 1206l1184 -395v-121l-1184 -395v149l938 306l-938 309v147z" />
    <glyph glyph-name="lozenge" unicode="&#x25ca;" horiz-adv-x="1012" 
d="M506 1409l-385 -817l385 -825l385 825zM506 1653l500 -1061l-500 -1069l-500 1069z" />
    <glyph glyph-name="apple" unicode="&#xf000;" horiz-adv-x="1618" 
d="M836 1216q-1 6 -1.5 14t-0.5 23q0 124 95 229.5t236 131.5q1 -10 1.5 -23t0.5 -39q0 -131 -103.5 -234.5t-203.5 -103.5h-8q-3 0 -7.5 1t-8.5 1zM1505 403q-114 -247 -205 -342.5t-204 -95.5q-50 0 -131.5 33t-122.5 33q-45 0 -131 -33t-127 -33q-64 0 -128.5 44
t-129.5 132q-102 140 -157.5 295.5t-55.5 300.5q0 219 125 356.5t323 137.5q68 0 155 -34t124 -34q34 0 121.5 35t152.5 35q110 0 198 -40t161 -124q-102 -65 -151.5 -145.5t-49.5 -182.5q0 -113 60 -200t173 -138z" />
    <glyph glyph-name="fi" unicode="&#xf001;" horiz-adv-x="1163" 
d="M748 1399q-9 0 -25 1q-89 3 -125 3q-74 0 -113 -11t-57 -36q-16 -23 -22.5 -63t-6.5 -140v-41v-178h201q70 0 166.5 13t199.5 38q-2 -110 -3.5 -212.5t-1.5 -197.5v-311q0 -113 32.5 -146t132.5 -36l-26 -82h-457l27 82q71 9 96 52t25 190v327q0 121 -40.5 147.5
t-175.5 26.5h-176v-538q0 -129 34.5 -165.5t137.5 -39.5l-26 -82h-463l25 82q72 9 97 53t25 189v501h-145l39 109h106v133q0 276 106 377.5t378 101.5q31 0 48 -0.5t31 -1.5z" />
    <glyph glyph-name="fl" unicode="&#xf002;" horiz-adv-x="1163" 
d="M793 934v432q-31 23 -82 36t-109 13q-114 0 -158.5 -46.5t-44.5 -240.5v-194h394zM961 1128v-827q0 -149 32.5 -182.5t132.5 -36.5l-26 -82h-455l25 82q73 10 98 53.5t25 188.5v501h-394v-538q0 -131 34.5 -166.5t137.5 -38.5l-26 -82h-463l24 82q74 9 98.5 52.5
t24.5 189.5v501h-145l39 109h106v133q0 177 26.5 251.5t88.5 129.5q46 42 117 67t147 25q28 0 93 -5t104 -5q47 0 87 6.5t78 19.5q-5 -91 -7 -184.5t-2 -243.5z" />
    </font>
</defs>
</svg>
